SplineFontDB: 3.0
FontName: VerdanaCamel-Bold
FullName: VerdanaCamel Bold
FamilyName: VerdanaCamel
Weight: Bold
Copyright: (c) 2006 Microsoft Corporation. All Rights Reserved.
Version: 5.01x
ItalicAngle: 0
UnderlinePosition: -244
UnderlineWidth: 211
Ascent: 1638
Descent: 410
InvalidEm: 0
sfntRevision: 0x0005028f
LayerCount: 2
Layer: 0 1 "Back" 1
Layer: 1 1 "Fore" 0
XUID: [1021 997 -660668673 14626527]
StyleMap: 0x0020
FSType: 8
OS2Version: 2
OS2_WeightWidthSlopeOnly: 0
OS2_UseTypoMetrics: 0
CreationTime: 826712952
ModificationTime: 1475384955
PfmFamily: 17
TTFWeight: 700
TTFWidth: 5
LineGap: 0
VLineGap: 0
Panose: 2 11 8 4 3 5 4 4 2 4
OS2TypoAscent: 1566
OS2TypoAOffset: 0
OS2TypoDescent: -423
OS2TypoDOffset: 0
OS2TypoLinegap: 202
OS2WinAscent: 2059
OS2WinAOffset: 0
OS2WinDescent: 430
OS2WinDOffset: 0
HheadAscent: 2059
HheadAOffset: 0
HheadDescent: -430
HheadDOffset: 0
OS2SubXSize: 1434
OS2SubYSize: 1331
OS2SubXOff: 0
OS2SubYOff: 293
OS2SupXSize: 1434
OS2SupYSize: 1331
OS2SupXOff: 0
OS2SupYOff: 928
OS2StrikeYSize: 211
OS2StrikeYPos: 773
OS2CapHeight: 1489
OS2XHeight: 1123
OS2FamilyClass: 2048
OS2Vendor: 'MS  '
OS2CodePages: 2000019f.00000000
OS2UnicodeRanges: a10006ff.4000205b.00000010.00000000
Lookup: 1 0 0 "'locl' Localized Forms in Latin lookup 0" { "'locl' Localized Forms in Latin lookup 0 subtable"  } ['locl' ('latn' <'ROM ' > ) ]
Lookup: 1 0 0 "'locl' Localized Forms in Latin lookup 1" { "'locl' Localized Forms in Latin lookup 1 subtable"  } ['locl' ('latn' <'LTH ' > ) ]
MarkAttachClasses: 1
DEI: 91125
TtTable: prep
NPUSHB
 9
 84
 232
 231
 36
 31
 231
 230
 17
 31
PUSHW_1
 -64
NPUSHB
 100
 214
 12
 16
 54
 64
 217
 1
 215
 146
 17
 31
 205
 146
 17
 31
 204
 146
 17
 31
 203
 146
 17
 31
 202
 146
 17
 31
 201
 146
 17
 31
 193
 146
 17
 31
 169
 155
 36
 31
 156
 155
 36
 31
 154
 155
 32
 31
 153
 155
 40
 31
 155
 146
 27
 31
 241
 152
 21
 31
 167
 152
 25
 31
 151
 152
 42
 31
 150
 152
 37
 31
 149
 152
 25
 31
 64
 152
 1
 152
 146
 17
 31
 15
 242
 1

StartChar: .notdef
Encoding: 65536 -1 0
Width: 2048
GlyphClass: 2
Flags: W
LayerCount: 2
Fore
SplineSet
291 35 m 1,0,-1
 291 1501 l 1,1,-1
 1757 1501 l 1,2,-1
 1757 35 l 1,3,-1
 291 35 l 1,0,-1
349 93 m 1,4,-1
 1699 93 l 1,5,-1
 1699 1443 l 1,6,-1
 349 1443 l 1,7,-1
 349 93 l 1,4,-1
EndSplineSet
Validated: 1
EndChar

StartChar: exclam
Encoding: 33 33 4
Width: 1457
GlyphClass: 2
Flags: W
LayerCount: 2
Fore
SplineSet
917.44821033 1454 m 1,0,-1
 874.485822208 464 l 1,1,-1
 615.514177792 464 l 1,2,-1
 572.55178967 1454 l 1,3,-1
 917.44821033 1454 l 1,0,-1
912 35 m 1,4,-1
 578 35 l 1,5,-1
 578 229 l 1,6,-1
 912 229 l 1,7,-1
 912 35 l 1,4,-1
EndSplineSet
Validated: 1
EndChar

StartChar: quotedbl
Encoding: 34 34 5
Width: 1203
GlyphClass: 2
Flags: W
LayerCount: 2
Fore
SplineSet
997.253506116 1521 m 1,0,-1
 944.384236167 1002 l 1,1,-1
 781.615763833 1002 l 1,2,-1
 728.746493884 1521 l 1,3,-1
 997.253506116 1521 l 1,0,-1
474.253506116 1521 m 1,4,-1
 421.384236167 1002 l 1,5,-1
 258.615763833 1002 l 1,6,-1
 205.746493884 1521 l 1,7,-1
 474.253506116 1521 l 1,4,-1
EndSplineSet
Validated: 1
EndChar

StartChar: numbersign
Encoding: 35 35 6
Width: 1776
GlyphClass: 2
Flags: W
LayerCount: 2
Fore
SplineSet
1589 940 m 1,0,-1
 1280.69412675 940 l 1,1,-1
 1185.13785665 559 l 1,2,-1
 1477 559 l 1,3,-1
 1477 389 l 1,4,-1
 1142.85925654 389 l 1,5,-1
 1051.85925654 35 l 1,6,-1
 882.888630874 35 l 1,7,-1
 971.888630874 389 l 1,8,-1
 635.710239182 389 l 1,9,-1
 546.710239182 35 l 1,10,-1
 374.011735182 35 l 1,11,-1
 464.011735182 389 l 1,12,-1
 184 389 l 1,13,-1
 184 559 l 1,14,-1
 506.391201095 559 l 1,15,-1
 600.722390806 940 l 1,16,-1
 298 940 l 1,17,-1
 298 1109 l 1,18,-1
 643.346393669 1109 l 1,19,-1
 729.346393669 1454 l 1,20,-1
 902.204330969 1454 l 1,21,-1
 816.204330969 1109 l 1,22,-1
 1151.26961654 1109 l 1,23,-1
 1238.26961654 1454 l 1,24,-1
 1411.07820955 1454 l 1,25,-1
 1324.07820955 1109 l 1,26,-1
 1589 1109 l 1,27,-1
 1589 940 l 1,0,-1
1112.82717422 942 m 1,28,-1
 772.756562247 942 l 1,29,-1
 675.03504326 556 l 1,30,-1
 1016.32717422 556 l 1,31,-1
 1112.82717422 942 l 1,28,-1
EndSplineSet
Validated: 1
EndChar

StartChar: dollar
Encoding: 36 36 7
Width: 1316
GlyphClass: 2
Flags: W
LayerCount: 2
Fore
SplineSet
709.654004147 1119.45996094 m 1,0,-1
 709.654004147 799.521484375 l 1,1,-1
 807.371008471 777.690429688 l 2,2,3
 856.835178679 767.09765625 856.835178679 767.09765625 900.019982238 753.897460938 c 128,-1,4
 943.205745652 740.697265625 943.205745652 740.697265625 980.60546875 724.883789062 c 0,5,6
 1056.40917969 693.365234375 1056.40917969 693.365234375 1105.98242188 651.705078125 c 0,7,8
 1200 572.696289062 1200 572.696289062 1200 429 c 0,9,10
 1200 352.517578125 1200 352.517578125 1167.65136719 286.7734375 c 128,-1,11
 1135.30175781 221.029296875 1135.30175781 221.029296875 1070.29980469 165.639648438 c 0,12,13
 1062.94628906 159.374023438 1062.94628906 159.374023438 1055.34375 153.422851562 c 128,-1,14
 1047.73925781 147.469726562 1047.73925781 147.469726562 1039.86425781 141.813476562 c 128,-1,15
 1031.98730469 136.158203125 1031.98730469 136.158203125 1023.84179688 130.8046875 c 0,16,17
 1019.76855469 128.126953125 1019.76855469 128.126953125 1015.62304688 125.521484375 c 128,-1,18
 1011.47851562 122.916992188 1011.47851562 122.916992188 1007.26171875 120.384765625 c 0,19,20
 998.827148438 115.3203125 998.827148438 115.3203125 990.10546875 110.545898438 c 0,21,22
 985.705078125 108.137695312 985.705078125 108.137695312 981.2890625 105.833007812 c 128,-1,23
 976.873046875 103.528320312 976.873046875 103.528320312 972.241210938 101.225585938 c 0,24,25
 967.103515625 98.5009765625 967.103515625 98.5009765625 961.940429688 95.91796875 c 128,-1,26
 956.768554688 93.3291015625 956.768554688 93.3291015625 951.639025287 90.849609375 c 0,27,28
 949.948721914 90.0263671875 949.948721914 90.0263671875 948.248819998 89.2138671875 c 128,-1,29
 946.547958228 88.4013671875 946.547958228 88.4013671875 944.839417623 87.6015625 c 128,-1,30
 943.129917165 86.80078125 943.129917165 86.80078125 941.412737872 86.013671875 c 0,31,32
 936.25832043 83.650390625 936.25832043 83.650390625 931.018475958 81.396484375 c 0,33,34
 928.398073795 80.2685546875 928.398073795 80.2685546875 925.757514693 79.16796875 c 128,-1,35
 923.115995736 78.068359375 923.115995736 78.068359375 920.454319839 76.9951171875 c 0,36,37
 915.129048337 74.849609375 915.129048337 74.849609375 909.716430096 72.8095703125 c 128,-1,38
 904.302852001 70.7705078125 904.302852001 70.7705078125 898.802887021 68.8388671875 c 128,-1,39
 893.302922042 66.9072265625 893.302922042 66.9072265625 887.711770906 65.08203125 c 128,-1,40
 882.119659917 63.2568359375 882.119659917 63.2568359375 876.43828248 61.5380859375 c 0,41,42
 873.598073688 60.6787109375 873.598073688 60.6787109375 870.73386854 59.845703125 c 128,-1,43
 867.870623246 59.0126953125 867.870623246 59.0126953125 864.982421741 58.2060546875 c 0,44,45
 836.081209606 50.130859375 836.081209606 50.130859375 804.823555233 44.8037109375 c 128,-1,46
 773.553422754 39.4765625 773.553422754 39.4765625 739.892293283 36.9130859375 c 2,47,-1
 709.654004147 34.61328125 l 1,48,-1
 709.654004147 -326 l 1,49,-1
 618.974651346 -326 l 1,50,-1
 618.974651346 30.6767578125 l 1,51,-1
 586.740825178 30.9990234375 l 2,52,53
 489.29258005 31.9697265625 489.29258005 31.9697265625 359.166015625 57.4521484375 c 0,54,55
 336.5625 61.4501953125 336.5625 61.4501953125 315.534179688 65.7666015625 c 128,-1,56
 294.509765625 70.0830078125 294.509765625 70.0830078125 275.033203125 74.720703125 c 128,-1,57
 255.561523438 79.3564453125 255.561523438 79.3564453125 237.572265625 84.3251953125 c 0,58,59
 215.466796875 90.4326171875 215.466796875 90.4326171875 195.013671875 97.2744140625 c 128,-1,60
 174.560546875 104.1171875 174.560546875 104.1171875 158 110.869140625 c 1,61,-1
 158 345.64453125 l 1,62,63
 253.6015625 295.518554688 253.6015625 295.518554688 369.97265625 266.107421875 c 0,64,65
 376.095703125 264.426757812 376.095703125 264.426757812 382.275547682 262.78125 c 128,-1,66
 388.393658813 261.134765625 388.393658813 261.134765625 394.442660436 259.568359375 c 0,67,68
 406.610733045 256.41796875 406.610733045 256.41796875 418.78264507 253.526367188 c 128,-1,69
 430.954557096 250.634765625 430.954557096 250.634765625 443.072717282 248.018554688 c 0,70,71
 450.359930916 246.444335938 450.359930916 246.444335938 457.641385425 244.966796875 c 128,-1,72
 464.923799788 243.489257812 464.923799788 243.489257812 472.201414879 242.107421875 c 128,-1,73
 479.478070117 240.724609375 479.478070117 240.724609375 486.750885937 239.438476562 c 128,-1,74
 494.023701757 238.151367188 494.023701757 238.151367188 501.292678161 236.9609375 c 128,-1,75
 508.560694709 235.76953125 508.560694709 235.76953125 515.824871841 234.673828125 c 0,76,77
 524.90605311 233.303710938 524.90605311 233.303710938 533.978595691 232.083007812 c 128,-1,78
 543.052098126 230.86328125 543.052098126 230.86328125 552.116002018 229.791992188 c 128,-1,79
 561.180865764 228.721679688 561.180865764 228.721679688 570.237090822 227.80078125 c 128,-1,80
 579.294275734 226.879882812 579.294275734 226.879882812 588.341862104 226.108398438 c 2,81,-1
 623.450451817 223.119140625 l 1,82,-1
 623.450451817 562.713867188 l 1,83,-1
 511.599593335 591.0546875 l 2,84,85
 484.752469342 597.901367188 484.752469342 597.901367188 459.351845738 605.498046875 c 0,86,87
 446.656813134 609.294921875 446.656813134 609.294921875 434.339003259 613.272460938 c 128,-1,88
 422.024072947 617.25 422.024072947 617.25 410.082525947 621.408203125 c 128,-1,89
 398.101624922 625.580078125 398.101624922 625.580078125 386.39332251 629.926757812 c 0,90,91
 380.492138445 632.112304688 380.492138445 632.112304688 374.547851562 634.333007812 c 128,-1,92
 368.590820312 636.5546875 368.590820312 636.5546875 362.534179688 638.8671875 c 0,93,94
 358.8203125 640.208984375 358.8203125 640.208984375 355.2265625 641.56640625 c 128,-1,95
 351.634765625 642.922851562 351.634765625 642.922851562 348.115234375 644.313476562 c 0,96,97
 346.356445312 645.008789062 346.356445312 645.008789062 344.611328125 645.712890625 c 128,-1,98
 342.8671875 646.41796875 342.8671875 646.41796875 341.139648438 647.130859375 c 0,99,100
 337.680664062 648.559570312 337.680664062 648.559570312 334.287109375 650.0234375 c 128,-1,101
 330.892578125 651.48828125 330.892578125 651.48828125 327.541015625 652.997070312 c 0,102,103
 324.7578125 654.250976562 324.7578125 654.250976562 322.009765625 655.533203125 c 128,-1,104
 319.26171875 656.815429688 319.26171875 656.815429688 316.549804688 658.125976562 c 128,-1,105
 313.836914062 659.436523438 313.836914062 659.436523438 311.16015625 660.776367188 c 0,106,107
 303.129882812 664.794921875 303.129882812 664.794921875 295.4140625 669.0703125 c 0,108,109
 280.063476562 677.579101562 280.063476562 677.579101562 266.006835938 687.081054688 c 0,110,111
 258.98828125 691.825195312 258.98828125 691.825195312 252.291015625 696.81640625 c 128,-1,112
 245.59375 701.806640625 245.59375 701.806640625 239.216796875 707.044921875 c 0,113,114
 189.443359375 747.9296875 189.443359375 747.9296875 161.806640625 808.106445312 c 0,115,116
 157.255859375 818.013671875 157.255859375 818.013671875 153.443359375 828.79296875 c 128,-1,117
 149.629882812 839.572265625 149.629882812 839.572265625 146.545898438 851.262695312 c 128,-1,118
 143.4609375 862.954101562 143.4609375 862.954101562 141.122070312 875.517578125 c 0,119,120
 137.564453125 894.622070312 137.564453125 894.622070312 135.782226562 915.745117188 c 128,-1,121
 134 936.868164062 134 936.868164062 134 960 c 0,122,123
 134 1091.90332031 134 1091.90332031 256.569335938 1187.43652344 c 0,124,125
 319.883789062 1237.22949219 319.883789062 1237.22949219 403.591991359 1267.42871094 c 0,126,127
 486.275758072 1297.62792969 486.275758072 1297.62792969 589.511924462 1308.15722656 c 2,128,-1
 618.974651346 1311.16015625 l 1,129,-1
 618.974651346 1541 l 1,130,-1
 709.654004147 1541 l 1,131,-1
 709.654004147 1311.54492188 l 1,132,-1
 740.721607374 1310.03613281 l 2,133,134
 760.700014195 1309.06542969 760.700014195 1309.06542969 782.458950691 1306.99316406 c 128,-1,135
 804.216927333 1304.92089844 804.216927333 1304.92089844 827.78038986 1301.74023438 c 0,136,137
 839.562601051 1300.15039062 839.562601051 1300.15039062 851.79594375 1298.28222656 c 128,-1,138
 864.029286449 1296.4140625 864.029286449 1296.4140625 876.712800802 1294.26757812 c 0,139,140
 902.089428049 1289.97265625 902.089428049 1289.97265625 929.277300309 1284.5625 c 0,141,142
 1025.859375 1266.69726562 1025.859375 1266.69726562 1091 1243.83691406 c 1,143,-1
 1091 1015.12207031 l 1,144,145
 1072.89550781 1025.14550781 1072.89550781 1025.14550781 1054.57714844 1033.99316406 c 0,146,147
 1035.34179688 1043.28417969 1035.34179688 1043.28417969 1015.17089844 1051.64160156 c 128,-1,148
 995.00390625 1059.99609375 995.00390625 1059.99609375 973.928710938 1067.43457031 c 0,149,150
 963.4765625 1071.14648438 963.4765625 1071.14648438 952.741897846 1074.68359375 c 128,-1,151
 942.165263621 1078.22070312 942.165263621 1078.22070312 931.37170233 1081.55371094 c 0,152,153
 916.811672876 1086.2265625 916.811672876 1086.2265625 901.861942587 1090.33691406 c 128,-1,154
 886.913172152 1094.44824219 886.913172152 1094.44824219 871.66396733 1097.97265625 c 0,155,156
 841.133882495 1105.02734375 841.133882495 1105.02734375 809.312793664 1109.76464844 c 0,157,158
 798.706403956 1111.34375 798.706403956 1111.34375 787.956995962 1112.66503906 c 128,-1,159
 777.208547822 1113.98535156 777.208547822 1113.98535156 766.319001105 1115.04882812 c 128,-1,160
 755.430414241 1116.11230469 755.430414241 1116.11230469 744.399768945 1116.91894531 c 2,161,-1
 709.654004147 1119.45996094 l 1,0,-1
430.503425588 901.39453125 m 128,-1,163
 435.635766381 891.8203125 435.635766381 891.8203125 442.500644136 883.34375 c 0,164,165
 445.93020345 879.109375 445.93020345 879.109375 449.778259227 875.170898438 c 128,-1,166
 453.62535515 871.231445312 453.62535515 871.231445312 457.887108119 867.590820312 c 0,167,168
 467.246647127 859.594726562 467.246647127 859.594726562 480.481117831 852.375976562 c 128,-1,169
 493.714628682 845.157226562 493.714628682 845.157226562 510.851866857 838.696289062 c 128,-1,170
 527.989105032 832.234375 527.989105032 832.234375 548.838099678 826.500976562 c 128,-1,171
 569.688054179 820.766601562 569.688054179 820.766601562 594.630827295 815.625976562 c 2,172,-1
 633.296636941 807.65625 l 1,173,-1
 633.296636941 1119.86328125 l 1,174,-1
 598.205324605 1116.89160156 l 2,175,176
 581.773579319 1115.50097656 581.773579319 1115.50097656 566.084761241 1112.44726562 c 128,-1,177
 550.395943162 1109.39453125 550.395943162 1109.39453125 535.459650833 1104.67773438 c 0,178,179
 505.413332551 1095.1875 505.413332551 1095.1875 478.698668448 1078.98730469 c 0,180,181
 470.882575109 1074.24707031 470.882575109 1074.24707031 464.005219249 1068.94335938 c 128,-1,182
 457.127863389 1063.640625 457.127863389 1063.640625 451.182526027 1057.765625 c 128,-1,183
 445.23814852 1051.89160156 445.23814852 1051.89160156 440.241147179 1045.4375 c 128,-1,184
 435.244145838 1038.98339844 435.244145838 1038.98339844 431.224276146 1031.97949219 c 0,185,186
 423.188376179 1017.97558594 423.188376179 1017.97558594 419.172345905 1001.94824219 c 128,-1,187
 415.15631563 985.919921875 415.15631563 985.919921875 415.15631563 968 c 0,188,189
 415.15631563 963.814453125 415.15631563 963.814453125 415.343487213 959.739257812 c 128,-1,190
 415.530658796 955.6640625 415.530658796 955.6640625 415.906921671 951.688476562 c 128,-1,191
 416.282224691 947.711914062 416.282224691 947.711914062 416.846619003 943.846679688 c 0,192,193
 417.69513018 938.038085938 417.69513018 938.038085938 418.971736362 932.475585938 c 128,-1,194
 420.249302398 926.913085938 420.249302398 926.913085938 421.955923294 921.603515625 c 0,195,162
 425.377803774 910.954101562 425.377803774 910.954101562 430.503425588 901.39453125 c 128,-1,163
743.177874457 230.346679688 m 2,196,197
 759.607700034 232.849609375 759.607700034 232.849609375 774.965368388 236.82421875 c 0,198,199
 782.652841254 238.813476562 782.652841254 238.813476562 790.074434487 241.174804688 c 128,-1,200
 797.495067865 243.53515625 797.495067865 243.53515625 804.646942047 246.265625 c 0,201,202
 814.205170889 249.915039062 814.205170889 249.915039062 823.262355801 254.229492188 c 128,-1,203
 832.327219548 258.546875 832.327219548 258.546875 840.897758344 263.53515625 c 128,-1,204
 849.470216849 268.524414062 849.470216849 268.524414062 857.535872298 274.1796875 c 0,205,206
 914.366924045 314.030273438 914.366924045 314.030273438 914.366924045 390 c 0,207,208
 914.366924045 468.640625 914.366924045 468.640625 849.702501583 507.123046875 c 0,209,210
 846.405402158 509.084960938 846.405402158 509.084960938 843.107342878 510.959960938 c 128,-1,211
 839.809283599 512.834960938 839.809283599 512.834960938 836.508344757 514.623046875 c 128,-1,212
 833.207405915 516.412109375 833.207405915 516.412109375 829.90358751 518.11328125 c 128,-1,213
 826.60072896 519.814453125 826.60072896 519.814453125 823.294990847 521.428710938 c 128,-1,214
 819.989252733 523.04296875 819.989252733 523.04296875 816.681594911 524.571289062 c 128,-1,215
 813.373937089 526.098632812 813.373937089 526.098632812 810.063399705 527.5390625 c 128,-1,216
 806.753822174 528.978515625 806.753822174 528.978515625 803.440405227 530.33203125 c 128,-1,217
 800.127948133 531.685546875 800.127948133 531.685546875 796.813571332 532.951171875 c 0,218,219
 783.546465582 538.017578125 783.546465582 538.017578125 770.255363475 541.67578125 c 128,-1,220
 756.964261368 545.333007812 756.964261368 545.333007812 743.65492203 547.577148438 c 2,221,-1
 706.074707566 553.913085938 l 1,222,-1
 706.074707566 224.693359375 l 1,223,-1
 743.177874457 230.346679688 l 2,196,197
EndSplineSet
Validated: 1025
EndChar

StartChar: percent
Encoding: 37 37 8
Width: 2465
GlyphClass: 2
Flags: W
LayerCount: 2
Fore
SplineSet
250.0078125 1374.01367188 m 0,0,1
 303.232421875 1428.375 303.232421875 1428.375 380.112304688 1455.63964844 c 0,2,3
 456.446546038 1483 456.446546038 1483 556.644763971 1483 c 0,4,5
 567.849847066 1483 567.849847066 1483 578.735533841 1482.66210938 c 128,-1,6
 589.621220615 1482.32421875 589.621220615 1482.32421875 600.174890545 1481.64941406 c 128,-1,7
 610.728560475 1480.97460938 610.728560475 1480.97460938 620.961863275 1479.96289062 c 128,-1,8
 631.195166074 1478.95117188 631.195166074 1478.95117188 641.097422839 1477.60449219 c 128,-1,9
 651.000650413 1476.25683594 651.000650413 1476.25683594 660.582540046 1474.57324219 c 128,-1,10
 670.16442968 1472.890625 670.16442968 1472.890625 679.417214898 1470.87304688 c 128,-1,11
 688.670000116 1468.85546875 688.670000116 1468.85546875 697.601447394 1466.50292969 c 128,-1,12
 706.532894671 1464.15039062 706.532894671 1464.15039062 715.136208343 1461.46484375 c 128,-1,13
 723.738551204 1458.78027344 723.738551204 1458.78027344 732.020526936 1455.75976562 c 0,14,15
 806.402008188 1428.640625 806.402008188 1428.640625 855.470602884 1374.62792969 c 0,16,17
 888.382986103 1338.3984375 888.382986103 1338.3984375 910.410653356 1289.00390625 c 128,-1,18
 932.51307294 1239.44140625 932.51307294 1239.44140625 943.676411228 1176.21386719 c 128,-1,19
 954.8688738 1112.8125 954.8688738 1112.8125 954.8688738 1036 c 0,20,21
 954.8688738 996.685546875 954.8688738 996.685546875 952.035080909 960.86328125 c 128,-1,22
 949.201288017 925.041015625 949.201288017 925.041015625 943.548264376 892.803710938 c 128,-1,23
 937.894269925 860.567382812 937.894269925 860.567382812 929.445314962 831.831054688 c 128,-1,24
 920.996359999 803.094726562 920.996359999 803.094726562 909.746619667 777.881835938 c 128,-1,25
 898.497850145 752.669921875 898.497850145 752.669921875 884.49295249 730.971679688 c 128,-1,26
 870.488054834 709.2734375 870.488054834 709.2734375 853.703729619 691.04296875 c 0,27,28
 753.310378979 582 753.310378979 582 556.644763971 582 c 0,29,30
 352.109375 582 352.109375 582 247.970703125 692.502929688 c 0,31,32
 143 803.892578125 143 803.892578125 143 1032 c 0,33,34
 143 1148.8515625 143 1148.8515625 169.944335938 1234.44433594 c 0,35,36
 183.372070312 1277.09960938 183.372070312 1277.09960938 203.388671875 1311.97070312 c 128,-1,37
 223.405273438 1346.84179688 223.405273438 1346.84179688 250.0078125 1374.01367188 c 0,0,1
1682.32166324 1454 m 1,38,-1
 968.201000481 35 l 1,39,-1
 786.52080071 35 l 1,40,-1
 1500.64243428 1454 l 1,41,-1
 1682.32166324 1454 l 1,38,-1
1792.01051471 892.853515625 m 128,-1,43
 1847.64566478 905 1847.64566478 905 1914.11893195 905 c 0,44,45
 1947.9652339 905 1947.9652339 905 1978.91464033 901.946289062 c 128,-1,46
 2009.86307596 898.891601562 2009.86307596 898.891601562 2037.85733832 892.803710938 c 128,-1,47
 2065.85062987 886.715820312 2065.85062987 886.715820312 2091.07519531 877.588867188 c 0,48,49
 2167.55859375 850.397460938 2167.55859375 850.397460938 2218.5703125 796.452148438 c 0,50,51
 2227.07128906 787.461914062 2227.07128906 787.461914062 2234.87304688 777.666015625 c 128,-1,52
 2242.67675781 767.866210938 2242.67675781 767.866210938 2249.79003906 757.248046875 c 0,53,54
 2253.34863281 751.935546875 2253.34863281 751.935546875 2256.73339844 746.416992188 c 128,-1,55
 2260.11816406 740.897460938 2260.11816406 740.897460938 2263.33007812 735.171875 c 0,56,57
 2269.7578125 723.712890625 2269.7578125 723.712890625 2275.48632812 711.43359375 c 0,58,59
 2286.9765625 686.799804688 2286.9765625 686.799804688 2295.66210938 658.646484375 c 128,-1,60
 2304.34765625 630.494140625 2304.34765625 630.494140625 2310.21386719 598.823242188 c 0,61,62
 2322 535.178710938 2322 535.178710938 2322 458 c 0,63,64
 2322 223.063476562 2322 223.063476562 2216.72949219 113.217773438 c 0,65,66
 2112.06347656 4 2112.06347656 4 1914.11893195 4 c 0,67,68
 1845.01380026 4 1845.01380026 4 1788.01660449 16.693359375 c 0,69,70
 1776.66589997 19.27734375 1776.66589997 19.27734375 1765.82778286 22.3154296875 c 128,-1,71
 1754.98966575 25.3525390625 1754.98966575 25.3525390625 1744.68646466 28.8349609375 c 128,-1,72
 1734.38326358 32.3173828125 1734.38326358 32.3173828125 1724.59653315 36.2490234375 c 128,-1,73
 1714.80980271 40.1806640625 1714.80980271 40.1806640625 1705.5579883 44.5537109375 c 128,-1,74
 1696.30520309 48.92578125 1696.30520309 48.92578125 1687.57277175 53.7431640625 c 0,75,76
 1676.63951531 59.8212890625 1676.63951531 59.8212890625 1666.38970875 66.64453125 c 128,-1,77
 1656.13990219 73.46875 1656.13990219 73.46875 1646.57160389 81.041015625 c 128,-1,78
 1637.00330559 88.61328125 1637.00330559 88.61328125 1628.11457393 96.93359375 c 128,-1,79
 1619.22681308 105.252929688 1619.22681308 105.252929688 1611.01085239 114.327148438 c 0,80,81
 1594.51679921 132.546875 1594.51679921 132.546875 1580.71771317 153.908203125 c 128,-1,82
 1566.88367798 175.325195312 1566.88367798 175.325195312 1555.68247813 200.084960938 c 0,83,84
 1550.07119929 212.48828125 1550.07119929 212.48828125 1545.13366224 225.727539062 c 128,-1,85
 1540.19418357 238.973632812 1540.19418357 238.973632812 1535.93427155 253.045898438 c 0,86,87
 1510.1311262 338.309570312 1510.1311262 338.309570312 1510.1311262 454 c 0,88,89
 1510.1311262 531.831054688 1510.1311262 531.831054688 1521.64298509 595.880859375 c 128,-1,90
 1533.15484399 659.931640625 1533.15484399 659.931640625 1555.98148745 709.90234375 c 128,-1,91
 1578.80910172 759.873046875 1578.80910172 759.873046875 1612.9660627 796.186523438 c 128,-1,92
 1647.02594273 832.397460938 1647.02594273 832.397460938 1691.70065369 856.552734375 c 128,-1,42
 1736.37536465 880.708007812 1736.37536465 880.708007812 1792.01051471 892.853515625 c 128,-1,43
676.723218573 768.780273438 m 2,93,94
 679.188103859 771.197265625 679.188103859 771.197265625 681.544258484 773.737304688 c 0,95,-1
 690.512596522 784.356445312 l 2,96,97
 692.637698488 787.123046875 692.637698488 787.123046875 694.652128173 790.006835938 c 128,-1,98
 696.666557858 792.889648438 696.666557858 792.889648438 698.57225688 795.890625 c 0,99,100
 705.815466461 807.302734375 705.815466461 807.302734375 711.706338426 821.630859375 c 128,-1,101
 717.598181201 835.958007812 717.598181201 835.958007812 722.190110073 853.239257812 c 0,102,103
 731.210871824 887.1875 731.210871824 887.1875 735.445542805 931.849609375 c 0,104,105
 739.647206263 976.155273438 739.647206263 976.155273438 739.647206263 1033 c 0,106,107
 739.647206263 1117.8984375 739.647206263 1117.8984375 729.620685884 1176.23632812 c 0,108,109
 724.569564125 1205.63085938 724.569564125 1205.63085938 716.840949801 1228.56738281 c 128,-1,110
 709.112335478 1251.50488281 709.112335478 1251.50488281 698.57225688 1268.109375 c 0,111,112
 687.199223744 1286.02539062 687.199223744 1286.02539062 672.22739984 1299.56445312 c 0,113,114
 664.734692221 1306.34082031 664.734692221 1306.34082031 656.366314446 1311.99023438 c 128,-1,115
 647.99890748 1317.63964844 647.99890748 1317.63964844 638.778158975 1322.14941406 c 0,116,117
 602.278634703 1340 602.278634703 1340 553.764372224 1340 c 0,118,119
 544.18248259 1340 544.18248259 1340 535.056873415 1339.30371094 c 128,-1,120
 525.91281886 1338.60644531 525.91281886 1338.60644531 517.223103144 1337.20703125 c 0,121,122
 499.730087003 1334.38867188 499.730087003 1334.38867188 484.114616409 1328.68652344 c 0,123,124
 478.880011657 1326.77441406 478.880011657 1326.77441406 473.875488753 1324.54394531 c 128,-1,125
 468.871936658 1322.31347656 468.871936658 1322.31347656 464.094583174 1319.75976562 c 128,-1,126
 459.31722969 1317.20703125 459.31722969 1317.20703125 454.77772453 1314.33691406 c 128,-1,127
 450.222686419 1311.45800781 450.222686419 1311.45800781 445.902584203 1308.24414062 c 128,-1,128
 441.582481987 1305.03125 441.582481987 1305.03125 437.500228095 1301.48828125 c 0,129,130
 435.460557364 1299.71777344 435.460557364 1299.71777344 433.48204763 1297.86621094 c 128,-1,131
 431.502567087 1296.01367188 431.502567087 1296.01367188 429.583276731 1294.08007812 c 0,132,133
 423.832201332 1288.28417969 423.832201332 1288.28417969 418.67331972 1281.7890625 c 128,-1,134
 413.515408917 1275.29394531 413.515408917 1275.29394531 408.954545948 1268.109375 c 0,135,136
 403.502479871 1259.51855469 403.502479871 1259.51855469 398.821236526 1249.33105469 c 128,-1,137
 394.139022372 1239.14453125 394.139022372 1239.14453125 390.206273141 1227.34863281 c 0,138,139
 382.423828125 1204.12402344 382.423828125 1204.12402344 377.435546875 1174.38671875 c 0,140,141
 375.77734375 1164.54394531 375.77734375 1164.54394531 374.408203125 1154.05175781 c 128,-1,142
 373.0390625 1143.56054688 373.0390625 1143.56054688 371.95703125 1132.43457031 c 0,143,-1
 370.077148438 1109.53222656 l 2,144,145
 369.4765625 1100.70898438 369.4765625 1100.70898438 369.02734375 1091.45117188 c 128,-1,146
 368.577148438 1082.19335938 368.577148438 1082.19335938 368.27734375 1072.5 c 0,147,148
 367.678710938 1053.12011719 367.678710938 1053.12011719 367.678710938 1032 c 0,149,150
 367.678710938 1017.95703125 367.678710938 1017.95703125 367.944335938 1004.69140625 c 0,151,152
 368.077148438 998.060546875 368.077148438 998.060546875 368.276367188 991.623046875 c 128,-1,153
 368.475585938 985.184570312 368.475585938 985.184570312 368.7421875 978.94921875 c 0,154,155
 369.267578125 966.45703125 369.267578125 966.45703125 370.0703125 954.6015625 c 128,-1,156
 370.872070312 942.74609375 370.872070312 942.74609375 371.952148438 931.525390625 c 0,157,158
 374.118164062 909.006835938 374.118164062 909.006835938 377.450195312 889.500976562 c 0,159,160
 379.119140625 879.71875 379.119140625 879.71875 381.080078125 870.6015625 c 0,161,162
 381.571289062 868.321289062 381.571289062 868.321289062 382.081054688 866.08203125 c 128,-1,163
 382.590820312 863.84375 382.590820312 863.84375 383.119140625 861.645507812 c 128,-1,164
 383.6484375 859.448242188 383.6484375 859.448242188 384.196289062 857.291015625 c 128,-1,165
 384.745117188 855.134765625 384.745117188 855.134765625 385.311523438 853.01953125 c 128,-1,166
 385.881835938 850.89453125 385.881835938 850.89453125 386.471679688 848.813476562 c 128,-1,167
 387.0625 846.732421875 387.0625 846.732421875 387.673828125 844.694335938 c 128,-1,168
 388.28515625 842.655273438 388.28515625 842.655273438 388.916067333 840.66015625 c 128,-1,169
 389.54515188 838.6640625 389.54515188 838.6640625 390.193652618 836.711914062 c 0,170,171
 392.795422042 828.888671875 392.795422042 828.888671875 395.73114993 821.768554688 c 0,172,173
 397.208721969 818.186523438 397.208721969 818.186523438 398.771725242 814.779296875 c 128,-1,174
 400.334728516 811.373046875 400.334728516 811.373046875 401.984133834 808.141601562 c 128,-1,175
 403.63742239 804.903320312 403.63742239 804.903320312 405.380025418 801.840820312 c 128,-1,176
 407.122628447 798.778320312 407.122628447 798.778320312 408.955516758 795.890625 c 0,177,178
 454.587445871 724 454.587445871 724 553.764372224 724 c 0,179,180
 577.20456728 724 577.20456728 724 598.00998539 728.26953125 c 0,181,182
 608.587925557 730.44140625 608.587925557 730.44140625 618.472707751 733.71875 c 128,-1,183
 628.376906134 737.002929688 628.376906134 737.002929688 637.569501164 741.397460938 c 128,-1,184
 646.918396521 745.8671875 646.918396521 745.8671875 655.453753528 751.540039062 c 128,-1,185
 663.989110535 757.212890625 663.989110535 757.212890625 671.688600574 764.073242188 c 2,186,-1
 676.723218573 768.780273438 l 2,93,94
1888.53616036 147.059570312 m 0,187,188
 1894.06297877 146.529296875 1894.06297877 146.529296875 1899.73833103 146.263671875 c 128,-1,189
 1905.41271247 146 1905.41271247 146 1911.23562778 146 c 0,190,191
 2010.41255413 146 2010.41255413 146 2056.04254162 217.88671875 c 0,192,193
 2097.32128906 282.598632812 2097.32128906 282.598632812 2097.32128906 455 c 0,194,195
 2097.32128906 539.612304688 2097.32128906 539.612304688 2087.42578125 597.463867188 c 0,196,197
 2084.09179688 617.07421875 2084.09179688 617.07421875 2079.52246094 633.829101562 c 128,-1,198
 2074.95973528 650.583007812 2074.95973528 650.583007812 2069.09022112 664.6953125 c 128,-1,199
 2063.21973616 678.806640625 2063.21973616 678.806640625 2056.04448324 690.109375 c 0,200,201
 2010.41255413 762 2010.41255413 762 1911.23562778 762 c 0,202,203
 1909.17168681 762 1909.17168681 762 1907.12716203 761.966796875 c 128,-1,204
 1905.08263725 761.93359375 1905.08263725 761.93359375 1903.05752866 761.868164062 c 128,-1,205
 1901.03144926 761.801757812 1901.03144926 761.801757812 1899.02672767 761.703125 c 128,-1,206
 1897.02103527 761.603515625 1897.02103527 761.603515625 1895.03378825 761.471679688 c 128,-1,207
 1893.04654123 761.338867188 1893.04654123 761.338867188 1891.0787104 761.173828125 c 0,208,209
 1886.12369878 760.756835938 1886.12369878 760.756835938 1881.28615511 760.125976562 c 128,-1,210
 1876.44958225 759.495117188 1876.44958225 759.495117188 1871.72950652 758.650390625 c 0,211,212
 1868.55884274 758.08203125 1868.55884274 758.08203125 1865.45225238 757.418945312 c 128,-1,213
 1862.34663283 756.756835938 1862.34663283 756.756835938 1859.29829105 755.997070312 c 128,-1,214
 1856.24994926 755.23828125 1856.24994926 755.23828125 1853.26471009 754.3828125 c 0,215,216
 1851.76092619 753.952148438 1851.76092619 753.952148438 1850.27267525 753.49609375 c 128,-1,217
 1848.7834535 753.041015625 1848.7834535 753.041015625 1847.30588146 752.55859375 c 2,218,-1
 1844.36627033 751.569335938 l 2,219,220
 1842.90423124 751.061523438 1842.90423124 751.061523438 1841.45578349 750.52734375 c 128,-1,221
 1840.00733574 749.994140625 1840.00733574 749.994140625 1838.57345012 749.435546875 c 128,-1,222
 1837.14053532 748.875976562 1837.14053532 748.875976562 1835.72315347 748.291992188 c 128,-1,223
 1834.29897595 747.705078125 1834.29897595 747.705078125 1832.89324382 747.094726562 c 128,-1,224
 1831.48751168 746.484375 1831.48751168 746.484375 1830.09828331 745.84765625 c 128,-1,225
 1828.71002574 745.211914062 1828.71002574 745.211914062 1827.33730113 744.551757812 c 0,226,227
 1823.2210689 742.568359375 1823.2210689 742.568359375 1819.26404943 740.36328125 c 0,228,229
 1817.27194837 739.252929688 1817.27194837 739.252929688 1815.31965049 738.083984375 c 128,-1,230
 1813.36832342 736.916015625 1813.36832342 736.916015625 1811.4529163 735.686523438 c 128,-1,231
 1809.53848 734.45703125 1809.53848 734.45703125 1807.66287607 733.168945312 c 128,-1,232
 1805.78824295 731.879882812 1805.78824295 731.879882812 1803.95050059 730.532226562 c 2,233,-1
 1801.04001375 728.338867188 l 1,234,-1
 1799.61195299 727.21875 l 1,235,-1
 1798.19262952 726.078125 l 2,236,237
 1797.84022568 725.791015625 1797.84022568 725.791015625 1797.48879265 725.5 c 128,-1,238
 1797.1363888 725.209960938 1797.1363888 725.209960938 1796.78592658 724.91796875 c 0,239,240
 1796.08597294 724.33203125 1796.08597294 724.33203125 1795.39766901 723.7421875 c 0,241,242
 1794.0152363 722.557617188 1794.0152363 722.557617188 1792.66289869 721.338867188 c 128,-1,243
 1791.30667784 720.118164062 1791.30667784 720.118164062 1789.9824937 718.861328125 c 0,244,245
 1783.35671895 712.580078125 1783.35671895 712.580078125 1777.43186865 705.3515625 c 128,-1,246
 1771.53517183 698.155273438 1771.53517183 698.155273438 1766.42871393 690.109375 c 0,247,248
 1755.08577589 672.239257812 1755.08577589 672.239257812 1747.05329819 647.88671875 c 0,249,250
 1746.39994341 645.905273438 1746.39994341 645.905273438 1745.76697562 643.877929688 c 128,-1,251
 1745.13497865 641.8515625 1745.13497865 641.8515625 1744.52433948 639.784179688 c 128,-1,252
 1743.91467112 637.717773438 1743.91467112 637.717773438 1743.32538976 635.606445312 c 128,-1,253
 1742.73707922 633.498046875 1742.73707922 633.498046875 1742.17012648 631.345703125 c 0,254,255
 1741.41483669 628.479492188 1741.41483669 628.479492188 1740.6993501 625.54296875 c 0,256,257
 1740.3411214 624.07421875 1740.3411214 624.07421875 1739.9926008 622.591796875 c 128,-1,258
 1739.64408019 621.108398438 1739.64408019 621.108398438 1739.30526768 619.60546875 c 0,259,260
 1738.62861347 616.603515625 1738.62861347 616.603515625 1737.99176244 613.532226562 c 0,261,262
 1736.07926776 604.33203125 1736.07926776 604.33203125 1734.4871402 594.421875 c 0,263,264
 1734.01338517 591.475585938 1734.01338517 591.475585938 1733.56584199 588.475585938 c 128,-1,265
 1733.11829882 585.475585938 1733.11829882 585.475585938 1732.69502588 582.419921875 c 128,-1,266
 1732.27272376 579.3671875 1732.27272376 579.3671875 1731.87566268 576.263671875 c 0,267,-1
 1731.10775237 570.008789062 l 2,268,269
 1730.73593234 566.856445312 1730.73593234 566.856445312 1730.39032416 563.649414062 c 128,-1,270
 1730.04374518 560.442382812 1730.04374518 560.442382812 1729.72337805 557.181640625 c 0,271,272
 1729.08070217 550.6640625 1729.08070217 550.6640625 1728.53801966 543.938476562 c 0,273,274
 1728.40307714 542.258789062 1728.40307714 542.258789062 1728.27395948 540.567382812 c 0,275,276
 1728.20988606 539.721679688 1728.20988606 539.721679688 1728.14581263 538.868164062 c 128,-1,277
 1728.08271001 538.014648438 1728.08271001 538.014648438 1728.02154902 537.1640625 c 0,278,279
 1727.89825621 535.456054688 1727.89825621 535.456054688 1727.78175907 533.736328125 c 128,-1,280
 1727.66429112 532.013671875 1727.66429112 532.013671875 1727.55458965 530.279296875 c 0,281,282
 1726.45077927 512.986328125 1726.45077927 512.986328125 1725.90227191 493.913085938 c 128,-1,283
 1725.35279374 474.850585938 1725.35279374 474.850585938 1725.35279374 454 c 0,284,285
 1725.35279374 439.956054688 1725.35279374 439.956054688 1725.61199987 426.694335938 c 0,286,287
 1725.66442358 424.041992188 1725.66442358 424.041992188 1725.72655539 421.420898438 c 128,-1,288
 1725.7886872 418.80078125 1725.7886872 418.80078125 1725.86149791 416.209960938 c 128,-1,289
 1725.93430862 413.620117188 1725.93430862 413.620117188 1726.01682743 411.061523438 c 128,-1,290
 1726.10031704 408.502929688 1726.10031704 408.502929688 1726.19351475 405.974609375 c 128,-1,291
 1726.28671246 403.446289062 1726.28671246 403.446289062 1726.39058908 400.950195312 c 0,292,293
 1727.43323847 375.947265625 1727.43323847 375.947265625 1729.56416529 353.528320312 c 0,294,295
 1730.63205573 342.286132812 1730.63205573 342.286132812 1731.9902182 331.782226562 c 128,-1,296
 1733.34838067 321.27734375 1733.34838067 321.27734375 1734.99681518 311.504882812 c 0,297,298
 1735.82297405 306.611328125 1735.82297405 306.611328125 1736.72388525 301.885742188 c 128,-1,299
 1737.62382565 297.159179688 1737.62382565 297.159179688 1738.59948918 292.6015625 c 0,300,301
 1740.55178706 283.473632812 1740.55178706 283.473632812 1742.80503588 275.01953125 c 0,302,303
 1743.93991217 270.762695312 1743.93991217 270.762695312 1745.15633646 266.684570312 c 128,-1,304
 1746.37178993 262.607421875 1746.37178993 262.607421875 1747.67073303 258.700195312 c 128,-1,305
 1748.97064693 254.793945312 1748.97064693 254.793945312 1750.35405045 251.059570312 c 128,-1,306
 1751.73842478 247.326171875 1751.73842478 247.326171875 1753.20531791 243.76953125 c 0,307,308
 1759.14084711 229.372070312 1759.14084711 229.372070312 1766.42774312 217.889648438 c 0,309,310
 1777.91727339 199.791015625 1777.91727339 199.791015625 1793.30945781 186.076171875 c 0,311,312
 1801.00603542 179.215820312 1801.00603542 179.215820312 1809.55401295 173.537109375 c 128,-1,313
 1818.094224 167.862304688 1818.094224 167.862304688 1827.43049884 163.3984375 c 0,314,315
 1845.78365218 154.624023438 1845.78365218 154.624023438 1866.99098542 150.26953125 c 0,316,317
 1877.44466197 148.124023438 1877.44466197 148.124023438 1888.53616036 147.059570312 c 0,187,188
EndSplineSet
Validated: 1025
EndChar

StartChar: ampersand
Encoding: 38 38 9
Width: 1766
GlyphClass: 2
Flags: W
LayerCount: 2
Fore
SplineSet
1731.65320065 35 m 1,0,-1
 1339.50239867 35 l 1,1,-1
 1188.55352774 171.831350627 l 1,2,-1
 1165.30354637 153.463865351 l 2,3,4
 1117.7226106 115.874926094 1117.7226106 115.874926094 1065.36674652 87.8568179363 c 128,-1,5
 1013.020765 59.8439984136 1013.020765 59.8439984136 955.72261127 41.299367744 c 0,6,7
 898.103533388 22.6508695086 898.103533388 22.6508695086 837.180853051 13.3254347543 c 128,-1,8
 776.258172713 4 776.258172713 4 712 4 c 0,9,10
 448.391054472 4 448.391054472 4 300.521938003 123.703570475 c 0,11,12
 156 240.697520287 156 240.697520287 156 429 c 0,13,14
 156 468.209660223 156 468.209660223 161.64440883 501.983403395 c 128,-1,15
 167.28881766 535.757146567 167.28881766 535.757146567 178.532174891 564.090406789 c 0,16,17
 180.077011014 567.98339382 180.077011014 567.98339382 181.684138439 571.815680768 c 128,-1,18
 183.291291529 575.648047327 183.291291529 575.648047327 184.959029579 579.416086294 c 128,-1,19
 186.626794643 583.184205869 186.626794643 583.184205869 188.356755148 586.892063929 c 1,20,-1
 199.302976014 608.614870476 l 2,21,22
 202.180008346 613.91317227 202.180008346 613.91317227 205.203419157 619.089282787 c 128,-1,23
 208.226829967 624.265393303 208.226829967 624.265393303 211.396826291 629.319860721 c 0,24,25
 217.734325006 639.424819054 217.734325006 639.424819054 224.662201935 649.058560017 c 0,26,27
 228.155850125 653.916744136 228.155850125 653.916744136 231.744880083 658.587173724 c 0,28,29
 233.55405199 660.941523227 233.55405199 660.941523227 235.399022208 663.264365707 c 1,30,-1
 239.226055163 668.004388188 l 2,31,32
 275.123070029 713.105765839 275.123070029 713.105765839 321.804487392 745.142032657 c 0,33,34
 346.572315834 762.13956198 346.572315834 762.13956198 370.061431265 776.672161795 c 0,35,36
 381.798935279 783.934097612 381.798935279 783.934097612 393.212172011 790.578196663 c 128,-1,37
 404.625408743 797.222295713 404.625408743 797.222295713 415.712966215 803.248142165 c 2,38,-1
 464.026523126 829.505510051 l 1,39,-1
 419.784830389 862.160092786 l 2,40,41
 379.110194262 892.181848022 379.110194262 892.181848022 342.337820081 925.083445973 c 0,42,43
 333.546850692 932.949050164 333.546850692 932.949050164 325.370964841 941.123293183 c 128,-1,44
 317.194323592 949.297872076 317.194323592 949.297872076 309.627442634 957.782628609 c 0,45,46
 304.560779833 963.463616865 304.560779833 963.463616865 299.787518726 969.252344262 c 128,-1,47
 295.014786029 975.040269295 295.014786029 975.040269295 290.475646971 981.010263122 c 128,-1,48
 285.932217936 986.98589072 285.932217936 986.98589072 281.561852074 993.229270523 c 0,49,50
 279.574450516 996.026354196 279.574450516 996.026354196 277.66038254 998.879551913 c 128,-1,51
 275.746314565 1001.73274963 275.746314565 1001.73274963 273.90519915 1004.64267279 c 128,-1,52
 272.064083736 1007.55259595 272.064083736 1007.55259595 270.296137798 1010.51894514 c 0,53,54
 264.990992259 1019.42018687 264.990992259 1019.42018687 260.339476114 1028.83993906 c 0,55,56
 258.788447789 1031.98091547 258.788447789 1031.98091547 257.310330025 1035.17971773 c 128,-1,57
 255.832212262 1038.37851998 255.832212262 1038.37851998 254.426326541 1041.63677975 c 128,-1,58
 253.02044082 1044.89503951 253.02044082 1044.89503951 251.687448036 1048.21139537 c 0,59,60
 247.688042877 1058.16152479 247.688042877 1058.16152479 244.343072393 1068.64140608 c 0,61,62
 243.248979295 1072.06956445 243.248979295 1072.06956445 242.243733222 1075.57982963 c 128,-1,63
 241.238524226 1079.09007673 241.238524226 1079.09007673 240.321687334 1082.68501585 c 128,-1,64
 239.404935995 1086.27974843 239.404935995 1086.27974843 238.57700699 1089.95957022 c 128,-1,65
 237.749116011 1093.63936646 237.749116011 1093.63936646 237.010825229 1097.40193928 c 0,66,67
 236.021394875 1102.44460712 236.021394875 1102.44460712 235.193416847 1107.65288512 c 128,-1,68
 234.365438818 1112.86116312 234.365438818 1112.86116312 233.69804423 1118.24371112 c 128,-1,69
 233.030649642 1123.62625911 233.030649642 1123.62625911 232.525450249 1129.17407484 c 0,70,71
 231 1145.9257119 231 1145.9257119 231 1164 c 0,72,73
 231 1195.00595095 231 1195.00595095 237.612030537 1224.02067316 c 128,-1,74
 244.220839214 1253.02125729 244.220839214 1253.02125729 257.456895598 1280.15517288 c 128,-1,75
 270.736317132 1307.37798703 270.736317132 1307.37798703 290.809846832 1331.98676062 c 128,-1,76
 310.975252832 1356.70816828 310.975252832 1356.70816828 338.234468869 1378.96986137 c 0,77,78
 347.535519596 1386.62072568 347.535519596 1386.62072568 357.978499321 1393.82622304 c 128,-1,79
 368.438502355 1401.04346623 368.438502355 1401.04346623 380.044361014 1407.81000031 c 128,-1,80
 391.680395182 1414.59412753 391.680395182 1414.59412753 404.534147527 1420.94347777 c 128,-1,81
 417.405530573 1427.30153702 417.405530573 1427.30153702 431.493734182 1433.21866501 c 0,82,83
 459.752883182 1445.087673 459.752883182 1445.087673 492.601297019 1454.98934798 c 0,84,85
 592.160444183 1485 592.160444183 1485 731 1485 c 0,86,87
 789.447670279 1485 789.447670279 1485 841.377280024 1479.24187708 c 128,-1,88
 893.174242258 1473.49846255 893.174242258 1473.49846255 938.427232387 1462.0661282 c 0,89,90
 983.022224088 1450.80002503 983.022224088 1450.80002503 1020.29330818 1435.01196703 c 128,-1,91
 1057.46968044 1419.26402903 1057.46968044 1419.26402903 1087.20032185 1399.13867176 c 0,92,93
 1100.82679355 1389.75651092 1100.82679355 1389.75651092 1112.8014132 1379.46023594 c 0,94,95
 1118.77830601 1374.32105544 1118.77830601 1374.32105544 1124.33865363 1368.95952744 c 128,-1,96
 1129.89937235 1363.59786545 1129.89937235 1363.59786545 1135.04645685 1358.01308251 c 0,97,98
 1145.33231249 1346.85296546 1145.33231249 1346.85296546 1154.00746499 1334.78905394 c 128,-1,99
 1162.6759686 1322.73438855 1162.6759686 1322.73438855 1169.78352479 1309.72209337 c 0,100,101
 1198 1258.06423876 1198 1258.06423876 1198 1198 c 0,102,103
 1198 1193.87017542 1198 1193.87017542 1197.87736579 1189.64473598 c 128,-1,104
 1197.75473158 1185.41929653 1197.75473158 1185.41929653 1197.50912061 1181.09862665 c 128,-1,105
 1197.26320794 1176.77264942 1197.26320794 1176.77264942 1196.89245084 1172.3418412 c 128,-1,106
 1196.52169373 1167.91103298 1196.52169373 1167.91103298 1196.02581163 1163.37600765 c 0,107,108
 1195.03349173 1154.30087486 1195.03349173 1154.30087486 1193.53958312 1144.83977617 c 128,-1,109
 1192.04547214 1135.38068607 1192.04547214 1135.38068607 1190.03662913 1125.4924903 c 128,-1,110
 1188.02768352 1115.6061851 1188.02768352 1115.6061851 1185.50896983 1105.34325286 c 0,111,112
 1183.82148684 1098.46832213 1183.82148684 1098.46832213 1181.72770044 1091.69155245 c 128,-1,113
 1179.63385679 1084.91462717 1179.63385679 1084.91462717 1177.13299463 1078.23485877 c 128,-1,114
 1174.6319882 1071.5548134 1174.6319882 1071.5548134 1171.72452165 1064.97376763 c 128,-1,115
 1168.81700151 1058.3927527 1168.81700151 1058.3927527 1165.50082498 1051.90851908 c 128,-1,116
 1162.18445611 1045.42410058 1162.18445611 1045.42410058 1158.46093818 1039.04038991 c 128,-1,117
 1154.73736283 1032.65678047 1154.73736283 1032.65678047 1150.60308013 1026.37048202 c 0,118,119
 1148.552896 1023.25322386 1148.552896 1023.25322386 1146.3668577 1020.11139745 c 128,-1,120
 1144.1808194 1016.96957104 1144.1808194 1016.96957104 1141.95559319 1013.94079092 c 0,121,122
 1139.03465715 1010.04620953 1139.03465715 1010.04620953 1135.94653802 1006.18271335 c 128,-1,123
 1132.85841889 1002.31921716 1132.85841889 1002.31921716 1129.60281265 998.486876245 c 0,124,125
 1127.43094778 995.93026282 1127.43094778 995.93026282 1125.18493488 993.388367867 c 128,-1,126
 1122.93892198 990.846472914 1122.93892198 990.846472914 1120.61587719 988.316230062 c 128,-1,127
 1118.2928324 985.785987209 1118.2928324 985.785987209 1115.89549586 983.270572343 c 0,128,129
 1108.68493609 975.704863934 1108.68493609 975.704863934 1100.76151895 968.246403085 c 128,-1,130
 1092.83808122 960.788315925 1092.83808122 960.788315925 1084.20065931 953.440090556 c 128,-1,131
 1075.5301432 946.064044237 1075.5301432 946.064044237 1066.19715998 938.861527223 c 128,-1,132
 1056.86417676 931.659010209 1056.86417676 931.659010209 1046.86881368 924.631020544 c 0,133,134
 1042.04466311 921.239039676 1042.04466311 921.239039676 1036.88960853 917.889488164 c 128,-1,135
 1031.73479589 914.540254731 1031.73479589 914.540254731 1026.238105 911.2280967 c 128,-1,136
 1020.74166906 907.916232732 1020.74166906 907.916232732 1014.91553295 904.650377762 c 0,137,138
 997.300823151 894.776742709 997.300823151 894.776742709 976.703388576 885.350620728 c 128,-1,139
 955.978786256 875.866302245 955.978786256 875.866302245 932.170672423 866.865630821 c 0,140,141
 920.230925554 862.351802501 920.230925554 862.351802501 907.555791233 857.979376737 c 128,-1,142
 894.881092139 853.607321016 894.881092139 853.607321016 881.47479525 849.379935065 c 2,143,-1
 822.258008455 830.707975265 l 1,144,-1
 1233 469.630865051 l 1,145,-1
 1233 834 l 1,146,-1
 1536 834 l 1,147,-1
 1536 758 l 2,148,149
 1536 739.330085781 1536 739.330085781 1534.94794258 720.952880696 c 128,-1,150
 1533.89607729 702.574957349 1533.89607729 702.574957349 1531.79480522 684.495465479 c 0,151,152
 1531.09444093 678.46891053 1531.09444093 678.46891053 1530.27741543 672.473137184 c 128,-1,153
 1529.46038993 666.477363838 1529.46038993 666.477363838 1528.52682811 660.513084289 c 128,-1,154
 1527.59326628 654.548804741 1527.59326628 654.548804741 1526.54304023 648.615019552 c 0,155,156
 1517.09372539 595.226318904 1517.09372539 595.226318904 1498.17879337 544.156002454 c 0,157,158
 1495.02928223 535.652322359 1495.02928223 535.652322359 1491.69009173 527.407447239 c 128,-1,159
 1488.35085892 519.162245966 1488.35085892 519.162245966 1484.82704103 511.185652784 c 128,-1,160
 1481.30317361 503.208719288 1481.30317361 503.208719288 1477.59107911 495.489478684 c 0,161,162
 1475.36667505 490.863743244 1475.36667505 490.863743244 1473.07527016 486.33097954 c 128,-1,163
 1470.78385807 481.798179195 1470.78385807 481.798179195 1468.42643154 477.36002588 c 128,-1,164
 1466.06899829 472.921837316 1466.06899829 472.921837316 1463.64468616 468.57641037 c 128,-1,165
 1461.22036513 464.230946393 1461.22036513 464.230946393 1458.73020314 459.979853649 c 128,-1,166
 1456.24003013 455.728720926 1456.24003013 455.728720926 1453.68308602 451.570118292 c 0,167,168
 1452.0878451 448.975613291 1452.0878451 448.975613291 1450.46680959 446.416323999 c 128,-1,169
 1448.84577408 443.857034706 1448.84577408 443.857034706 1447.19921601 441.333383872 c 128,-1,170
 1445.55265794 438.809733038 1445.55265794 438.809733038 1443.88040248 436.321390686 c 128,-1,171
 1442.20814702 433.833048335 1442.20814702 433.833048335 1440.51026848 431.380152676 c 128,-1,172
 1438.81238994 428.927257017 1438.81238994 428.927257017 1437.08892438 426.509781584 c 128,-1,173
 1435.36545883 424.092306151 1435.36545883 424.092306151 1433.61626968 421.710085646 c 128,-1,174
 1431.86708053 419.32786514 1431.86708053 419.32786514 1430.09241474 416.981176604 c 128,-1,175
 1428.31774894 414.634488068 1428.31774894 414.634488068 1426.51727222 412.322881663 c 0,176,177
 1419.32486504 403.088652569 1419.32486504 403.088652569 1411.71551006 394.402941632 c 128,-1,178
 1404.10583707 385.71653131 1404.10583707 385.71653131 1396.07636651 377.572596397 c 2,179,-1
 1369.98246166 351.105921479 l 1,180,-1
 1731.65320065 35 l 1,0,-1
895 1154 m 0,181,182
 895 1169.03111257 895 1169.03111257 893.770939771 1182.69903461 c 128,-1,183
 892.541879542 1196.36695666 892.541879542 1196.36695666 890.073295872 1208.68586966 c 0,184,185
 885.102928093 1233.48937501 885.102928093 1233.48937501 874.994152887 1252.75922774 c 0,186,187
 870.067379598 1262.15088932 870.067379598 1262.15088932 864.497987757 1270.5329316 c 128,-1,188
 858.91276066 1278.93880624 858.91276066 1278.93880624 852.678588479 1286.32213694 c 0,189,190
 840.101830224 1301.2171964 840.101830224 1301.2171964 824.702812869 1311.9295563 c 0,191,192
 809.339372119 1322.17185013 809.339372119 1322.17185013 793.289327009 1328.57573555 c 0,193,194
 787.928908765 1330.71451484 787.928908765 1330.71451484 782.478329083 1332.4297919 c 128,-1,195
 777.027749401 1334.14506897 777.027749401 1334.14506897 771.48683835 1335.43642951 c 128,-1,196
 765.945927298 1336.72779006 765.945927298 1336.72779006 760.322001449 1337.59300942 c 0,197,198
 753.177321863 1338.69219089 753.177321863 1338.69219089 746.6751234 1339.51569082 c 128,-1,199
 740.172924936 1340.33919074 740.172924936 1340.33919074 734.257168817 1340.89265483 c 128,-1,200
 728.341412698 1341.44611892 728.341412698 1341.44611892 723.027040101 1341.72305946 c 128,-1,201
 717.712667504 1342 717.712667504 1342 713 1342 c 0,202,203
 702.828626605 1342 702.828626605 1342 691.583854802 1340.84560732 c 128,-1,204
 680.390573599 1339.69650069 680.390573599 1339.69650069 668.098222934 1337.40955173 c 0,205,206
 666.057074575 1337.0298032 666.057074575 1337.0298032 664.010465644 1336.57446224 c 128,-1,207
 661.965365709 1336.11953728 661.965365709 1336.11953728 659.923533953 1335.59207796 c 128,-1,208
 657.883176954 1335.06504914 657.883176954 1335.06504914 655.838213195 1334.4645018 c 0,209,-1
 643.944544887 1330.38492808 l 2,210,211
 641.742115838 1329.51650364 641.742115838 1329.51650364 639.733547417 1328.66102012 c 128,-1,212
 637.724659505 1327.80540052 637.724659505 1327.80540052 635.751268587 1326.90031452 c 128,-1,213
 633.780272218 1325.99631338 633.780272218 1325.99631338 631.714760606 1324.98595787 c 128,-1,214
 629.720495051 1324.01056234 629.720495051 1324.01056234 627.726638643 1322.97794037 c 128,-1,215
 625.732782235 1321.9453184 625.732782235 1321.9453184 623.744186022 1320.85821071 c 128,-1,216
 621.755589808 1319.77110301 621.755589808 1319.77110301 619.767331113 1318.62704707 c 0,217,218
 616.767875701 1316.90114248 616.767875701 1316.90114248 613.814241729 1315.08293893 c 128,-1,219
 610.882868418 1313.27845076 610.882868418 1313.27845076 607.641209675 1311.15890466 c 0,220,221
 600.475579015 1306.38181756 600.475579015 1306.38181756 593.870620289 1300.60054221 c 128,-1,222
 587.279566371 1294.83143766 587.279566371 1294.83143766 581.259255362 1288.07936911 c 0,223,224
 569.546790437 1274.94327599 569.546790437 1274.94327599 559.74780818 1258.10127524 c 0,225,226
 554.527217278 1249.12838463 554.527217278 1249.12838463 550.622826921 1238.97944937 c 128,-1,227
 546.718436564 1228.83051411 546.718436564 1228.83051411 544.141174012 1217.55443983 c 128,-1,228
 541.56391146 1206.27836555 541.56391146 1206.27836555 540.28195573 1193.90464647 c 128,-1,229
 539 1181.5309274 539 1181.5309274 539 1168 c 0,230,231
 539 1165.37645773 539 1165.37645773 539.077110321 1162.75669027 c 128,-1,232
 539.154224458 1160.13700575 539.154224458 1160.13700575 539.308436982 1157.5220643 c 128,-1,233
 539.462651217 1154.90715643 539.462651217 1154.90715643 539.693967431 1152.29737708 c 128,-1,234
 539.92528105 1149.68762596 539.92528105 1149.68762596 540.233606376 1147.08412922 c 0,235,236
 540.644029911 1143.61848899 540.644029911 1143.61848899 541.187591887 1140.17503179 c 128,-1,237
 541.731147794 1136.73165076 541.731147794 1136.73165076 542.407701296 1133.31143419 c 128,-1,238
 543.084241461 1129.89128987 543.084241461 1129.89128987 543.89359572 1126.4951775 c 128,-1,239
 544.700614552 1123.10884695 544.700614552 1123.10884695 545.639053896 1119.73840072 c 128,-1,240
 546.57728664 1116.36854867 546.57728664 1116.36854867 547.644645306 1113.02054571 c 128,-1,241
 548.711785868 1109.67311227 548.711785868 1109.67311227 549.908512477 1106.34405825 c 128,-1,242
 551.102141933 1103.0234669 551.102141933 1103.0234669 552.420264079 1099.729812 c 128,-1,243
 553.73831184 1096.43629613 553.73831184 1096.43629613 555.1794955 1093.17240645 c 128,-1,244
 556.62060148 1089.90864763 556.62060148 1089.90864763 558.185291357 1086.67283362 c 128,-1,245
 559.740257768 1083.45707538 559.740257768 1083.45707538 561.419198491 1080.25974271 c 128,-1,246
 563.098139214 1077.06241005 563.098139214 1077.06241005 564.898963556 1073.88703809 c 128,-1,247
 566.699787898 1070.71166613 566.699787898 1070.71166613 568.624152769 1067.55491944 c 0,248,249
 571.494850291 1062.84579954 571.494850291 1062.84579954 574.62261011 1058.20329736 c 128,-1,250
 577.750166626 1053.56095445 577.750166626 1053.56095445 581.133543968 1048.98554916 c 0,251,252
 582.480197051 1047.16438953 582.480197051 1047.16438953 583.868504434 1045.35128299 c 128,-1,253
 585.256778519 1043.53820998 585.256778519 1043.53820998 586.685775133 1041.73428124 c 128,-1,254
 588.114741069 1039.93038231 588.114741069 1039.93038231 589.585242894 1038.13448629 c 128,-1,255
 591.055713678 1036.33861886 591.055713678 1036.33861886 592.566734563 1034.55184462 c 128,-1,256
 594.077722915 1032.76510052 594.077722915 1032.76510052 595.630136986 1030.98630137 c 0,257,258
 620.85859369 1002.07869473 620.85859369 1002.07869473 653.431184203 972.602813632 c 128,-1,259
 686.003774716 943.126932534 686.003774716 943.126932534 725.941954034 913.043628631 c 2,260,-1
 747.450276776 896.842554358 l 1,261,-1
 768.623754318 913.478858141 l 2,262,263
 776.322624969 919.527970796 776.322624969 919.527970796 783.561621189 925.758508465 c 128,-1,264
 790.800617408 931.989046135 790.800617408 931.989046135 797.584250352 938.405279517 c 128,-1,265
 804.367883295 944.8215129 804.367883295 944.8215129 810.694531154 951.42406894 c 128,-1,266
 817.021179012 958.026624981 817.021179012 958.026624981 822.886126669 964.811040089 c 0,267,268
 846.377540494 991.98528139 846.377540494 991.98528139 862.390340857 1022.04439786 c 0,269,270
 878.684026268 1052.63078977 878.684026268 1052.63078977 886.842013134 1085.64853255 c 128,-1,271
 895 1118.66627532 895 1118.66627532 895 1154 c 0,181,182
1065.98957586 292.990104506 m 1,272,-1
 582.569977897 722.06745258 l 1,273,-1
 559.251262658 698.748737342 l 2,274,275
 557.12314157 696.620616253 557.12314157 696.620616253 554.989061357 694.279524913 c 128,-1,276
 552.854981144 691.938433572 552.854981144 691.938433572 550.712050522 689.38277596 c 0,277,278
 549.288018398 687.684476213 549.288018398 687.684476213 547.856444838 685.888466697 c 128,-1,279
 546.424871277 684.092457181 546.424871277 684.092457181 544.99033493 682.204992797 c 128,-1,280
 543.555798583 680.317528413 543.555798583 680.317528413 542.112548814 678.331558075 c 0,281,282
 539.257845162 674.403369831 539.257845162 674.403369831 536.381649624 670.124629291 c 128,-1,283
 533.505454085 665.84588875 533.505454085 665.84588875 530.616380468 661.231287805 c 128,-1,284
 527.727306852 656.616686861 527.727306852 656.616686861 524.812685319 651.647896826 c 0,285,286
 520.470167248 644.244856575 520.470167248 644.244856575 515.953763555 635.896162093 c 128,-1,287
 511.441483508 627.55509028 511.441483508 627.55509028 506.755951517 618.27369438 c 0,288,289
 491.878161356 588.804225407 491.878161356 588.804225407 484.439080678 556.211160201 c 128,-1,290
 477 523.618094995 477 523.618094995 477 488 c 0,291,292
 477 475.63109198 477 475.63109198 477.806187536 463.757912058 c 128,-1,293
 478.614314276 451.856172362 478.614314276 451.856172362 480.23655516 440.452640317 c 128,-1,294
 481.870986699 428.96341414 481.870986699 428.96341414 484.361584077 417.929865265 c 128,-1,295
 486.852181455 406.89631639 486.852181455 406.89631639 490.199596735 396.322853489 c 0,296,297
 491.883453858 391.004062923 491.883453858 391.004062923 493.784670614 385.820869527 c 128,-1,298
 495.685943361 380.637693892 495.685943361 380.637693892 497.804632719 375.591585765 c 0,299,300
 498.652478192 373.57231554 498.652478192 373.57231554 499.535047667 371.575689765 c 128,-1,301
 500.417624615 369.57905471 500.417624615 369.57905471 501.335114504 367.604721676 c 128,-1,302
 502.252609861 365.630383132 502.252609861 365.630383132 503.204791856 363.678902399 c 128,-1,303
 504.156981884 361.727411136 504.156981884 361.727411136 505.144080441 359.79839818 c 128,-1,304
 506.131186244 357.869375661 506.131186244 357.869375661 507.152929928 355.963426353 c 0,305,306
 510.043928973 350.570601212 510.043928973 350.570601212 513.076140694 345.358218881 c 128,-1,307
 516.108583995 340.145632995 516.108583995 340.145632995 519.282786532 335.114582718 c 0,308,309
 521.403914384 331.752759021 521.403914384 331.752759021 523.591492624 328.469081363 c 128,-1,310
 525.779070863 325.185403706 525.779070863 325.185403706 528.034068256 321.978546723 c 128,-1,311
 530.289065649 318.771689741 530.289065649 318.771689741 532.610463881 315.64322751 c 0,312,313
 539.598464765 306.225758102 539.598464765 306.225758102 547.15510006 297.577247389 c 0,314,315
 548.66957385 295.843943836 548.66957385 295.843943836 550.209074375 294.139455129 c 128,-1,316
 551.748597024 292.434946912 551.748597024 292.434946912 553.313468545 290.758952471 c 128,-1,317
 554.878355729 289.082945171 554.878355729 289.082945171 556.468118532 287.436003211 c 128,-1,318
 558.057906798 285.789038858 558.057906798 285.789038858 559.672949548 284.170799076 c 128,-1,319
 561.288015518 282.552538884 561.288015518 282.552538884 562.927793852 280.963591583 c 0,320,321
 567.053283265 276.96599459 567.053283265 276.96599459 571.302253263 273.18710093 c 128,-1,322
 575.546079168 269.412850816 575.546079168 269.412850816 580.079720637 265.714353828 c 0,323,324
 591.319027981 256.722907953 591.319027981 256.722907953 603.205004768 248.845608256 c 0,325,326
 609.149407303 244.9060212 609.149407303 244.9060212 615.251654671 241.247430253 c 128,-1,327
 621.35382124 237.588905249 621.35382124 237.588905249 627.612526799 234.212267107 c 128,-1,328
 633.870938341 230.835793597 633.870938341 230.835793597 640.28517824 227.741403556 c 128,-1,329
 646.699295319 224.647066953 646.699295319 224.647066953 653.267782723 221.835389383 c 128,-1,330
 659.834420309 219.024487451 659.834420309 219.024487451 666.551662028 216.497796628 c 128,-1,331
 673.268903747 213.971105804 673.268903747 213.971105804 680.13593764 211.728809023 c 0,332,333
 693.613159308 207.32808358 693.613159308 207.32808358 707.021266504 204.013643314 c 0,334,335
 713.732545831 202.354637004 713.732545831 202.354637004 720.427555888 200.968390443 c 128,-1,336
 727.122565944 199.582143883 727.122565944 199.582143883 733.800547722 198.469151681 c 0,337,338
 742.730182713 196.980885549 742.730182713 196.980885549 751.617280542 195.987697419 c 128,-1,339
 760.504357597 194.994610179 760.504357597 194.994610179 769.35204028 194.497296628 c 128,-1,340
 778.199678669 194.000063586 778.199678669 194.000063586 787 194 c 0,341,342
 799.010078124 194 799.010078124 194 810.586592047 194.400291677 c 128,-1,343
 822.163105971 194.800583354 822.163105971 194.800583354 833.307019482 195.601673386 c 0,344,345
 840.745806724 196.136417155 840.745806724 196.136417155 848.008147941 196.852862792 c 128,-1,346
 855.27059061 197.569357952 855.27059061 197.569357952 862.362793919 198.468692342 c 128,-1,347
 869.455095342 199.368080396 869.455095342 199.368080396 876.371248074 200.450105647 c 0,348,349
 897.161029878 203.702785684 897.161029878 203.702785684 916.216436393 208.602747359 c 0,350,351
 975.608161408 223.87490522 975.608161408 223.87490522 1032.26075376 267.197475846 c 2,352,-1
 1065.98957586 292.990104506 l 1,272,-1
EndSplineSet
Validated: 1
EndChar

StartChar: quotesingle
Encoding: 39 39 10
Width: 680
GlyphClass: 2
Flags: W
LayerCount: 2
Fore
SplineSet
474.253506116 1521 m 1,0,-1
 421.384236167 1002 l 1,1,-1
 258.615763833 1002 l 1,2,-1
 205.746493884 1521 l 1,3,-1
 474.253506116 1521 l 1,0,-1
EndSplineSet
Validated: 1
EndChar

StartChar: parenleft
Encoding: 40 40 11
Width: 953
GlyphClass: 2
Flags: W
LayerCount: 2
Fore
SplineSet
889.077944787 -377 m 1,0,-1
 586.234033041 -377 l 1,1,2
 405.48244844 -161.095176871 405.48244844 -161.095176871 318.122735198 63.6790042263 c 0,3,4
 228 295.562366142 228 295.562366142 228 572 c 128,-1,5
 228 848.437633858 228 848.437633858 318.122735198 1080.32099577 c 0,6,7
 405.48244844 1305.09517687 405.48244844 1305.09517687 586.234033041 1521 c 1,8,-1
 889.3604246 1521 l 1,9,10
 882.693935223 1514.54013871 882.693935223 1514.54013871 876.248021328 1508.12426219 c 0,11,12
 865.504575916 1497.43088026 865.504575916 1497.43088026 855.149663566 1486.6432645 c 128,-1,13
 844.795531071 1475.85643527 844.795531071 1475.85643527 834.410781183 1464.548266 c 0,14,15
 816.843378612 1445.41883969 816.843378612 1445.41883969 799.515336928 1425.10014949 c 128,-1,16
 782.1872388 1404.78153939 782.1872388 1404.78153939 765.097486421 1383.27388917 c 0,17,18
 689.398392204 1288.00632162 689.398392204 1288.00632162 624.747749363 1160.7574373 c 0,19,20
 612.400812678 1136.2693462 612.400812678 1136.2693462 600.985424992 1110.72881079 c 128,-1,21
 589.570037306 1085.18827539 589.570037306 1085.18827539 579.092798561 1058.61351514 c 128,-1,22
 568.615559816 1032.0387549 568.615559816 1032.0387549 559.068378123 1004.41266578 c 128,-1,23
 549.52119643 976.786576669 549.52119643 976.786576669 540.909561949 948.128921844 c 128,-1,24
 532.297927469 919.47126702 532.297927469 919.47126702 524.614858094 889.763398769 c 0,25,26
 514.953017144 852.40428043 514.953017144 852.40428043 507.710691522 813.857680229 c 128,-1,27
 500.468264753 775.311491948 500.468264753 775.311491948 495.644156503 735.582170617 c 0,28,29
 486 656.160386173 486 656.160386173 486 572 c 0,30,31
 486 397.030542139 486 397.030542139 523.634277473 253.160193785 c 0,32,33
 531.274379971 224.145640933 531.274379971 224.145640933 539.651370143 196.755972616 c 0,34,35
 548.175476567 168.885910253 548.175476567 168.885910253 557.753304515 141.606426011 c 128,-1,36
 567.33137101 114.326702881 567.33137101 114.326702881 577.961438397 87.6503473554 c 128,-1,37
 588.591521974 60.9743019013 588.591521974 60.9743019013 600.280673882 34.8861024113 c 128,-1,38
 611.966094469 8.80645266434 611.966094469 8.80645266434 624.778552123 -16.818462645 c 0,39,40
 655.482969126 -77.203816084 655.482969126 -77.203816084 690.285071026 -132.26874949 c 0,41,42
 698.987078345 -146.036910676 698.987078345 -146.036910676 707.937757504 -159.466310227 c 128,-1,43
 716.888436662 -172.895709777 716.888436662 -172.895709777 726.091576537 -185.991817355 c 128,-1,44
 735.294716411 -199.087924933 735.294716411 -199.087924933 744.750477888 -211.850523892 c 128,-1,45
 754.206239364 -224.61312285 754.206239364 -224.61312285 763.916165084 -237.044330385 c 0,46,47
 776.71360936 -253.379106256 776.71360936 -253.379106256 789.017892161 -268.283190851 c 0,48,49
 801.645895924 -283.579213404 801.645895924 -283.579213404 814.40398062 -298.201066823 c 128,-1,50
 827.160313049 -312.820653691 827.160313049 -312.820653691 840.06382734 -326.792806444 c 128,-1,51
 852.96800524 -340.765432736 852.96800524 -340.765432736 866.001822416 -354.067836107 c 0,52,53
 877.227347118 -365.52444664 877.227347118 -365.52444664 889.077944787 -377 c 1,0,-1
EndSplineSet
Validated: 1
EndChar

StartChar: parenright
Encoding: 41 41 12
Width: 953
GlyphClass: 2
Flags: W
LayerCount: 2
Fore
SplineSet
725 572 m 0,0,1
 725 295.5625 725 295.5625 634.876953125 63.6787109375 c 0,2,3
 547.517578125 -161.094726562 547.517578125 -161.094726562 366.765625 -377 c 1,4,-1
 64.00390625 -377 l 2,5,6
 67.8701171875 -373.279296875 67.8701171875 -373.279296875 71.5 -369.724609375 c 0,7,8
 79.4853515625 -361.904296875 79.4853515625 -361.904296875 87.6416015625 -353.615234375 c 0,9,10
 96.330078125 -344.786132812 96.330078125 -344.786132812 104.9296875 -335.702148438 c 128,-1,11
 113.530273438 -326.6171875 113.530273438 -326.6171875 122.037109375 -317.283203125 c 128,-1,12
 130.54296875 -307.94921875 130.54296875 -307.94921875 138.9609375 -298.360351562 c 0,13,14
 151.580078125 -283.986328125 151.580078125 -283.986328125 164.200195312 -268.827148438 c 128,-1,15
 176.819335938 -253.66796875 176.819335938 -253.66796875 189.44140625 -237.724609375 c 0,16,17
 267.723632812 -138.841796875 267.723632812 -138.841796875 328.3046875 -16.65234375 c 0,18,19
 359.903320312 46.5439453125 359.903320312 46.5439453125 385.395507812 114.458007812 c 0,20,21
 398.45703125 149.411132812 398.45703125 149.411132812 409.176757812 183.252929688 c 128,-1,22
 419.89453125 217.092773438 419.89453125 217.092773438 429.352539062 253.110351562 c 128,-1,23
 438.799804688 289.087890625 438.799804688 289.087890625 445.865234375 327.017578125 c 128,-1,24
 452.931640625 364.946289062 452.931640625 364.946289062 457.625976562 404.823242188 c 0,25,26
 460.75390625 431.390625 460.75390625 431.390625 462.836914062 458.829101562 c 128,-1,27
 464.920898438 486.267578125 464.920898438 486.267578125 465.959960938 514.5546875 c 128,-1,28
 467 542.840820312 467 542.840820312 467 572 c 0,29,30
 467 600.015625 467 600.015625 465.931640625 627.512695312 c 128,-1,31
 464.862304688 655.009765625 464.862304688 655.009765625 462.724609375 681.98828125 c 0,32,33
 458.444335938 735.982421875 458.444335938 735.982421875 449.864257812 787.926757812 c 0,34,35
 445.571289062 813.913085938 445.571289062 813.913085938 440.202148438 839.373046875 c 128,-1,36
 434.83203125 864.833007812 434.83203125 864.833007812 428.384765625 889.763671875 c 0,37,38
 423.5859375 908.318359375 423.5859375 908.318359375 418.42578125 926.463867188 c 128,-1,39
 413.265625 944.608398438 413.265625 944.608398438 407.739257812 962.354492188 c 128,-1,40
 402.211914062 980.1015625 402.211914062 980.1015625 396.321289062 997.44140625 c 128,-1,41
 390.430664062 1014.78222656 390.430664062 1014.78222656 384.172851562 1031.72265625 c 128,-1,42
 377.9140625 1048.66308594 377.9140625 1048.66308594 371.2890625 1065.20117188 c 128,-1,43
 364.6640625 1081.73925781 364.6640625 1081.73925781 357.669921875 1097.87597656 c 128,-1,44
 350.676757812 1114.01367188 350.676757812 1114.01367188 343.313476562 1129.75195312 c 128,-1,45
 335.950195312 1145.49023438 335.950195312 1145.49023438 328.204101562 1160.85351562 c 0,46,47
 306.689453125 1203.19921875 306.689453125 1203.19921875 283.939453125 1242.01855469 c 128,-1,48
 261.188476562 1280.83691406 261.188476562 1280.83691406 237.176757812 1316.15917969 c 128,-1,49
 213.1640625 1351.48144531 213.1640625 1351.48144531 187.90234375 1383.2734375 c 0,50,51
 151.719726562 1428.81054688 151.719726562 1428.81054688 112.873046875 1470.59570312 c 0,52,53
 108.02734375 1475.80859375 108.02734375 1475.80859375 103.037109375 1481.06542969 c 128,-1,54
 98.0458984375 1486.32324219 98.0458984375 1486.32324219 93.08984375 1491.44042969 c 128,-1,55
 88.1337890625 1496.55859375 88.1337890625 1496.55859375 83.1513671875 1501.60449219 c 128,-1,56
 78.1689453125 1506.64941406 78.1689453125 1506.64941406 73.2861328125 1511.49609375 c 128,-1,57
 68.4033203125 1516.34277344 68.4033203125 1516.34277344 63.61328125 1521 c 1,58,-1
 366.765625 1521 l 1,59,60
 457.7421875 1412.33007812 457.7421875 1412.33007812 524.3828125 1302.74316406 c 128,-1,61
 591.0234375 1193.15527344 591.0234375 1193.15527344 634.876953125 1080.32128906 c 0,62,63
 641.305664062 1063.78027344 641.305664062 1063.78027344 647.275390625 1047.01367188 c 128,-1,64
 653.24609375 1030.24804688 653.24609375 1030.24804688 658.758789062 1013.25195312 c 128,-1,65
 664.271484375 996.255859375 664.271484375 996.255859375 669.325195312 979.032226562 c 128,-1,66
 674.379882812 961.809570312 674.379882812 961.809570312 678.975585938 944.35546875 c 128,-1,67
 683.572265625 926.901367188 683.572265625 926.901367188 687.7109375 909.21875 c 128,-1,68
 691.848632812 891.53515625 691.848632812 891.53515625 695.528320312 873.62109375 c 128,-1,69
 699.208984375 855.706054688 699.208984375 855.706054688 702.430664062 837.561523438 c 0,70,71
 725 710.438476562 725 710.438476562 725 572 c 0,0,1
EndSplineSet
Validated: 1
EndChar

StartChar: asterisk
Encoding: 42 42 13
Width: 1456
GlyphClass: 2
Flags: W
LayerCount: 2
Fore
SplineSet
1202.15436696 824.609298963 m 1,0,-1
 1131.61041948 719.746674327 l 1,1,-1
 783.88753481 956.632889508 l 1,2,-1
 795.898694767 569 l 1,3,-1
 654.81860278 569 l 1,4,-1
 663.54805942 946.548999712 l 1,5,-1
 322.882898859 718.715612076 l 1,6,-1
 253.430968838 824.486441282 l 1,7,-1
 627.671784921 1044.814133 l 1,8,-1
 254.103873262 1267.47749278 l 1,9,-1
 322.931786034 1373.90583938 l 1,10,-1
 662.364308041 1142.91821258 l 1,11,-1
 654.715254538 1521 l 1,12,-1
 795.183783179 1521 l 1,13,-1
 786.460659267 1142.63450033 l 1,14,-1
 1130.31902051 1371.51183227 l 1,15,-1
 1201.18318633 1265.53479148 l 1,16,-1
 823.50646003 1046.10250358 l 1,17,-1
 1202.15436696 824.609298963 l 1,0,-1
EndSplineSet
Validated: 1
EndChar

StartChar: plus
Encoding: 43 43 14
Width: 1776
GlyphClass: 2
Flags: W
LayerCount: 2
Fore
SplineSet
1523 563 m 1,0,-1
 990 563 l 1,1,-1
 990 35 l 1,2,-1
 786 35 l 1,3,-1
 786 563 l 1,4,-1
 253 563 l 1,5,-1
 253 761 l 1,6,-1
 786 761 l 1,7,-1
 786 1289 l 1,8,-1
 990 1289 l 1,9,-1
 990 761 l 1,10,-1
 1523 761 l 1,11,-1
 1523 563 l 1,0,-1
EndSplineSet
Validated: 1
EndChar

StartChar: comma
Encoding: 44 44 15
Width: 740
GlyphClass: 2
Flags: W
LayerCount: 2
Fore
SplineSet
562.786053548 358 m 1,0,-1
 235.813576484 -335 l 1,1,-1
 80.1844758399 -335 l 1,2,-1
 259.111081344 358 l 1,3,-1
 562.786053548 358 l 1,0,-1
EndSplineSet
Validated: 1
EndChar

StartChar: hyphen
Encoding: 45 45 16
AltUni2: 0000ad.ffffffff.0
Width: 983
GlyphClass: 2
Flags: W
LayerCount: 2
Fore
SplineSet
803 588 m 1,0,-1
 180 588 l 1,1,-1
 180 736 l 1,2,-1
 803 736 l 1,3,-1
 803 588 l 1,0,-1
EndSplineSet
Validated: 1
EndChar

StartChar: period
Encoding: 46 46 17
Width: 1246
GlyphClass: 2
Flags: MW
HStem: 0 60 35 323<460 764>
VStem: 460 304<35 358>
LayerCount: 2
Fore
SplineSet
764 35 m 1,0,-1
 460 35 l 1,1,-1
 460 358 l 1,2,-1
 764 358 l 1,3,-1
 764 35 l 1,0,-1
EndSplineSet
Validated: 1
EndChar

StartChar: slash
Encoding: 47 47 18
Width: 1412
GlyphClass: 2
Flags: W
LayerCount: 2
Fore
SplineSet
1170.25045509 1521 m 1,0,-1
 406.777050834 -289 l 1,1,-1
 175.672022292 -289 l 1,2,-1
 936.257128675 1521 l 1,3,-1
 1170.25045509 1521 l 1,0,-1
EndSplineSet
Validated: 1
EndChar

StartChar: zero
Encoding: 48 48 19
Width: 1316
GlyphClass: 2
Flags: W
LayerCount: 2
Fore
SplineSet
1131.06738281 1194.29589844 m 0,0,1
 1139.40429688 1175.27050781 1139.40429688 1175.27050781 1146.72558594 1154.97949219 c 0,2,3
 1147.9453125 1151.59765625 1147.9453125 1151.59765625 1149.13671875 1148.1796875 c 128,-1,4
 1150.32714844 1144.76171875 1150.32714844 1144.76171875 1151.49023438 1141.30761719 c 128,-1,5
 1152.65332031 1137.85351562 1152.65332031 1137.85351562 1153.78808594 1134.36328125 c 128,-1,6
 1154.92285156 1130.87402344 1154.92285156 1130.87402344 1156.02832031 1127.34765625 c 128,-1,7
 1157.13476562 1123.82226562 1157.13476562 1123.82226562 1158.21289062 1120.25976562 c 128,-1,8
 1159.29003906 1116.69824219 1159.29003906 1116.69824219 1160.33984375 1113.10058594 c 0,9,10
 1166.63476562 1091.51074219 1166.63476562 1091.51074219 1171.88964844 1068.65722656 c 0,11,12
 1204 929.028320312 1204 929.028320312 1204 745 c 0,13,14
 1204 652.731445312 1204 652.731445312 1195.68457031 570.483398438 c 0,15,16
 1191.53320312 529.403320312 1191.53320312 529.403320312 1185.33007812 490.858398438 c 128,-1,17
 1179.12695312 452.314453125 1179.12695312 452.314453125 1170.88183594 416.311523438 c 0,18,19
 1168.17675781 404.49609375 1168.17675781 404.49609375 1165.22558594 393.046875 c 128,-1,20
 1162.27539062 381.598632812 1162.27539062 381.598632812 1159.08007812 370.522460938 c 128,-1,21
 1155.88574219 359.447265625 1155.88574219 359.447265625 1152.44628906 348.740234375 c 128,-1,22
 1149.0078125 338.034179688 1149.0078125 338.034179688 1145.32421875 327.697265625 c 128,-1,23
 1141.640625 317.360351562 1141.640625 317.360351562 1137.71484375 307.395507812 c 128,-1,24
 1133.7890625 297.4296875 1133.7890625 297.4296875 1129.61914062 287.83203125 c 0,25,26
 1117.13964844 259.109375 1117.13964844 259.109375 1102.50878906 233.686523438 c 0,27,28
 1095.20507812 220.994140625 1095.20507812 220.994140625 1087.36425781 209.120117188 c 128,-1,29
 1079.5234375 197.245117188 1079.5234375 197.245117188 1071.17285156 186.228515625 c 0,30,31
 1002.67578125 96.4423828125 1002.67578125 96.4423828125 901.947228513 50.517578125 c 0,32,33
 803.937811486 4 803.937811486 4 658 4 c 0,34,35
 610.162859297 4 610.162859297 4 567.173694521 9.2470703125 c 128,-1,36
 524.184529745 14.494140625 524.184529745 14.494140625 486.126910126 24.9521484375 c 128,-1,37
 448.070251073 35.41015625 448.070251073 35.41015625 414.806815692 51.0869140625 c 0,38,39
 381.509760506 66.55078125 381.509760506 66.55078125 352.1171875 86.9189453125 c 0,40,41
 341.690429688 93.7421875 341.690429688 93.7421875 331.819335938 101.061523438 c 128,-1,42
 321.94921875 108.379882812 321.94921875 108.379882812 312.572265625 116.235351562 c 128,-1,43
 303.196289062 124.090820312 303.196289062 124.090820312 294.26953125 132.515625 c 0,44,45
 280.887695312 145.147460938 280.887695312 145.147460938 268.565429688 159.026367188 c 128,-1,46
 256.243164062 172.905273438 256.243164062 172.905273438 244.931640625 188.090820312 c 0,47,48
 210.39453125 233.830078125 210.39453125 233.830078125 185.227539062 291.098632812 c 0,49,50
 172.583984375 319.873046875 172.583984375 319.873046875 162.314453125 351.62890625 c 0,51,52
 158.887695312 362.225585938 158.887695312 362.225585938 155.724609375 373.157226562 c 128,-1,53
 152.5625 384.08984375 152.5625 384.08984375 149.665039062 395.360351562 c 128,-1,54
 146.765625 406.6328125 146.765625 406.6328125 144.1328125 418.241210938 c 0,55,56
 128.120117188 488.844726562 128.120117188 488.844726562 120.072265625 570.168945312 c 0,57,58
 112.005859375 651.693359375 112.005859375 651.693359375 112 744 c 0,59,60
 112 933.896484375 112 933.896484375 145.049804688 1072.90429688 c 0,61,62
 161.254882812 1141.05566406 161.254882812 1141.05566406 186.811523438 1198.39550781 c 0,63,64
 199.549804688 1226.9765625 199.549804688 1226.9765625 214.590820312 1252.87011719 c 128,-1,65
 229.630859375 1278.76269531 229.630859375 1278.76269531 246.931640625 1301.90917969 c 0,66,67
 258.346679688 1317.02734375 258.346679688 1317.02734375 270.782226562 1330.86328125 c 128,-1,68
 283.216796875 1344.69921875 283.216796875 1344.69921875 296.674804688 1357.2578125 c 128,-1,69
 310.14453125 1369.82714844 310.14453125 1369.82714844 324.633789062 1381.125 c 128,-1,70
 339.124023438 1392.42382812 339.124023438 1392.42382812 354.732421875 1402.5234375 c 0,71,72
 384.076392501 1422.6796875 384.076392501 1422.6796875 417.379211082 1437.85546875 c 0,73,74
 442.218483816 1449.328125 442.218483816 1449.328125 469.635915335 1457.95996094 c 128,-1,75
 497.085045528 1466.60058594 497.085045528 1466.60058594 527.123861296 1472.38964844 c 0,76,77
 542.168243892 1475.28808594 542.168243892 1475.28808594 557.869653541 1477.46386719 c 128,-1,78
 573.570102624 1479.640625 573.570102624 1479.640625 589.926618194 1481.09277344 c 0,79,80
 622.645412729 1483.99902344 622.645412729 1483.99902344 658 1484 c 0,81,82
 695.063433947 1484 695.063433947 1484 729.054978255 1480.96289062 c 128,-1,83
 762.903398248 1477.9375 762.903398248 1477.9375 793.522395799 1471.93359375 c 0,84,85
 803.689985493 1469.93945312 803.689985493 1469.93945312 813.50600808 1467.62304688 c 128,-1,86
 823.320109535 1465.30957031 823.320109535 1465.30957031 832.770156526 1462.67675781 c 128,-1,87
 842.217321821 1460.04492188 842.217321821 1460.04492188 851.314841139 1457.09277344 c 128,-1,88
 860.387385746 1454.14941406 860.387385746 1454.14941406 869.109323811 1450.890625 c 0,89,90
 871.288847761 1450.07617188 871.288847761 1450.07617188 873.448199828 1449.24121094 c 128,-1,91
 875.607551896 1448.40722656 875.607551896 1448.40722656 877.744810948 1447.55273438 c 128,-1,92
 879.883030566 1446.69726562 879.883030566 1446.69726562 882.000117735 1445.82324219 c 128,-1,93
 884.117204904 1444.94824219 884.117204904 1444.94824219 886.213159624 1444.05371094 c 0,94,95
 894.595057373 1440.4765625 894.595057373 1440.4765625 902.695509323 1436.55371094 c 0,96,97
 1003.34472656 1389.77636719 1003.34472656 1389.77636719 1071.93164062 1297.09082031 c 0,98,99
 1074.77539062 1293.27441406 1074.77539062 1293.27441406 1077.5546875 1289.38085938 c 128,-1,100
 1080.33398438 1285.48730469 1080.33398438 1285.48730469 1083.04980469 1281.51757812 c 0,101,102
 1088.48242188 1273.57714844 1088.48242188 1273.57714844 1093.66015625 1265.33007812 c 0,103,104
 1104.01660156 1248.83789062 1104.01660156 1248.83789062 1113.37304688 1231.07714844 c 0,105,106
 1118.05078125 1222.19628906 1118.05078125 1222.19628906 1122.47460938 1213.00097656 c 128,-1,107
 1126.8984375 1203.80566406 1126.8984375 1203.80566406 1131.06738281 1194.29589844 c 0,0,1
597.759072267 217.827148438 m 0,108,109
 611.825598812 213.405273438 611.825598812 213.405273438 626.91128574 211.200195312 c 0,110,111
 630.676703936 210.649414062 630.676703936 210.649414062 634.504558913 210.237304688 c 128,-1,112
 638.332413889 209.82421875 638.332413889 209.82421875 642.218863384 209.549804688 c 128,-1,113
 646.104352313 209.274414062 646.104352313 209.274414062 650.049396325 209.137695312 c 128,-1,114
 653.994440338 209 653.994440338 209 658 209 c 0,115,116
 787.983773015 209 787.983773015 209 845.147047712 346.7578125 c 0,117,118
 858.115647472 378.008789062 858.115647472 378.008789062 867.758768203 418.46484375 c 128,-1,119
 877.4028495 458.920898438 877.4028495 458.920898438 883.787730812 508.693359375 c 0,120,121
 896.518110237 607.94921875 896.518110237 607.94921875 896.518110237 745 c 0,122,123
 896.518110237 1022.46484375 896.518110237 1022.46484375 846.031728875 1143.77636719 c 0,124,125
 789.75793817 1279 789.75793817 1279 658 1279 c 0,126,127
 650.742924881 1279 650.742924881 1279 643.702937647 1278.58007812 c 128,-1,128
 636.661989848 1278.16015625 636.661989848 1278.16015625 629.833327105 1277.31835938 c 128,-1,129
 623.004664362 1276.4765625 623.004664362 1276.4765625 616.396931769 1275.21484375 c 128,-1,130
 609.789199175 1273.95410156 609.789199175 1273.95410156 603.39567277 1272.26855469 c 128,-1,131
 597.00310693 1270.58398438 597.00310693 1270.58398438 590.835313503 1268.47851562 c 128,-1,132
 584.667520076 1266.37402344 584.667520076 1266.37402344 578.717775101 1263.84375 c 128,-1,133
 572.768030126 1261.31347656 572.768030126 1261.31347656 567.046899827 1258.36328125 c 128,-1,134
 561.326730094 1255.41210938 561.326730094 1255.41210938 555.82749051 1252.03515625 c 128,-1,135
 550.328250926 1248.65820312 550.328250926 1248.65820312 545.063389413 1244.86035156 c 0,136,137
 521.420981748 1227.80859375 521.420981748 1227.80859375 502.649603591 1202.50585938 c 128,-1,138
 483.878225433 1177.203125 483.878225433 1177.203125 469.968271125 1143.77636719 c 0,139,140
 457.085161727 1112.8203125 457.085161727 1112.8203125 447.568835691 1072.31347656 c 128,-1,141
 438.08612946 1031.94628906 438.08612946 1031.94628906 431.862623212 981.916992188 c 0,142,143
 419.481889763 882.3984375 419.481889763 882.3984375 419.481889763 743 c 0,144,145
 419.481889763 674.938476562 419.481889763 674.938476562 422.664244478 616.28125 c 128,-1,146
 425.845638627 557.624023438 425.845638627 557.624023438 432.241086164 508.07421875 c 128,-1,147
 438.636533701 458.525390625 438.636533701 458.525390625 448.287338959 418.203125 c 128,-1,148
 457.938144216 377.879882812 457.938144216 377.879882812 470.852952288 346.7578125 c 0,149,150
 477.818015383 329.971679688 477.818015383 329.971679688 485.978982983 315.16796875 c 128,-1,151
 494.139950582 300.364257812 494.139950582 300.364257812 503.504507212 287.547851562 c 0,152,153
 522.389232141 261.69921875 522.389232141 261.69921875 545.900042282 244.243164062 c 0,154,155
 557.70731791 235.4765625 557.70731791 235.4765625 570.685523328 228.8671875 c 0,156,157
 575.010951423 226.665039062 575.010951423 226.665039062 579.462213647 224.703125 c 128,-1,158
 583.914436437 222.741210938 583.914436437 222.741210938 588.487690526 221.0234375 c 128,-1,159
 593.061905181 219.3046875 593.061905181 219.3046875 597.759072267 217.827148438 c 0,108,109
EndSplineSet
Validated: 1025
EndChar

StartChar: one
Encoding: 49 49 20
Width: 1316
GlyphClass: 2
Flags: W
LayerCount: 2
Fore
SplineSet
601.638617132 1458 m 1,0,-1
 822.424586765 1458 l 1,1,-1
 822.424586765 225 l 1,2,-1
 1120 225 l 1,3,-1
 1120 35 l 1,4,-1
 266 35 l 1,5,-1
 266 225 l 1,6,-1
 569.49796109 225 l 1,7,-1
 569.49796109 1082 l 1,8,-1
 266 1082 l 1,9,-1
 266 1255.50195312 l 2,10,11
 269.556640625 1255.60546875 269.556640625 1255.60546875 272.96875 1255.72070312 c 128,-1,12
 276.380859375 1255.83691406 276.380859375 1255.83691406 279.69140625 1255.96679688 c 128,-1,13
 283.000976562 1256.09570312 283.000976562 1256.09570312 286.227539062 1256.24121094 c 128,-1,14
 289.453125 1256.38574219 289.453125 1256.38574219 292.608398438 1256.54589844 c 128,-1,15
 295.763671875 1256.70605469 295.763671875 1256.70605469 298.8984375 1256.88378906 c 128,-1,16
 302.032226562 1257.06152344 302.032226562 1257.06152344 305.126953125 1257.25585938 c 128,-1,17
 308.221679688 1257.45019531 308.221679688 1257.45019531 311.357421875 1257.66503906 c 0,18,19
 342.512695312 1259.79882812 342.512695312 1259.79882812 373.470703125 1263.78710938 c 0,20,21
 379.397460938 1264.54980469 379.397460938 1264.54980469 385.16796875 1265.41015625 c 128,-1,22
 390.939453125 1266.26953125 390.939453125 1266.26953125 396.553710938 1267.2265625 c 0,23,24
 398.80078125 1267.60839844 398.80078125 1267.60839844 401.0234375 1268.00683594 c 128,-1,25
 403.24609375 1268.40527344 403.24609375 1268.40527344 405.4453125 1268.81933594 c 128,-1,26
 407.64453125 1269.23339844 407.64453125 1269.23339844 409.819335938 1269.66308594 c 128,-1,27
 411.994140625 1270.09277344 411.994140625 1270.09277344 414.146484375 1270.53808594 c 128,-1,28
 416.297851562 1270.984375 416.297851562 1270.984375 418.426757812 1271.4453125 c 0,29,30
 423.747070312 1272.60058594 423.747070312 1272.60058594 428.913085938 1273.8515625 c 128,-1,31
 434.078125 1275.10351562 434.078125 1275.10351562 439.090820312 1276.453125 c 0,32,33
 469.30859375 1284.59375 469.30859375 1284.59375 494.323242188 1296.53222656 c 0,34,-1
 494.54296875 1296.64355469 l 2,35,36
 521.617696965 1311.38964844 521.617696965 1311.38964844 541.653813208 1330.91015625 c 128,-1,37
 561.688979106 1350.43066406 561.688979106 1350.43066406 575.012811091 1374.65722656 c 0,38,39
 581.387722999 1386.24902344 581.387722999 1386.24902344 586.623171672 1399.95214844 c 128,-1,40
 591.85957069 1413.65429688 591.85957069 1413.65429688 595.607729987 1428.23632812 c 128,-1,41
 599.355889284 1442.81738281 599.355889284 1442.81738281 601.638617132 1458 c 1,0,-1
EndSplineSet
Validated: 1
EndChar

StartChar: two
Encoding: 50 50 21
Width: 1316
GlyphClass: 2
Flags: W
LayerCount: 2
Fore
SplineSet
650.909894968 351.228515625 m 128,-1,1
 621.994746241 326.772460938 621.994746241 326.772460938 604.986004412 313.036132812 c 2,2,-1
 526.936194801 250 l 1,3,-1
 1214 250 l 1,4,-1
 1214 35 l 1,5,-1
 185 35 l 1,6,-1
 185 228.1640625 l 1,7,8
 201.475585938 240.17578125 201.475585938 240.17578125 216.665039062 251.403320312 c 128,-1,9
 231.85546875 262.630859375 231.85546875 262.630859375 247.40625 274.287109375 c 0,10,11
 279.021484375 297.984375 279.021484375 297.984375 310.754882812 322.461914062 c 0,12,13
 332.171875 338.981445312 332.171875 338.981445312 353.555664062 355.846679688 c 128,-1,14
 374.940429688 372.7109375 374.940429688 372.7109375 396.39453125 390.001953125 c 128,-1,15
 417.848632812 407.29296875 417.848632812 407.29296875 439.267496358 425.053710938 c 0,16,17
 499.709360958 480.15625 499.709360958 480.15625 548.085670296 527.629882812 c 128,-1,18
 596.59332497 575.233398438 596.59332497 575.233398438 633.138007967 615.326171875 c 0,19,20
 651.543612252 635.346679688 651.543612252 635.346679688 668.193790898 654.543945312 c 128,-1,21
 684.843010818 673.740234375 684.843010818 673.740234375 699.737763822 692.1171875 c 0,22,23
 729.553155409 728.904296875 729.553155409 728.904296875 752.438882042 762.561523438 c 0,24,25
 757.021587975 769.30078125 757.021587975 769.30078125 761.32242873 775.91015625 c 128,-1,26
 765.623269486 782.520507812 765.623269486 782.520507812 769.647997415 789.009765625 c 128,-1,27
 773.672725345 795.498046875 773.672725345 795.498046875 777.416546823 801.859375 c 128,-1,28
 781.160368301 808.219726562 781.160368301 808.219726562 784.626159503 814.459960938 c 128,-1,29
 788.09290943 820.700195312 788.09290943 820.700195312 791.278752905 826.813476562 c 0,30,31
 799.44229705 842.478515625 799.44229705 842.478515625 806.268419694 858.161132812 c 0,32,33
 809.682439741 866.005859375 809.682439741 866.005859375 812.763782182 873.861328125 c 128,-1,34
 815.845124622 881.716796875 815.845124622 881.716796875 818.592830731 889.581054688 c 0,35,36
 824.09207785 905.319335938 824.09207785 905.319335938 828.243357491 921.069335938 c 0,37,38
 834.502873607 944.814453125 834.502873607 944.814453125 837.641739553 968.545898438 c 0,39,40
 839.212131251 980.424804688 839.212131251 980.424804688 839.998285825 992.2890625 c 128,-1,41
 840.783481674 1004.15332031 840.783481674 1004.15332031 840.783481674 1016 c 0,42,43
 840.783481674 1023.08789062 840.783481674 1023.08789062 840.5246259 1030.0078125 c 128,-1,44
 840.265770125 1036.92773438 840.265770125 1036.92773438 839.747099851 1043.68359375 c 128,-1,45
 839.225553402 1050.45898438 839.225553402 1050.45898438 838.443233728 1057.07910156 c 0,46,47
 838.181501779 1059.28613281 838.181501779 1059.28613281 837.891008076 1061.47460938 c 128,-1,48
 837.600514374 1063.6640625 837.600514374 1063.6640625 837.280300194 1065.83789062 c 128,-1,49
 836.960086013 1068.01074219 836.960086013 1068.01074219 836.611110081 1070.16308594 c 0,50,51
 835.558429931 1076.66015625 835.558429931 1076.66015625 834.234430581 1082.97851562 c 128,-1,52
 832.911389957 1089.29785156 832.911389957 1089.29785156 831.316071406 1095.4375 c 128,-1,53
 829.716917955 1101.59570312 829.716917955 1101.59570312 827.851238929 1107.56835938 c 128,-1,54
 825.981725003 1113.54882812 825.981725003 1113.54882812 823.843768051 1119.34472656 c 0,55,56
 822.76999595 1122.25683594 822.76999595 1122.25683594 821.624319467 1125.12304688 c 128,-1,57
 820.479601709 1127.98828125 820.479601709 1127.98828125 819.263938295 1130.80371094 c 128,-1,58
 818.035811454 1133.65039062 818.035811454 1133.65039062 816.761665809 1136.39648438 c 128,-1,59
 815.487520163 1139.14160156 815.487520163 1139.14160156 814.100244958 1141.92871094 c 2,60,-1
 810.382309057 1149.05761719 l 1,61,-1
 806.424691884 1156.00683594 l 2,62,63
 805.37297046 1157.7734375 805.37297046 1157.7734375 804.317414135 1159.47265625 c 128,-1,64
 803.26185781 1161.17285156 803.26185781 1161.17285156 802.175622283 1162.85253906 c 0,65,66
 795.640952067 1172.9453125 795.640952067 1172.9453125 787.978821144 1182.1953125 c 128,-1,67
 780.321483847 1191.4375 780.321483847 1191.4375 771.5999617 1199.75097656 c 0,68,69
 737.232543383 1232.50976562 737.232543383 1232.50976562 689.094956594 1248.44921875 c 0,70,71
 673.382411087 1253.65332031 673.382411087 1253.65332031 656.266292048 1257.11425781 c 128,-1,72
 639.182769662 1260.56835938 639.182769662 1260.56835938 620.76470195 1262.28613281 c 0,73,74
 611.568610882 1263.14355469 611.568610882 1263.14355469 602.028337508 1263.57128906 c 128,-1,75
 592.487105408 1264 592.487105408 1264 582.601691001 1264 c 0,76,77
 579.84248019 1264 579.84248019 1264 577.076558305 1263.95996094 c 128,-1,78
 574.309677694 1263.91992188 574.309677694 1263.91992188 571.533209832 1263.84082031 c 0,79,80
 565.983150283 1263.68066406 565.983150283 1263.68066406 560.399535357 1263.36132812 c 128,-1,81
 554.816879155 1263.04199219 554.816879155 1263.04199219 549.202585026 1262.56347656 c 128,-1,82
 543.586373446 1262.08496094 543.586373446 1262.08496094 537.939482664 1261.44824219 c 0,83,84
 526.647618549 1260.17382812 526.647618549 1260.17382812 515.246459774 1258.26757812 c 0,85,86
 509.545880386 1257.31542969 509.545880386 1257.31542969 503.817497971 1256.20507812 c 128,-1,87
 498.089115556 1255.09472656 498.089115556 1255.09472656 492.334847563 1253.82617188 c 0,88,89
 480.833981378 1251.29394531 480.833981378 1251.29394531 469.221903083 1248.13867188 c 128,-1,90
 457.614618414 1244.984375 457.614618414 1244.984375 445.898039084 1241.20898438 c 0,91,92
 442.007532667 1239.95703125 442.007532667 1239.95703125 438.065255095 1238.63378906 c 128,-1,93
 434.123936248 1237.30957031 434.123936248 1237.30957031 430.130859375 1235.91796875 c 128,-1,94
 426.075195312 1234.52734375 426.075195312 1234.52734375 421.975585938 1233.06738281 c 128,-1,95
 417.876953125 1231.60644531 417.876953125 1231.60644531 413.743164062 1230.08203125 c 128,-1,96
 409.610351562 1228.55664062 409.610351562 1228.55664062 405.442382812 1226.96582031 c 128,-1,97
 401.275390625 1225.375 401.275390625 1225.375 397.080078125 1223.72265625 c 0,98,99
 371.594726562 1214.18164062 371.594726562 1214.18164062 346.694335938 1203.19140625 c 128,-1,100
 321.793945312 1192.20214844 321.793945312 1192.20214844 297.618164062 1179.82324219 c 0,101,102
 289.212890625 1175.52050781 289.212890625 1175.52050781 280.809570312 1170.99609375 c 0,103,104
 276.608398438 1168.734375 276.608398438 1168.734375 272.452148438 1166.44238281 c 128,-1,105
 268.294921875 1164.15039062 268.294921875 1164.15039062 264.18359375 1161.828125 c 0,106,107
 255.9609375 1157.18359375 255.9609375 1157.18359375 247.844726562 1152.38476562 c 128,-1,108
 239.727539062 1147.5859375 239.727539062 1147.5859375 231.842773438 1142.70898438 c 0,109,110
 227.900390625 1140.27050781 227.900390625 1140.27050781 224 1137.80273438 c 2,111,-1
 224 1401.47753906 l 1,112,113
 258.096679688 1414.45507812 258.096679688 1414.45507812 303.344726562 1427.20996094 c 128,-1,114
 348.592773438 1439.96386719 348.592773438 1439.96386719 406.326171875 1452.88671875 c 0,115,116
 527.645651368 1483 527.645651368 1483 647.495874921 1483 c 0,117,118
 687.238864819 1483 687.238864819 1483 723.802722317 1479.92675781 c 128,-1,119
 760.36562109 1476.85449219 760.36562109 1476.85449219 793.742676388 1470.71484375 c 0,120,121
 860.385574873 1458.45898438 860.385574873 1458.45898438 914.259213878 1434.09277344 c 128,-1,122
 968.026434399 1409.77734375 968.026434399 1409.77734375 1010.96484375 1373.30664062 c 0,123,124
 1033.47265625 1355.31640625 1033.47265625 1355.31640625 1052.09277344 1334.98242188 c 0,125,126
 1061.39746094 1324.82128906 1061.39746094 1324.82128906 1069.75488281 1314.05859375 c 128,-1,127
 1078.11328125 1303.29492188 1078.11328125 1303.29492188 1085.52636719 1291.92578125 c 0,128,129
 1090.46972656 1284.34667969 1090.46972656 1284.34667969 1095.00097656 1276.48632812 c 128,-1,130
 1099.53320312 1268.62695312 1099.53320312 1268.62695312 1103.65722656 1260.48339844 c 128,-1,131
 1107.78027344 1252.33984375 1107.78027344 1252.33984375 1111.49414062 1243.91308594 c 0,132,133
 1145 1167.88574219 1145 1167.88574219 1145 1068 c 0,134,135
 1145 1045.97558594 1145 1045.97558594 1143.16992188 1024.34179688 c 0,136,137
 1142.25488281 1013.52636719 1142.25488281 1013.52636719 1140.88378906 1002.80957031 c 128,-1,138
 1139.51171875 992.092773438 1139.51171875 992.092773438 1137.68164062 981.47265625 c 0,139,140
 1134.02441406 960.234375 1134.02441406 960.234375 1128.53515625 939.373046875 c 0,141,142
 1125.23925781 926.84375 1125.23925781 926.84375 1121.27832031 914.43359375 c 128,-1,143
 1117.31640625 902.0234375 1117.31640625 902.0234375 1112.68652344 889.7265625 c 128,-1,144
 1108.05761719 877.4296875 1108.05761719 877.4296875 1102.76074219 865.250976562 c 128,-1,145
 1097.46386719 853.071289062 1097.46386719 853.071289062 1091.49804688 841.004882812 c 128,-1,146
 1085.53222656 828.9375 1085.53222656 828.9375 1078.89746094 816.987304688 c 0,147,148
 1062.0625 786.659179688 1062.0625 786.659179688 1040.63671875 755.681640625 c 128,-1,149
 1019.2109375 724.704101562 1019.2109375 724.704101562 993.092773438 692.950195312 c 0,150,151
 968.033145474 660.955078125 968.033145474 660.955078125 940.269425581 628.55859375 c 128,-1,152
 912.506664413 596.163085938 912.506664413 596.163085938 881.072944874 563.2421875 c 0,153,154
 879.407639392 561.513671875 879.407639392 561.513671875 877.74425136 559.791992188 c 128,-1,155
 876.079904603 558.0703125 876.079904603 558.0703125 874.41268167 556.3515625 c 128,-1,156
 872.748334913 554.634765625 872.748334913 554.634765625 871.083029431 552.92578125 c 128,-1,157
 869.418682674 551.21484375 869.418682674 551.21484375 867.753377192 549.510742188 c 0,158,159
 867.198275365 548.943359375 867.198275365 548.943359375 866.642214813 548.374023438 c 128,-1,160
 866.085195535 547.8046875 866.085195535 547.8046875 865.532011158 547.239257812 c 0,161,162
 864.420848778 546.104492188 864.420848778 546.104492188 863.310645123 544.974609375 c 128,-1,163
 862.198524019 543.841796875 862.198524019 543.841796875 861.089279089 542.713867188 c 0,164,165
 857.756750675 539.328125 857.756750675 539.328125 854.42230481 535.96484375 c 0,166,167
 841.087397528 522.512695312 841.087397528 522.512695312 827.736191919 509.439453125 c 128,-1,168
 814.385945035 496.3671875 814.385945035 496.3671875 801.013647473 483.66796875 c 128,-1,169
 787.644226088 470.971679688 787.644226088 470.971679688 774.254671475 458.646484375 c 0,170,171
 773.137756745 457.619140625 773.137756745 457.619140625 772.023718189 456.595703125 c 128,-1,172
 770.908720909 455.573242188 770.908720909 455.573242188 769.790847454 454.549804688 c 0,173,174
 767.560852894 452.506835938 767.560852894 452.506835938 765.328940883 450.4765625 c 128,-1,175
 763.096070148 448.443359375 763.096070148 448.443359375 760.860323237 446.418945312 c 128,-1,176
 758.629369951 444.396484375 758.629369951 444.396484375 756.397457941 442.385742188 c 0,177,178
 755.282460661 441.381835938 755.282460661 441.381835938 754.16362848 440.376953125 c 128,-1,179
 753.0447963 439.372070312 753.0447963 439.372070312 751.93555137 438.377929688 c 2,180,-1
 747.462140098 434.379882812 l 2,181,182
 734.059163334 422.435546875 734.059163334 422.435546875 720.634135893 410.862304688 c 0,183,0
 679.903659152 375.752929688 679.903659152 375.752929688 650.909894968 351.228515625 c 128,-1,1
EndSplineSet
Validated: 1025
EndChar

StartChar: three
Encoding: 51 51 22
Width: 1316
GlyphClass: 2
Flags: W
LayerCount: 2
Fore
SplineSet
939.780273438 741.34375 m 128,-1,1
 942.19140625 740.657226562 942.19140625 740.657226562 944.749023438 739.904296875 c 0,2,3
 955.079101562 736.991210938 955.079101562 736.991210938 965.587890625 733.564453125 c 128,-1,4
 976.112304688 730.131835938 976.112304688 730.131835938 986.900390625 726.158203125 c 0,5,6
 999.6953125 721.444335938 999.6953125 721.444335938 1011.91992188 715.668945312 c 0,7,8
 1018.03222656 712.780273438 1018.03222656 712.780273438 1024.00390625 709.626953125 c 128,-1,9
 1029.97558594 706.47265625 1029.97558594 706.47265625 1035.80761719 703.051757812 c 0,10,11
 1047.47363281 696.208007812 1047.47363281 696.208007812 1058.58496094 688.294921875 c 0,12,13
 1064.13476562 684.34375 1064.13476562 684.34375 1069.56054688 680.112304688 c 128,-1,14
 1074.98632812 675.881835938 1074.98632812 675.881835938 1080.2421875 671.409179688 c 0,15,16
 1091.21191406 662.005859375 1091.21191406 662.005859375 1101.04785156 651.837890625 c 128,-1,17
 1110.88183594 641.672851562 1110.88183594 641.672851562 1119.58398438 630.741210938 c 128,-1,18
 1128.28808594 619.807617188 1128.28808594 619.807617188 1135.86914062 608.104492188 c 128,-1,19
 1143.45117188 596.397460938 1143.45117188 596.397460938 1149.91992188 583.905273438 c 0,20,21
 1152.96972656 578.016601562 1152.96972656 578.016601562 1155.66308594 571.530273438 c 128,-1,22
 1158.35644531 565.043945312 1158.35644531 565.043945312 1160.68945312 557.959960938 c 0,23,24
 1165.37402344 543.73828125 1165.37402344 543.73828125 1168.56054688 527.165039062 c 128,-1,25
 1171.76953125 510.478515625 1171.76953125 510.478515625 1173.38183594 491.458007812 c 0,26,27
 1174.19042969 481.928710938 1174.19042969 481.928710938 1174.59570312 471.813476562 c 128,-1,28
 1175 461.698242188 1175 461.698242188 1175 451 c 0,29,30
 1175 447.9375 1175 447.9375 1174.96289062 444.88671875 c 128,-1,31
 1174.92480469 441.836914062 1174.92480469 441.836914062 1174.85058594 438.8046875 c 0,32,33
 1174.69824219 432.736328125 1174.69824219 432.736328125 1174.39648438 426.725585938 c 128,-1,34
 1174.09765625 420.71875 1174.09765625 420.71875 1173.64648438 414.772460938 c 0,35,36
 1173.42089844 411.798828125 1173.42089844 411.798828125 1173.15722656 408.840820312 c 128,-1,37
 1172.89453125 405.8828125 1172.89453125 405.8828125 1172.59277344 402.9375 c 0,38,39
 1171.99316406 397.051757812 1171.99316406 397.051757812 1171.2421875 391.223632812 c 128,-1,40
 1170.4921875 385.39453125 1170.4921875 385.39453125 1169.59179688 379.62109375 c 0,41,42
 1167.79199219 368.076171875 1167.79199219 368.076171875 1165.39160156 356.74609375 c 0,43,44
 1164.59277344 352.971679688 1164.59277344 352.971679688 1163.7265625 349.221679688 c 2,45,-1
 1161.9296875 341.74609375 l 2,46,47
 1161.46386719 339.883789062 1161.46386719 339.883789062 1160.98144531 338.026367188 c 128,-1,48
 1160.49902344 336.169921875 1160.49902344 336.169921875 1160.00097656 334.319335938 c 0,49,50
 1159.00292969 330.618164062 1159.00292969 330.618164062 1157.93945312 326.940429688 c 2,51,-1
 1153.41699219 312.32421875 l 2,52,53
 1149.828125 301.431640625 1149.828125 301.431640625 1145.63964844 290.732421875 c 128,-1,54
 1141.44921875 280.032226562 1141.44921875 280.032226562 1136.65625 269.522460938 c 128,-1,55
 1131.93261719 259.166992188 1131.93261719 259.166992188 1126.57910156 249.184570312 c 128,-1,56
 1121.22558594 239.203125 1121.22558594 239.203125 1115.23925781 229.592773438 c 0,57,58
 1112.24609375 224.787109375 1112.24609375 224.787109375 1109.09375 220.071289062 c 128,-1,59
 1105.94140625 215.356445312 1105.94140625 215.356445312 1102.62890625 210.731445312 c 128,-1,60
 1099.31640625 206.106445312 1099.31640625 206.106445312 1095.84375 201.571289062 c 128,-1,61
 1092.37109375 197.036132812 1092.37109375 197.036132812 1088.73828125 192.590820312 c 0,62,63
 1082.91308594 185.463867188 1082.91308594 185.463867188 1076.66796875 178.5625 c 128,-1,64
 1070.42285156 171.661132812 1070.42285156 171.661132812 1063.75585938 164.985351562 c 128,-1,65
 1057.08984375 158.309570312 1057.08984375 158.309570312 1050.00585938 151.864257812 c 128,-1,66
 1042.92285156 145.41796875 1042.92285156 145.41796875 1035.41894531 139.200195312 c 128,-1,67
 1027.91601562 132.983398438 1027.91601562 132.983398438 1020 127 c 0,68,69
 1010.11914062 119.588867188 1010.11914062 119.588867188 999.881835938 112.614257812 c 128,-1,70
 989.64453125 105.639648438 989.64453125 105.639648438 979.049804688 99.1015625 c 0,71,72
 957.856445312 86.0224609375 957.856445312 86.0224609375 935.086914062 74.60546875 c 0,73,74
 892.530913775 51.8232421875 892.530913775 51.8232421875 844.666499001 35.9560546875 c 128,-1,75
 796.612218373 20.0205078125 796.612218373 20.0205078125 737.744214307 12.0185546875 c 0,76,77
 723.006596543 10.015625 723.006596543 10.015625 707.593900186 8.5126953125 c 128,-1,78
 692.182162748 7.009765625 692.182162748 7.009765625 676.088634286 6.0068359375 c 128,-1,79
 659.995105825 5.00390625 659.995105825 5.00390625 643.218827422 4.501953125 c 128,-1,80
 626.443507938 4 626.443507938 4 608.995027697 4 c 0,81,82
 447.938919357 4 447.938919357 4 328.041992188 32.177734375 c 0,83,84
 216.991210938 56.4833984375 216.991210938 56.4833984375 140 86.4365234375 c 1,85,-1
 140 351.74609375 l 1,86,87
 144.560546875 349.123046875 144.560546875 349.123046875 148.720703125 346.79296875 c 0,88,89
 156.2109375 342.6015625 156.2109375 342.6015625 163.251953125 338.870117188 c 128,-1,90
 170.279296875 335.145507812 170.279296875 335.145507812 178.653320312 330.908203125 c 0,91,92
 202.668945312 318.754882812 202.668945312 318.754882812 228.4296875 307.609375 c 128,-1,93
 254.181640625 296.465820312 254.181640625 296.465820312 281.615234375 286.30078125 c 0,94,95
 295.303710938 281.228515625 295.303710938 281.228515625 309.618164062 276.315429688 c 128,-1,96
 323.93359375 271.40234375 323.93359375 271.40234375 338.759765625 266.6875 c 0,97,98
 397.120076818 246.942382812 397.120076818 246.942382812 448.375227255 236.994140625 c 0,99,100
 465.527401693 233.665039062 465.527401693 233.665039062 482.160801246 231.444335938 c 128,-1,101
 498.795159717 229.224609375 498.795159717 229.224609375 514.933757346 228.112304688 c 128,-1,102
 531.073313893 227 531.073313893 227 546.694095555 227 c 0,103,104
 573.710664158 227 573.710664158 227 602.926032783 229.469726562 c 128,-1,105
 632.124140876 231.938476562 632.124140876 231.938476562 663.503788458 236.865234375 c 0,106,107
 731.741384767 247.576171875 731.741384767 247.576171875 779.83593997 284.368164062 c 0,108,109
 799.061296112 298.963867188 799.061296112 298.963867188 814.516184881 316.788085938 c 128,-1,110
 829.989293101 334.630859375 829.989293101 334.630859375 841.543301587 355.579101562 c 0,111,112
 844.732664375 361.360351562 844.732664375 361.360351562 847.475171161 367.587890625 c 128,-1,113
 850.216719029 373.815429688 850.216719029 373.815429688 852.528671429 380.52734375 c 128,-1,114
 854.83966491 387.240234375 854.83966491 387.240234375 856.722980759 394.432617188 c 128,-1,115
 858.607255527 401.624023438 858.607255527 401.624023438 860.083989951 409.36328125 c 2,116,-1
 863.205269528 429.895507812 l 2,117,118
 863.527466129 432.670898438 863.527466129 432.670898438 863.799798971 435.405273438 c 128,-1,119
 864.072131813 438.137695312 864.072131813 438.137695312 864.306107916 440.918945312 c 128,-1,120
 864.538166183 443.697265625 864.538166183 443.697265625 864.730908792 446.520507812 c 128,-1,121
 864.923651402 449.34375 864.923651402 449.34375 865.078037274 452.21484375 c 0,122,123
 865.688868331 463.666015625 865.688868331 463.666015625 865.688868331 476 c 0,124,125
 865.688868331 495.1171875 865.688868331 495.1171875 863.616645546 512.274414062 c 0,126,127
 862.577177938 520.877929688 862.577177938 520.877929688 861.01030518 529.015625 c 128,-1,128
 859.443432421 537.153320312 859.443432421 537.153320312 857.346277756 544.825195312 c 128,-1,129
 855.244328499 552.517578125 855.244328499 552.517578125 852.593877884 559.728515625 c 128,-1,130
 849.943427269 566.938476562 849.943427269 566.938476562 846.744475297 573.663085938 c 0,131,132
 844.608004975 578.154296875 844.608004975 578.154296875 842.229887202 582.416992188 c 128,-1,133
 839.851769429 586.6796875 839.851769429 586.6796875 837.227209613 590.721679688 c 128,-1,134
 834.602649797 594.762695312 834.602649797 594.762695312 831.737401447 598.573242188 c 128,-1,135
 829.006401682 602.203125 829.006401682 602.203125 826.117180372 605.671875 c 128,-1,136
 823.227000143 609.141601562 823.227000143 609.141601562 820.176680532 612.44921875 c 128,-1,137
 817.127319839 615.754882812 817.127319839 615.754882812 813.93891597 618.87890625 c 128,-1,138
 810.749553182 622.001953125 810.749553182 622.001953125 807.423065055 624.943359375 c 128,-1,139
 804.103289358 627.876953125 804.103289358 627.876953125 800.643511565 630.640625 c 2,140,-1
 793.588748478 635.985351562 l 2,141,142
 789.992804265 638.5703125 789.992804265 638.5703125 786.270282816 640.970703125 c 128,-1,143
 782.548720285 643.370117188 782.548720285 643.370117188 778.702498354 645.5859375 c 0,144,-1
 763.117196675 653.590820312 l 2,145,146
 754.796661225 657.361328125 754.796661225 657.361328125 746.409001483 660.24609375 c 0,147,148
 740.447405436 662.43359375 740.447405436 662.43359375 734.052378248 664.411132812 c 128,-1,149
 727.658309977 666.388671875 727.658309977 666.388671875 720.990949947 668.106445312 c 0,150,151
 707.641846109 671.544921875 707.641846109 671.544921875 693.282042218 673.938476562 c 128,-1,152
 678.99415721 676.318359375 678.99415721 676.318359375 663.65817433 677.706054688 c 128,-1,153
 648.344246574 679.091796875 648.344246574 679.091796875 631.979344189 679.491210938 c 0,154,155
 570.253763122 680.999023438 570.253763122 680.999023438 517.32338214 681 c 2,156,-1
 476.755377904 681 l 1,157,-1
 476.755377904 877 l 1,158,-1
 519.993011124 877 l 2,159,160
 528.819855519 877 528.819855519 877 537.400257871 877.079101562 c 128,-1,161
 545.980660223 877.158203125 545.980660223 877.158203125 554.314620532 877.318359375 c 0,162,163
 570.984458986 877.637695312 570.984458986 877.637695312 586.669488184 878.275390625 c 0,164,165
 594.522071428 878.594726562 594.522071428 878.594726562 602.130130464 878.99609375 c 128,-1,166
 609.740107338 879.395507812 609.740107338 879.395507812 617.107477842 879.877929688 c 0,167,168
 631.849890198 880.842773438 631.849890198 880.842773438 645.61900032 882.130859375 c 0,169,170
 655.260925403 883.034179688 655.260925403 883.034179688 664.451199894 884.330078125 c 128,-1,171
 673.645310058 885.627929688 673.645310058 885.627929688 682.3810572 887.319335938 c 0,172,173
 700.01652654 890.736328125 700.01652654 890.736328125 716.101424735 895.881835938 c 0,174,175
 717.727750438 896.401367188 717.727750438 896.401367188 719.333938853 896.938476562 c 128,-1,176
 720.941086187 897.475585938 720.941086187 897.475585938 722.53001407 898.030273438 c 128,-1,177
 724.118941953 898.584960938 724.118941953 898.584960938 725.688691467 899.157226562 c 128,-1,178
 727.259399899 899.728515625 727.259399899 899.728515625 728.810929962 900.318359375 c 128,-1,179
 730.363418944 900.907226562 730.363418944 900.907226562 731.896729557 901.514648438 c 0,180,181
 733.178803533 902.021484375 733.178803533 902.021484375 734.447452652 902.541015625 c 128,-1,182
 735.71610177 903.060546875 735.71610177 903.060546875 736.970367112 903.591796875 c 0,183,184
 739.482733469 904.654296875 739.482733469 904.654296875 741.958660924 905.7734375 c 128,-1,185
 744.433629462 906.892578125 744.433629462 906.892578125 746.891337466 908.077148438 c 0,186,187
 794.505474523 931.177734375 794.505474523 931.177734375 819.247488547 970.984375 c 0,188,189
 825.730736234 981.4140625 825.730736234 981.4140625 830.49943772 993.736328125 c 0,190,191
 832.8727609 999.868164062 832.8727609 999.868164062 834.823201042 1006.45410156 c 128,-1,192
 836.773641183 1013.0390625 836.773641183 1013.0390625 838.30407504 1020.078125 c 0,193,194
 839.062579539 1023.56542969 839.062579539 1023.56542969 839.725192193 1027.16503906 c 128,-1,195
 840.386845928 1030.765625 840.386845928 1030.765625 840.952607818 1034.47558594 c 128,-1,196
 841.518369707 1038.18554688 841.518369707 1038.18554688 841.988239751 1042.00390625 c 128,-1,197
 842.458109795 1045.82324219 842.458109795 1045.82324219 842.83400583 1049.75585938 c 0,198,199
 843.581962227 1057.61132812 843.581962227 1057.61132812 843.955940425 1065.92089844 c 128,-1,200
 844.328959704 1074.23144531 844.328959704 1074.23144531 844.328959704 1083 c 0,201,202
 844.328959704 1089.18359375 844.328959704 1089.18359375 844.003886348 1095.15136719 c 128,-1,203
 843.678812991 1101.12597656 843.678812991 1101.12597656 843.022912766 1106.89257812 c 128,-1,204
 842.367012542 1112.671875 842.367012542 1112.671875 841.379326531 1118.22265625 c 0,205,206
 839.889167249 1126.60742188 839.889167249 1126.60742188 837.608859159 1134.52246094 c 128,-1,207
 835.32759215 1142.43847656 835.32759215 1142.43847656 832.255217414 1149.87597656 c 0,208,209
 826.053891754 1164.88183594 826.053891754 1164.88183594 816.711149229 1177.43554688 c 0,210,211
 808.334996508 1188.6875 808.334996508 1188.6875 798.446629381 1198.41699219 c 128,-1,212
 788.573604949 1208.12890625 788.573604949 1208.12890625 777.377273047 1216.18164062 c 0,213,214
 774.596409522 1218.18164062 774.596409522 1218.18164062 771.728284417 1220.08496094 c 128,-1,215
 768.859200395 1221.98730469 768.859200395 1221.98730469 765.900936955 1223.79492188 c 0,216,217
 763.938030874 1224.9921875 763.938030874 1224.9921875 761.935809136 1226.14941406 c 0,218,219
 760.934698267 1226.7265625 760.934698267 1226.7265625 759.926874969 1227.29296875 c 128,-1,220
 758.919051671 1227.85839844 758.919051671 1227.85839844 757.910269454 1228.40820312 c 0,221,222
 755.887910429 1229.51171875 755.887910429 1229.51171875 753.869387077 1230.54882812 c 0,223,224
 733.824155655 1240.94335938 733.824155655 1240.94335938 710.615452244 1247.74511719 c 0,225,226
 708.698574248 1248.30761719 708.698574248 1248.30761719 706.760600047 1248.84472656 c 128,-1,227
 704.822625846 1249.3828125 704.822625846 1249.3828125 702.864514357 1249.89648438 c 128,-1,228
 700.906402868 1250.41015625 700.906402868 1250.41015625 698.927195173 1250.89941406 c 128,-1,229
 696.948946397 1251.38964844 696.948946397 1251.38964844 694.948642496 1251.85449219 c 0,230,231
 686.956057158 1253.71484375 686.956057158 1253.71484375 678.658535751 1255.18945312 c 0,232,233
 674.51409018 1255.92578125 674.51409018 1255.92578125 670.285259785 1256.56835938 c 128,-1,234
 666.057388309 1257.2109375 666.057388309 1257.2109375 661.742255253 1257.76074219 c 0,235,236
 612.680151327 1264 612.680151327 1264 576.95372638 1264 c 0,237,238
 554.687639811 1264 554.687639811 1264 531.57866392 1261.85449219 c 128,-1,239
 508.469688028 1259.70898438 508.469688028 1259.70898438 484.521658486 1255.421875 c 0,240,241
 481.544216678 1254.88867188 481.544216678 1254.88867188 478.551432174 1254.32324219 c 128,-1,242
 475.559606589 1253.75683594 475.559606589 1253.75683594 472.549561553 1253.15625 c 0,243,244
 466.534266073 1251.95605469 466.534266073 1251.95605469 460.455681975 1250.62207031 c 0,245,246
 448.305226208 1247.95605469 448.305226208 1247.95605469 435.964904587 1244.76953125 c 0,247,248
 431.853062244 1243.70800781 431.853062244 1243.70800781 427.722041532 1242.58886719 c 128,-1,249
 423.591020819 1241.46972656 423.591020819 1241.46972656 419.43986282 1240.29394531 c 128,-1,250
 415.28870482 1239.11816406 415.28870482 1239.11816406 411.117409533 1237.88476562 c 0,251,252
 404.890193074 1236.04296875 404.890193074 1236.04296875 398.570920443 1234.05957031 c 0,253,254
 395.446764111 1233.07910156 395.446764111 1233.07910156 392.268908345 1232.05273438 c 128,-1,255
 389.09009366 1231.02636719 389.09009366 1231.02636719 386.039774049 1230.01367188 c 0,256,257
 359.41796875 1222.00097656 359.41796875 1222.00097656 332.74609375 1212.16113281 c 128,-1,258
 306.073242188 1202.3203125 306.073242188 1202.3203125 279.549804688 1190.72070312 c 0,259,260
 230.556640625 1169.29589844 230.556640625 1169.29589844 183 1142.30175781 c 1,261,-1
 183 1401.89746094 l 1,262,263
 259.713867188 1429.62695312 259.713867188 1429.62695312 378.19921875 1455.33203125 c 0,264,265
 439.480299649 1470.1796875 439.480299649 1470.1796875 501.326704443 1477.58984375 c 0,266,267
 532.249906839 1481.29492188 532.249906839 1481.29492188 563.393660481 1483.14746094 c 128,-1,268
 594.537414123 1485 594.537414123 1485 625.904595765 1485 c 0,269,270
 686.795917775 1485 686.795917775 1485 739.903698671 1479.10253906 c 128,-1,271
 792.932848254 1473.21386719 792.932848254 1473.21386719 838.14873025 1461.47265625 c 0,272,273
 849.375747543 1458.55664062 849.375747543 1458.55664062 860.143442895 1455.41015625 c 128,-1,274
 870.912097165 1452.26269531 870.912097165 1452.26269531 881.23101868 1448.88183594 c 128,-1,275
 891.549940194 1445.50097656 891.549940194 1445.50097656 901.42008787 1441.88671875 c 128,-1,276
 911.290235547 1438.27148438 911.290235547 1438.27148438 920.725993162 1434.41894531 c 0,277,278
 959.368164062 1419.05078125 959.368164062 1419.05078125 991.046875 1399.95605469 c 0,279,280
 1016.13964844 1384.96191406 1016.13964844 1384.96191406 1036.74804688 1367.98632812 c 0,281,282
 1043.58300781 1362.35644531 1043.58300781 1362.35644531 1049.90722656 1356.53417969 c 128,-1,283
 1056.22851562 1350.71484375 1056.22851562 1350.71484375 1062.02148438 1344.72851562 c 0,284,285
 1064.91699219 1341.73535156 1064.91699219 1341.73535156 1067.68554688 1338.69628906 c 128,-1,286
 1070.45507812 1335.65722656 1070.45507812 1335.65722656 1073.09765625 1332.57128906 c 0,287,288
 1081.01464844 1323.32714844 1081.01464844 1323.32714844 1087.89355469 1313.59082031 c 128,-1,289
 1094.76855469 1303.86035156 1094.76855469 1303.86035156 1100.61230469 1293.63476562 c 0,290,291
 1101.5859375 1291.9296875 1101.5859375 1291.9296875 1102.53320312 1290.20898438 c 128,-1,292
 1103.48046875 1288.48730469 1103.48046875 1288.48730469 1104.40039062 1286.75 c 128,-1,293
 1105.32128906 1285.01269531 1105.32128906 1285.01269531 1106.21484375 1283.25878906 c 128,-1,294
 1107.10742188 1281.50488281 1107.10742188 1281.50488281 1107.97460938 1279.734375 c 128,-1,295
 1108.84082031 1277.96386719 1108.84082031 1277.96386719 1109.68066406 1276.17675781 c 128,-1,296
 1110.52050781 1274.390625 1110.52050781 1274.390625 1111.33300781 1272.58691406 c 0,297,298
 1116.20898438 1261.76660156 1116.20898438 1261.76660156 1120.12109375 1250.34179688 c 0,299,300
 1122.73242188 1242.71191406 1122.73242188 1242.71191406 1124.91894531 1234.77539062 c 128,-1,301
 1127.10644531 1226.828125 1127.10644531 1226.828125 1128.86914062 1218.54296875 c 0,302,303
 1129.22265625 1216.88476562 1129.22265625 1216.88476562 1129.55859375 1215.21289062 c 128,-1,304
 1129.89550781 1213.54199219 1129.89550781 1213.54199219 1130.21386719 1211.85742188 c 128,-1,305
 1130.53320312 1210.17382812 1130.53320312 1210.17382812 1130.83496094 1208.4765625 c 128,-1,306
 1131.13574219 1206.77929688 1131.13574219 1206.77929688 1131.42089844 1205.06933594 c 128,-1,307
 1131.70507812 1203.35839844 1131.70507812 1203.35839844 1131.97167969 1201.63476562 c 0,308,309
 1133.984375 1188.65820312 1133.984375 1188.65820312 1134.9921875 1175 c 128,-1,310
 1136 1161.34082031 1136 1161.34082031 1136 1147 c 0,311,312
 1136 1109.63867188 1136 1109.63867188 1128.29296875 1075.03222656 c 128,-1,313
 1120.59179688 1040.45507812 1120.59179688 1040.45507812 1105.17382812 1008.53027344 c 0,314,315
 1100.03125 997.883789062 1100.03125 997.883789062 1094.02734375 987.5234375 c 128,-1,316
 1088.0234375 977.1640625 1088.0234375 977.1640625 1081.1484375 967.079101562 c 128,-1,317
 1074.27441406 956.993164062 1074.27441406 956.993164062 1066.53320312 947.19140625 c 0,318,319
 1031.80175781 903.213867188 1031.80175781 903.213867188 986.95703125 875.327148438 c 128,-1,320
 942.052734375 847.401367188 942.052734375 847.401367188 889.405798524 835.16015625 c 2,321,-1
 864.05487128 829.056640625 l 1,322,-1
 864.05487128 756.641601562 l 1,323,-1
 891.877890306 752.352539062 l 2,324,325
 896.000280752 751.715820312 896.000280752 751.715820312 900.184041979 750.951171875 c 128,-1,326
 904.369721043 750.185546875 904.369721043 750.185546875 908.552523352 749.303710938 c 2,327,-1
 925.956893344 745.15234375 l 2,328,329
 928.135556078 744.575195312 928.135556078 744.575195312 930.356445312 743.96484375 c 2,330,-1
 934.989257812 742.680664062 l 2,331,0
 937.372070312 742.02734375 937.372070312 742.02734375 939.780273438 741.34375 c 128,-1,1
EndSplineSet
Validated: 1025
EndChar

StartChar: four
Encoding: 52 52 23
Width: 1316
GlyphClass: 2
Flags: W
LayerCount: 2
Fore
SplineSet
722.11499305 1454 m 1,0,-1
 1032 1454 l 1,1,-1
 1032 580 l 1,2,-1
 1235 580 l 1,3,-1
 1235 378 l 1,4,-1
 1032 378 l 1,5,-1
 1032 31 l 1,6,-1
 760.800842573 31 l 1,7,-1
 760.800842573 378 l 1,8,-1
 84 378 l 1,9,-1
 84 612.841796875 l 1,10,-1
 722.11499305 1454 l 1,0,-1
265.310546875 580 m 1,11,-1
 760.800842573 580 l 1,12,-1
 760.800842573 1254.86621094 l 1,13,-1
 265.310546875 580 l 1,11,-1
EndSplineSet
Validated: 1
EndChar

StartChar: five
Encoding: 53 53 24
Width: 1316
GlyphClass: 2
Flags: W
LayerCount: 2
Fore
SplineSet
1100.45214844 765.762695312 m 128,-1,1
 1105.32714844 759.799804688 1105.32714844 759.799804688 1109.95507812 753.604492188 c 128,-1,2
 1114.58398438 747.408203125 1114.58398438 747.408203125 1118.96582031 740.979492188 c 0,3,4
 1127.73144531 728.116210938 1127.73144531 728.116210938 1135.50878906 714.31640625 c 0,5,6
 1182 631.817382812 1182 631.817382812 1182 504 c 0,7,8
 1182 496.727539062 1182 496.727539062 1181.81933594 489.529296875 c 128,-1,9
 1181.63769531 482.331054688 1181.63769531 482.331054688 1181.27636719 475.209960938 c 128,-1,10
 1180.9140625 468.087890625 1180.9140625 468.087890625 1180.37109375 461.041015625 c 0,11,12
 1179.55761719 450.474609375 1179.55761719 450.474609375 1178.33789062 440.075195312 c 128,-1,13
 1177.11914062 429.676757812 1177.11914062 429.676757812 1175.49316406 419.4453125 c 0,14,15
 1172.24609375 398.99609375 1172.24609375 398.99609375 1167.37402344 379.180664062 c 0,16,17
 1166.15625 374.228515625 1166.15625 374.228515625 1164.83789062 369.317382812 c 128,-1,18
 1163.51953125 364.40625 1163.51953125 364.40625 1162.10058594 359.536132812 c 128,-1,19
 1160.68164062 354.665039062 1160.68164062 354.665039062 1159.16113281 349.8359375 c 128,-1,20
 1157.64160156 345.006835938 1157.64160156 345.006835938 1156.02050781 340.217773438 c 0,21,22
 1153.859375 333.833007812 1153.859375 333.833007812 1151.51855469 327.516601562 c 128,-1,23
 1149.17675781 321.19921875 1149.17675781 321.19921875 1146.65527344 314.950195312 c 128,-1,24
 1144.1328125 308.702148438 1144.1328125 308.702148438 1141.43066406 302.520507812 c 0,25,26
 1131.35546875 279.475585938 1131.35546875 279.475585938 1119.00976562 258.100585938 c 128,-1,27
 1106.66308594 236.725585938 1106.66308594 236.725585938 1092.0390625 217.006835938 c 128,-1,28
 1077.43066406 197.306640625 1077.43066406 197.306640625 1060.52050781 179.232421875 c 128,-1,29
 1043.609375 161.158203125 1043.609375 161.158203125 1024.47753906 144.791992188 c 0,30,31
 1003.015625 127.064453125 1003.015625 127.064453125 979.912109375 111.504882812 c 0,32,33
 978.255859375 110.389648438 978.255859375 110.389648438 976.595703125 109.287109375 c 128,-1,34
 974.935546875 108.184570312 974.935546875 108.184570312 973.2734375 107.096679688 c 0,35,36
 969.946289062 104.918945312 969.946289062 104.918945312 966.596679688 102.7890625 c 128,-1,37
 963.245117188 100.658203125 963.245117188 100.658203125 959.874023438 98.576171875 c 128,-1,38
 956.500976562 96.4951171875 956.500976562 96.4951171875 953.100585938 94.45703125 c 128,-1,39
 949.700195312 92.4189453125 949.700195312 92.4189453125 946.271484375 90.42578125 c 128,-1,40
 942.833984375 88.4287109375 942.833984375 88.4287109375 939.349609375 86.46484375 c 128,-1,41
 935.943138607 84.51171875 935.943138607 84.51171875 932.515087206 82.5693359375 c 0,42,43
 910.315651183 69.2568359375 910.315651183 69.2568359375 886.840638864 58.359375 c 0,44,45
 882.927657631 56.54296875 882.927657631 56.54296875 878.973466945 54.7900390625 c 128,-1,46
 875.018317901 53.037109375 875.018317901 53.037109375 871.021001045 51.34765625 c 128,-1,47
 867.02272583 49.658203125 867.02272583 49.658203125 862.983241162 48.0322265625 c 128,-1,48
 858.943756495 46.40625 858.943756495 46.40625 854.861145657 44.8447265625 c 128,-1,49
 850.779493178 43.2822265625 850.779493178 43.2822265625 846.654714528 41.7841796875 c 128,-1,50
 842.529935878 40.28515625 842.529935878 40.28515625 838.362031058 38.8505859375 c 0,51,52
 787.848826348 21.4560546875 787.848826348 21.4560546875 729.937087444 12.7333984375 c 0,53,54
 700.970676039 8.37109375 700.970676039 8.37109375 670.126838664 6.185546875 c 128,-1,55
 639.283001288 4 639.283001288 4 606.665240753 4 c 0,56,57
 451.429234606 4.9765625 451.429234606 4.9765625 338.1328125 31.658203125 c 0,58,59
 281.463867188 44.275390625 281.463867188 44.275390625 234.498046875 58.35546875 c 0,60,61
 196.142578125 69.85546875 196.142578125 69.85546875 164 82.4111328125 c 1,62,-1
 164 351.555664062 l 1,63,64
 194.688476562 333.9375 194.688476562 333.9375 225.965820312 318.563476562 c 128,-1,65
 257.243164062 303.188476562 257.243164062 303.188476562 289.420898438 289.876953125 c 128,-1,66
 321.598632812 276.56640625 321.598632812 276.56640625 355.50390625 264.94140625 c 0,67,68
 458.131999911 227 458.131999911 227 555.918196362 227 c 0,69,70
 570.740182096 227 570.740182096 227 586.127599846 227.953125 c 128,-1,71
 601.515017597 228.90625 601.515017597 228.90625 617.468825725 230.811523438 c 0,72,73
 625.441417172 231.763671875 625.441417172 231.763671875 633.556804162 232.953125 c 128,-1,74
 641.671232793 234.142578125 641.671232793 234.142578125 649.926540248 235.568359375 c 128,-1,75
 658.181847704 236.994140625 658.181847704 236.994140625 666.577075625 238.65625 c 128,-1,76
 674.972303546 240.318359375 674.972303546 240.318359375 683.51032701 242.217773438 c 0,77,78
 687.51722746 243.108398438 687.51722746 243.108398438 691.436917208 244.081054688 c 128,-1,79
 695.359482035 245.053710938 695.359482035 245.053710938 699.200586316 246.110351562 c 128,-1,80
 703.042648957 247.166992188 703.042648957 247.166992188 706.799417616 248.306640625 c 0,81,82
 712.445112557 250.017578125 712.445112557 250.017578125 717.899135627 251.916992188 c 128,-1,83
 723.354117057 253.81640625 723.354117057 253.81640625 728.615509898 255.904296875 c 0,84,85
 749.885337349 264.340820312 749.885337349 264.340820312 768.337588307 276.138671875 c 0,86,87
 774.57171589 280.125 774.57171589 280.125 780.416749576 284.469726562 c 128,-1,88
 786.262741621 288.814453125 786.262741621 288.814453125 791.760849222 293.552734375 c 128,-1,89
 797.258956823 298.290039062 797.258956823 298.290039062 802.418763572 303.430664062 c 0,90,91
 806.716046905 307.848632812 806.716046905 307.848632812 810.691321496 312.215820312 c 128,-1,92
 814.666596087 316.583007812 814.666596087 316.583007812 818.410906074 320.998046875 c 0,93,94
 825.872691986 329.797851562 825.872691986 329.797851562 832.355993001 338.736328125 c 128,-1,95
 838.907337529 347.770507812 838.907337529 347.770507812 844.47828044 357.016601562 c 128,-1,96
 850.049223352 366.262695312 850.049223352 366.262695312 854.635931209 375.717773438 c 0,97,98
 864.907626741 396.892578125 864.907626741 396.892578125 869.501043113 426.2421875 c 0,99,100
 870.604114727 433.290039062 870.604114727 433.290039062 871.425428691 440.864257812 c 128,-1,101
 872.246742656 448.439453125 872.246742656 448.439453125 872.789174049 456.545898438 c 0,102,103
 873.148558806 461.927734375 873.148558806 461.927734375 873.389107003 467.557617188 c 128,-1,104
 873.627738482 473.181640625 873.627738482 473.181640625 873.746575041 479.0390625 c 128,-1,105
 873.86636996 484.8984375 873.86636996 484.8984375 873.86636996 491 c 0,106,107
 873.86636996 521.287109375 873.86636996 521.287109375 867.620742065 548.10546875 c 2,108,-1
 866.292456004 553.48828125 l 2,109,110
 865.9436132 554.825195312 865.9436132 554.825195312 865.578478287 556.155273438 c 128,-1,111
 865.213343374 557.484375 865.213343374 557.484375 864.831916352 558.80078125 c 0,112,113
 863.306208264 564.078125 863.306208264 564.078125 861.492034011 569.270507812 c 2,114,-1
 857.697889338 579.240234375 l 2,115,116
 856.628360301 581.827148438 856.628360301 581.827148438 855.552122749 584.234375 c 128,-1,117
 854.475885197 586.641601562 854.475885197 586.641601562 853.296144835 589.091796875 c 0,118,119
 852.522748838 590.697265625 852.522748838 590.697265625 851.719643702 592.284179688 c 128,-1,120
 850.916538565 593.87109375 850.916538565 593.87109375 850.084682648 595.439453125 c 128,-1,121
 849.251868371 597.006835938 849.251868371 597.006835938 848.392220033 598.553710938 c 0,122,123
 840.179080389 613.330078125 840.179080389 613.330078125 830.356855393 626.235351562 c 0,124,125
 825.441430278 632.694335938 825.441430278 632.694335938 820.113910642 638.692382812 c 128,-1,126
 814.785432647 644.690429688 814.785432647 644.690429688 809.047735208 650.22265625 c 0,127,128
 797.570423612 661.29296875 797.570423612 661.29296875 784.439942134 670.494140625 c 0,129,130
 730.629981255 707.568359375 730.629981255 707.568359375 656.32550564 719.141601562 c 0,131,132
 650.54468203 720.041992188 650.54468203 720.041992188 644.850110763 720.868164062 c 128,-1,133
 639.154581135 721.694335938 639.154581135 721.694335938 633.544345491 722.4453125 c 128,-1,134
 627.933151486 723.197265625 627.933151486 723.197265625 622.410126542 723.873046875 c 128,-1,135
 616.883268161 724.55078125 616.883268161 724.55078125 611.4455372 725.15234375 c 0,136,137
 607.813355257 725.5546875 607.813355257 725.5546875 604.219507688 725.922851562 c 2,138,-1
 597.064396768 726.626953125 l 2,139,140
 589.942828426 727.298828125 589.942828426 727.298828125 582.954472033 727.836914062 c 128,-1,141
 575.965157281 728.375976562 575.965157281 728.375976562 569.121513151 728.780273438 c 0,142,143
 558.83352551 729.389648438 558.83352551 729.389648438 548.880963643 729.694335938 c 128,-1,144
 538.927443416 729.999023438 538.927443416 729.999023438 529.308390603 730 c 0,145,146
 518.959067964 730 518.959067964 730 508.710373057 729.748046875 c 0,147,148
 505.295738687 729.6640625 505.295738687 729.6640625 501.889729551 729.552734375 c 2,149,-1
 495.088253232 729.301757812 l 2,150,151
 491.694702767 729.161132812 491.694702767 729.161132812 488.312652615 728.993164062 c 0,152,153
 478.160752003 728.490234375 478.160752003 728.490234375 468.106604044 727.734375 c 0,154,155
 463.080009244 727.356445312 463.080009244 727.356445312 458.079290147 726.915039062 c 128,-1,156
 453.079529409 726.474609375 453.079529409 726.474609375 448.102769296 725.970703125 c 0,157,158
 438.17704149 724.963867188 438.17704149 724.963867188 428.272397591 723.703125 c 128,-1,159
 418.36871205 722.442382812 418.36871205 722.442382812 408.517578125 720.931640625 c 0,160,161
 405.1015625 720.428710938 405.1015625 720.428710938 401.658203125 719.896484375 c 128,-1,162
 398.21484375 719.364257812 398.21484375 719.364257812 394.745117188 718.8046875 c 0,163,164
 387.802734375 717.68359375 387.802734375 717.68359375 380.865234375 716.456054688 c 128,-1,165
 373.93359375 715.227539062 373.93359375 715.227539062 367.038085938 713.8984375 c 0,166,167
 340.243164062 708.865234375 340.243164062 708.865234375 315.108398438 703.772460938 c 0,168,169
 306.729492188 702.075195312 306.729492188 702.075195312 298.607421875 700.38671875 c 128,-1,170
 290.485351562 698.69921875 290.485351562 698.69921875 282.619140625 697.01953125 c 128,-1,171
 274.751953125 695.340820312 274.751953125 695.340820312 267.141601562 693.670898438 c 0,172,173
 245.336914062 688.885742188 245.336914062 688.885742188 224.850585938 684 c 1,174,-1
 220 684 l 1,175,-1
 220 1454 l 1,176,-1
 1139 1454 l 1,177,-1
 1139 1239 l 1,178,-1
 496.969512639 1239 l 1,179,-1
 496.969512639 923.568359375 l 1,180,-1
 531.480032894 926.079101562 l 2,181,182
 544.879813349 927.053710938 544.879813349 927.053710938 561.991319574 927.913085938 c 0,183,184
 564.851063879 928.056640625 564.851063879 928.056640625 567.813352635 928.197265625 c 128,-1,185
 570.775641392 928.337890625 570.775641392 928.337890625 573.83855788 928.475585938 c 0,186,187
 579.968224293 928.749023438 579.968224293 928.749023438 586.510943587 929.010742188 c 0,188,189
 588.146863 929.076171875 588.146863 929.076171875 589.806741398 929.140625 c 128,-1,190
 591.466619795 929.205078125 591.466619795 929.205078125 593.155248972 929.268554688 c 128,-1,191
 594.841961431 929.33203125 594.841961431 929.33203125 596.553591234 929.39453125 c 128,-1,192
 598.265221036 929.458007812 598.265221036 929.458007812 600.001768181 929.51953125 c 0,193,194
 613.871144719 930.013671875 613.871144719 930.013671875 626.610615581 930.341796875 c 128,-1,195
 639.350086443 930.670898438 639.350086443 930.670898438 650.945276239 930.8359375 c 128,-1,196
 662.540466036 931 662.540466036 931 673 931 c 0,197,198
 699.43155092 931 699.43155092 931 724.372853048 929.579101562 c 0,199,200
 736.827691183 928.870117188 736.827691183 928.870117188 748.89439378 927.809570312 c 128,-1,201
 760.960138018 926.749023438 760.960138018 926.749023438 772.638705078 925.337890625 c 0,202,203
 775.969003825 924.935546875 775.969003825 924.935546875 779.269593432 924.504882812 c 128,-1,204
 782.56922468 924.07421875 782.56922468 924.07421875 785.838188429 923.615234375 c 128,-1,205
 789.106193818 923.15625 789.106193818 923.15625 792.343531708 922.668945312 c 128,-1,206
 795.581827957 922.182617188 795.581827957 922.182617188 798.787539989 921.666992188 c 128,-1,207
 801.99325202 921.15234375 801.99325202 921.15234375 805.168296552 920.609375 c 128,-1,208
 808.344299444 920.065429688 808.344299444 920.065429688 811.487718117 919.494140625 c 128,-1,209
 814.631136791 918.922851562 814.631136791 918.922851562 817.743887965 918.323242188 c 0,210,211
 828.61743317 916.228515625 828.61743317 916.228515625 839.118176586 913.791015625 c 128,-1,212
 849.613169847 911.353515625 849.613169847 911.353515625 859.730569523 908.575195312 c 0,213,214
 873.268353725 904.859375 873.268353725 904.859375 886.228247238 900.666992188 c 0,215,216
 888.820609284 899.828125 888.820609284 899.828125 891.389970706 898.970703125 c 128,-1,217
 893.958373769 898.11328125 893.958373769 898.11328125 896.504734566 897.237304688 c 128,-1,218
 899.050137004 896.361328125 899.050137004 896.361328125 901.573497177 895.465820312 c 128,-1,219
 904.095898991 894.5703125 904.095898991 894.5703125 906.596258539 893.65625 c 128,-1,220
 909.095659729 892.741210938 909.095659729 892.741210938 911.573018653 891.80859375 c 0,221,222
 916.536361735 889.938476562 916.536361735 889.938476562 921.42303607 887.997070312 c 128,-1,223
 926.309710404 886.0546875 926.309710404 886.0546875 931.125466146 884.038085938 c 1,224,-1
 940.828125 879.918945312 l 2,225,226
 945.752929688 877.828125 945.752929688 877.828125 950.606445312 875.662109375 c 128,-1,227
 955.461914062 873.494140625 955.461914062 873.494140625 960.264648438 871.244140625 c 0,228,229
 984.294921875 860.078125 984.294921875 860.078125 1005.89648438 847.044921875 c 0,230,231
 1026.78320312 834.420898438 1026.78320312 834.420898438 1045.296875 819.833007812 c 128,-1,232
 1063.79882812 805.255859375 1063.79882812 805.255859375 1079.94921875 788.708007812 c 0,233,234
 1085.32617188 783.197265625 1085.32617188 783.197265625 1090.45214844 777.461914062 c 128,-1,0
 1095.578125 771.725585938 1095.578125 771.725585938 1100.45214844 765.762695312 c 128,-1,1
EndSplineSet
Validated: 1025
EndChar

StartChar: six
Encoding: 54 54 25
Width: 1316
GlyphClass: 2
Flags: W
LayerCount: 2
Fore
SplineSet
1096.50878906 834.490234375 m 0,0,1
 1104.56835938 826.15625 1104.56835938 826.15625 1112.17382812 817.235351562 c 0,2,3
 1127.40429688 799.370117188 1127.40429688 799.370117188 1140.8046875 779.112304688 c 128,-1,4
 1154.22851562 758.817382812 1154.22851562 758.817382812 1165.82324219 736.092773438 c 0,5,6
 1171.54785156 724.873046875 1171.54785156 724.873046875 1176.56640625 712.89453125 c 128,-1,7
 1181.58496094 700.916992188 1181.58496094 700.916992188 1185.90136719 688.16796875 c 128,-1,8
 1190.21777344 675.41796875 1190.21777344 675.41796875 1193.82910156 661.893554688 c 128,-1,9
 1197.43945312 648.369140625 1197.43945312 648.369140625 1200.33984375 634.083007812 c 0,10,11
 1212 576.66015625 1212 576.66015625 1212 507 c 0,12,13
 1212 497.959960938 1212 497.959960938 1211.72558594 489.022460938 c 128,-1,14
 1211.45214844 480.084960938 1211.45214844 480.084960938 1210.90429688 471.250976562 c 128,-1,15
 1210.35742188 462.419921875 1210.35742188 462.419921875 1209.53515625 453.688476562 c 0,16,17
 1207.07519531 427.508789062 1207.07519531 427.508789062 1202.15625 402.215820312 c 0,18,19
 1192.33203125 351.693359375 1192.33203125 351.693359375 1172.68164062 304.439453125 c 0,20,21
 1169.41503906 296.581054688 1169.41503906 296.581054688 1165.93359375 288.940429688 c 128,-1,22
 1162.45214844 281.299804688 1162.45214844 281.299804688 1158.75683594 273.87890625 c 128,-1,23
 1155.0625 266.458007812 1155.0625 266.458007812 1151.15527344 259.25390625 c 128,-1,24
 1147.24707031 252.05078125 1147.24707031 252.05078125 1143.12597656 245.064453125 c 128,-1,25
 1139.00390625 238.078125 1139.00390625 238.078125 1134.66992188 231.309570312 c 128,-1,26
 1130.3359375 224.541992188 1130.3359375 224.541992188 1125.78808594 217.990234375 c 0,27,28
 1118.97753906 208.178710938 1118.97753906 208.178710938 1111.67675781 198.831054688 c 128,-1,29
 1104.37597656 189.483398438 1104.37597656 189.483398438 1096.58300781 180.596679688 c 0,30,31
 1092.68359375 176.149414062 1092.68359375 176.149414062 1088.66503906 171.821289062 c 128,-1,32
 1084.64648438 167.494140625 1084.64648438 167.494140625 1080.49902344 163.276367188 c 128,-1,33
 1076.35253906 159.057617188 1076.35253906 159.057617188 1072.07714844 154.950195312 c 128,-1,34
 1067.80273438 150.842773438 1067.80273438 150.842773438 1063.39355469 146.83984375 c 0,35,36
 1044.37695312 129.467773438 1044.37695312 129.467773438 1023.93164062 114.200195312 c 128,-1,37
 1003.48339844 98.931640625 1003.48339844 98.931640625 981.337890625 85.5849609375 c 0,38,39
 967.6328125 76.6953125 967.6328125 76.6953125 953.691501994 68.7646484375 c 128,-1,40
 939.77450221 60.833984375 939.77450221 60.833984375 925.368765508 53.8330078125 c 128,-1,41
 910.963988996 46.8330078125 910.963988996 46.8330078125 895.977337096 40.71484375 c 0,42,43
 866.044361295 28.4951171875 866.044361295 28.4951171875 832.521233555 20.33984375 c 128,-1,44
 798.998105815 12.185546875 798.998105815 12.185546875 761.785926524 8.0927734375 c 128,-1,45
 724.572787043 4 724.572787043 4 683.763734482 4 c 0,46,47
 626.254090141 4 626.254090141 4 574.032214382 12.677734375 c 128,-1,48
 521.92364109 21.337890625 521.92364109 21.337890625 475.026981337 38.607421875 c 0,49,50
 463.468209197 42.8642578125 463.468209197 42.8642578125 452.264707508 47.673828125 c 128,-1,51
 441.060245629 52.484375 441.060245629 52.484375 430.21009401 57.8486328125 c 0,52,53
 422.969298138 61.427734375 422.969298138 61.427734375 415.894615206 65.2490234375 c 128,-1,54
 408.820892465 69.0703125 408.820892465 69.0703125 401.893118666 73.142578125 c 128,-1,55
 394.965344867 77.2158203125 394.965344867 77.2158203125 388.174878296 81.5478515625 c 0,56,57
 367.477539062 94.517578125 367.477539062 94.517578125 347.873046875 109.73046875 c 128,-1,58
 328.2734375 124.94140625 328.2734375 124.94140625 310.040039062 142.4375 c 0,59,60
 225.188476562 222.625976562 225.188476562 222.625976562 180.00390625 350.6484375 c 0,61,62
 134 480.995117188 134 480.995117188 134 664 c 0,63,64
 134 711.86328125 134 711.86328125 136.73828125 756.952148438 c 128,-1,65
 139.474609375 802.0390625 139.474609375 802.0390625 144.93359375 844.29296875 c 128,-1,66
 150.391601562 886.547851562 150.391601562 886.547851562 158.55078125 925.981445312 c 128,-1,67
 166.708984375 965.415039062 166.708984375 965.415039062 177.559570312 1002.06542969 c 0,68,69
 191.84765625 1050.32617188 191.84765625 1050.32617188 212.141601562 1094.83496094 c 128,-1,70
 232.435546875 1139.34277344 232.435546875 1139.34277344 258.756835938 1180.14453125 c 128,-1,71
 285.078125 1220.94628906 285.078125 1220.94628906 317.453125 1258.08203125 c 0,72,73
 326.543945312 1268.65234375 326.543945312 1268.65234375 336.08203125 1278.74804688 c 128,-1,74
 345.619140625 1288.84179688 345.619140625 1288.84179688 355.611328125 1298.46875 c 0,75,76
 357.616210938 1300.39941406 357.616210938 1300.39941406 359.629882812 1302.30371094 c 128,-1,77
 361.643554688 1304.20703125 361.643554688 1304.20703125 363.676757812 1306.09375 c 128,-1,78
 365.709960938 1307.98046875 365.709960938 1307.98046875 367.76171875 1309.84765625 c 128,-1,79
 369.814453125 1311.71582031 369.814453125 1311.71582031 371.891601562 1313.57128906 c 128,-1,80
 373.96875 1315.42675781 373.96875 1315.42675781 376.075195312 1317.2734375 c 0,81,82
 386.275621668 1326.43164062 386.275621668 1326.43164062 396.82811426 1335.125 c 128,-1,83
 407.37676609 1343.81640625 407.37676609 1343.81640625 418.386309317 1352.0546875 c 0,84,85
 427.470670774 1358.90234375 427.470670774 1358.90234375 436.893019255 1365.42675781 c 128,-1,86
 446.314407545 1371.95117188 446.314407545 1371.95117188 456.077623621 1378.15527344 c 128,-1,87
 465.840839697 1384.35839844 465.840839697 1384.35839844 475.943002987 1390.23925781 c 0,88,89
 506.252373429 1407.88378906 506.252373429 1407.88378906 539.639154131 1422.63183594 c 0,90,91
 545.210178883 1425.09179688 545.210178883 1425.09179688 550.873381913 1427.45019531 c 128,-1,92
 556.536584944 1429.80957031 556.536584944 1429.80957031 562.291966254 1432.06738281 c 128,-1,93
 568.049267945 1434.32421875 568.049267945 1434.32421875 573.898747915 1436.48046875 c 128,-1,94
 579.749188075 1438.63671875 579.749188075 1438.63671875 585.690846324 1440.69140625 c 128,-1,95
 591.634424955 1442.74609375 591.634424955 1442.74609375 597.671142054 1444.69921875 c 0,96,97
 599.180561377 1445.1875 599.180561377 1445.1875 600.694781651 1445.66992188 c 128,-1,98
 602.209001926 1446.15136719 602.209001926 1446.15136719 603.729943533 1446.62695312 c 128,-1,99
 605.24992495 1447.10253906 605.24992495 1447.10253906 606.7766277 1447.57226562 c 128,-1,100
 608.30333045 1448.04101562 608.30333045 1448.04101562 609.835794342 1448.50390625 c 0,101,102
 646.612047187 1459.61328125 646.612047187 1459.61328125 686.81329922 1467.06640625 c 128,-1,103
 727.011670682 1474.515625 727.011670682 1474.515625 770.671528567 1478.25683594 c 128,-1,104
 814.32850588 1481.99804688 814.32850588 1481.99804688 861.366313623 1482 c 0,105,106
 874.076354064 1482 874.076354064 1482 887.368269892 1481.61035156 c 128,-1,107
 900.66114591 1481.22070312 900.66114591 1481.22070312 914.558941886 1480.44042969 c 128,-1,108
 928.456737862 1479.65917969 928.456737862 1479.65917969 942.949851892 1478.48730469 c 128,-1,109
 957.442965921 1477.31542969 957.442965921 1477.31542969 972.657226562 1475.75097656 c 128,-1,110
 988.020507812 1474.18652344 988.020507812 1474.18652344 1004.00292969 1472.22949219 c 0,111,112
 1007.41601562 1471.8359375 1007.41601562 1471.8359375 1010.74316406 1471.45019531 c 128,-1,113
 1014.0703125 1471.06445312 1014.0703125 1471.06445312 1017.30859375 1470.68652344 c 0,114,115
 1023.78417969 1469.92773438 1023.78417969 1469.92773438 1029.90625 1469.19824219 c 128,-1,116
 1036.02441406 1468.46875 1036.02441406 1468.46875 1041.79199219 1467.765625 c 128,-1,117
 1047.55859375 1467.0625 1047.55859375 1467.0625 1052.96777344 1466.38671875 c 0,118,119
 1055.671875 1466.04980469 1055.671875 1466.04980469 1058.29003906 1465.71875 c 128,-1,120
 1060.90820312 1465.38769531 1060.90820312 1465.38769531 1063.43359375 1465.06542969 c 0,121,122
 1070.59277344 1464.14746094 1070.59277344 1464.14746094 1078.09667969 1463.13964844 c 0,123,124
 1082.47460938 1462.55175781 1082.47460938 1462.55175781 1086 1462.06542969 c 2,125,-1
 1086 1235.90625 l 1,126,127
 1080.06445312 1238.3359375 1080.06445312 1238.3359375 1074.40332031 1240.40332031 c 0,128,129
 1072.70703125 1241.0234375 1072.70703125 1241.0234375 1070.91699219 1241.65625 c 128,-1,130
 1069.12695312 1242.29003906 1069.12695312 1242.29003906 1067.24511719 1242.93554688 c 128,-1,131
 1065.36328125 1243.58203125 1065.36328125 1243.58203125 1063.38671875 1244.24121094 c 128,-1,132
 1061.40917969 1244.90136719 1061.40917969 1244.90136719 1059.34179688 1245.57421875 c 128,-1,133
 1057.2734375 1246.24707031 1057.2734375 1246.24707031 1055.109375 1246.93359375 c 0,134,135
 1050.484375 1248.40136719 1050.484375 1248.40136719 1045.48828125 1249.90820312 c 128,-1,136
 1040.49902344 1251.41210938 1040.49902344 1251.41210938 1035.171875 1252.9453125 c 128,-1,137
 1029.84960938 1254.47753906 1029.84960938 1254.47753906 1024.18066406 1256.04101562 c 0,138,139
 1021.34863281 1256.82128906 1021.34863281 1256.82128906 1018.43652344 1257.60839844 c 128,-1,140
 1015.52539062 1258.39648438 1015.52539062 1258.39648438 1012.53320312 1259.19042969 c 0,141,142
 1006.55371094 1260.77734375 1006.55371094 1260.77734375 1000.29882812 1262.37597656 c 2,143,-1
 993.657226562 1264.09667969 l 2,144,145
 990.305664062 1264.93847656 990.305664062 1264.93847656 986.924804688 1265.734375 c 128,-1,146
 983.54296875 1266.53222656 983.54296875 1266.53222656 980.129882812 1267.28515625 c 128,-1,147
 976.717773438 1268.03710938 976.717773438 1268.03710938 973.28515625 1268.74414062 c 128,-1,148
 969.883789062 1269.45214844 969.883789062 1269.45214844 966.46875 1270.11425781 c 2,149,-1
 959.717656999 1271.39648438 l 2,150,151
 956.330105237 1272.01660156 956.330105237 1272.01660156 952.913747763 1272.59082031 c 0,152,-1
 946.056067864 1273.69238281 l 1,153,-1
 939.143657111 1274.70605469 l 2,154,155
 935.675449355 1275.19042969 935.675449355 1275.19042969 932.180356267 1275.62890625 c 0,156,157
 926.364482961 1276.359375 926.364482961 1276.359375 920.443948901 1276.96777344 c 128,-1,158
 914.524375031 1277.57519531 914.524375031 1277.57519531 908.503020978 1278.06152344 c 128,-1,159
 902.481666925 1278.546875 902.481666925 1278.546875 896.355652117 1278.91015625 c 0,160,161
 877.980488266 1280 877.980488266 1280 858.676820288 1280 c 0,162,163
 766.604161995 1280 766.604161995 1280 694.056975663 1254.30957031 c 0,164,165
 621.278383443 1228.53710938 621.278383443 1228.53710938 568.520721436 1176.8671875 c 0,166,167
 463.678490897 1074.18359375 463.678490897 1074.18359375 442.441959627 893.385742188 c 2,168,-1
 433.890503847 820.58984375 l 1,169,-1
 491.941695578 859.25390625 l 2,170,171
 493.775659258 860.475585938 493.775659258 860.475585938 495.616344272 861.684570312 c 128,-1,172
 497.456069095 862.893554688 497.456069095 862.893554688 499.30059487 864.088867188 c 0,173,174
 502.990606611 866.478515625 502.990606611 866.478515625 506.703662921 868.818359375 c 128,-1,175
 510.414798851 871.158203125 510.414798851 871.158203125 514.14705897 873.444335938 c 0,176,177
 519.746889434 876.875 519.746889434 876.875 525.396649799 880.1875 c 128,-1,178
 531.047370354 883.500976562 531.047370354 883.500976562 536.748981001 886.69921875 c 2,179,-1
 542.461153743 889.8671875 l 2,180,181
 545.323481351 891.436523438 545.323481351 891.436523438 548.198291435 892.9765625 c 128,-1,182
 551.074061709 894.517578125 551.074061709 894.517578125 553.961354268 896.029296875 c 2,183,-1
 559.750342242 899.022460938 l 1,184,-1
 562.32941368 900.333984375 l 1,185,-1
 564.91424626 901.633789062 l 2,186,187
 566.207622741 902.28125 566.207622741 902.28125 567.504839983 902.922851562 c 0,188,189
 568.152968509 903.243164062 568.152968509 903.243164062 568.802057225 903.563476562 c 128,-1,190
 569.452106132 903.883789062 569.452106132 903.883789062 570.100234658 904.201171875 c 128,-1,191
 570.749323374 904.51953125 570.749323374 904.51953125 571.398412091 904.834960938 c 128,-1,192
 572.046540616 905.150390625 572.046540616 905.150390625 572.698509904 905.465820312 c 0,193,194
 574.000528098 906.095703125 574.000528098 906.095703125 575.305426864 906.720703125 c 0,195,196
 577.261334726 907.657226562 577.261334726 907.657226562 579.222043541 908.581054688 c 128,-1,197
 581.183712546 909.50390625 581.183712546 909.50390625 583.151142693 910.415039062 c 0,198,199
 589.053433136 913.1484375 589.053433136 913.1484375 595.00661367 915.765625 c 128,-1,200
 600.960754395 918.3828125 600.960754395 918.3828125 606.96482502 920.883789062 c 0,201,202
 608.168903793 921.384765625 608.168903793 921.384765625 609.365301042 921.87890625 c 128,-1,203
 610.566499243 922.373046875 610.566499243 922.373046875 611.777299349 922.866210938 c 2,204,-1
 616.604176534 924.811523438 l 1,205,-1
 621.446416765 926.717773438 l 2,206,207
 622.660097441 927.190429688 622.660097441 927.190429688 623.876658689 927.659179688 c 128,-1,208
 625.093219937 928.127929688 625.093219937 928.127929688 626.308820995 928.58984375 c 0,209,210
 628.743863871 929.516601562 628.743863871 929.516601562 631.187548461 930.424804688 c 0,211,212
 637.134967853 932.634765625 637.134967853 932.634765625 643.161122858 934.661132812 c 128,-1,213
 649.188238054 936.686523438 649.188238054 936.686523438 655.296009244 938.528320312 c 128,-1,214
 661.403780434 940.37109375 661.403780434 940.37109375 667.593167808 942.029296875 c 128,-1,215
 673.782555183 943.6875 673.782555183 943.6875 680.058359695 945.163085938 c 128,-1,216
 686.333204016 946.638671875 686.333204016 946.638671875 692.695425664 947.931640625 c 128,-1,217
 699.057647312 949.224609375 699.057647312 949.224609375 705.505325907 950.333984375 c 0,218,219
 724.845481119 953.662109375 724.845481119 953.662109375 744.976833229 955.331054688 c 0,220,221
 755.045389855 956.165039062 755.045389855 956.165039062 765.304064182 956.583007812 c 128,-1,222
 775.564658889 957 775.564658889 957 786.01921206 957 c 0,223,224
 804.492315333 957 804.492315333 957 822.248156372 955.823242188 c 128,-1,225
 840.00399741 954.645507812 840.00399741 954.645507812 857.043536403 952.293945312 c 0,226,227
 865.544102092 951.119140625 865.544102092 951.119140625 873.865112174 949.65625 c 0,228,229
 878.025617215 948.923828125 878.025617215 948.923828125 882.140033116 948.120117188 c 128,-1,230
 886.253488827 947.31640625 886.253488827 947.31640625 890.319895208 946.44140625 c 0,231,232
 891.946457761 946.090820312 891.946457761 946.090820312 893.56629898 945.728515625 c 128,-1,233
 895.1861402 945.3671875 895.1861402 945.3671875 896.801180467 944.9921875 c 128,-1,234
 898.412379973 944.620117188 898.412379973 944.620117188 900.017818336 944.234375 c 128,-1,235
 901.622296509 943.850585938 901.622296509 943.850585938 903.220053349 943.454101562 c 128,-1,236
 904.816849999 943.057617188 904.816849999 943.057617188 906.405965126 942.651367188 c 0,237,238
 914.354421329 940.611328125 914.354421329 940.611328125 922.130043259 938.28515625 c 0,239,240
 932.378155491 935.217773438 932.378155491 935.217773438 942.33629022 931.5546875 c 0,241,242
 945.675832462 930.326171875 945.675832462 930.326171875 948.962564231 929.040039062 c 128,-1,243
 952.249296 927.75390625 952.249296 927.75390625 955.539868531 926.38671875 c 128,-1,244
 958.830441062 925.01953125 958.830441062 925.01953125 962.148859114 923.559570312 c 0,245,246
 968.926757812 920.67578125 968.926757812 920.67578125 975.8828125 917.515625 c 0,247,248
 978.19921875 916.463867188 978.19921875 916.463867188 980.516601562 915.380859375 c 128,-1,249
 982.833984375 914.298828125 982.833984375 914.298828125 985.15234375 913.184570312 c 128,-1,250
 987.470703125 912.071289062 987.470703125 912.071289062 989.7890625 910.926757812 c 0,251,252
 996.743164062 907.493164062 996.743164062 907.493164062 1003.70214844 903.782226562 c 0,253,254
 1024.45410156 892.71484375 1024.45410156 892.71484375 1043.99902344 879.27734375 c 0,255,256
 1045.57421875 878.176757812 1045.57421875 878.176757812 1047.13671875 877.059570312 c 128,-1,257
 1048.70019531 875.942382812 1048.70019531 875.942382812 1050.24804688 874.811523438 c 0,258,259
 1053.34570312 872.545898438 1053.34570312 872.545898438 1056.39257812 870.217773438 c 128,-1,260
 1059.4375 867.890625 1059.4375 867.890625 1062.43066406 865.499023438 c 0,261,262
 1064.22753906 864.063476562 1064.22753906 864.063476562 1066.00488281 862.60546875 c 128,-1,263
 1067.78320312 861.146484375 1067.78320312 861.146484375 1069.54199219 859.66796875 c 128,-1,264
 1071.30078125 858.186523438 1071.30078125 858.186523438 1073.04296875 856.681640625 c 128,-1,265
 1074.78320312 855.177734375 1074.78320312 855.177734375 1076.50585938 853.650390625 c 2,266,-1
 1079.93066406 850.573242188 l 2,267,268
 1082.06054688 848.635742188 1082.06054688 848.635742188 1084.16113281 846.661132812 c 128,-1,269
 1086.26171875 844.6875 1086.26171875 844.6875 1088.33496094 842.67578125 c 0,270,271
 1092.48046875 838.655273438 1092.48046875 838.655273438 1096.50878906 834.490234375 c 0,0,1
769.001757446 207.489257812 m 128,-1,273
 772.479567106 209.106445312 772.479567106 209.106445312 775.878641153 210.854492188 c 128,-1,274
 779.281555962 212.603515625 779.281555962 212.603515625 782.601894395 214.482421875 c 128,-1,275
 785.922232828 216.361328125 785.922232828 216.361328125 789.161915267 218.370117188 c 0,276,277
 790.603161071 219.263671875 790.603161071 219.263671875 792.029043828 220.18359375 c 128,-1,278
 793.454926585 221.103515625 793.454926585 221.103515625 794.863525915 222.049804688 c 128,-1,279
 796.272125244 222.995117188 796.272125244 222.995117188 797.662480956 223.96484375 c 0,280,281
 799.750895095 225.420898438 799.750895095 225.420898438 801.799941427 226.934570312 c 128,-1,282
 803.848987759 228.447265625 803.848987759 228.447265625 805.860586666 230.017578125 c 0,283,284
 807.201012476 231.064453125 807.201012476 231.064453125 808.52415486 232.135742188 c 128,-1,285
 809.847297243 233.208007812 809.847297243 233.208007812 811.153156199 234.3046875 c 128,-1,286
 812.459015155 235.40234375 812.459015155 235.40234375 813.746630493 236.5234375 c 0,287,288
 819.559623227 241.583007812 819.559623227 241.583007812 824.976057323 247.118164062 c 128,-1,289
 830.389610847 252.649414062 830.389610847 252.649414062 835.490142298 258.741210938 c 0,290,291
 840.894093919 265.350585938 840.894093919 265.350585938 845.85347738 272.2421875 c 128,-1,292
 850.812860841 279.1328125 850.812860841 279.1328125 855.374725473 286.364257812 c 128,-1,293
 859.934669724 293.58984375 859.934669724 293.58984375 864.142224095 301.216796875 c 0,294,295
 867.280126351 306.90625 867.280126351 306.90625 870.212547859 312.798828125 c 128,-1,296
 873.144969367 318.69140625 873.144969367 318.69140625 875.871910128 324.7890625 c 0,297,298
 881.321950888 336.970703125 881.321950888 336.970703125 885.956789991 349.9609375 c 0,299,300
 895.411784946 376.455078125 895.411784946 376.455078125 900.07446957 411.276367188 c 128,-1,301
 904.712189245 445.904296875 904.712189245 445.904296875 904.712189245 489 c 0,302,303
 904.712189245 569.29296875 904.712189245 569.29296875 883.167436853 622.4765625 c 0,304,305
 861.050410979 677.07421875 861.050410979 677.07421875 821.570261943 710.3828125 c 0,306,307
 815.2675721 715.84765625 815.2675721 715.84765625 808.543358668 720.772460938 c 128,-1,308
 801.819145235 725.696289062 801.819145235 725.696289062 794.694532403 730.064453125 c 128,-1,309
 787.57087976 734.431640625 787.57087976 734.431640625 780.083314953 738.216796875 c 0,310,311
 777.5858597 739.479492188 777.5858597 739.479492188 775.04999683 740.676757812 c 128,-1,312
 772.514133961 741.875 772.514133961 741.875 769.940823666 743.0078125 c 128,-1,313
 767.36751337 744.139648438 767.36751337 744.139648438 764.754835268 745.208007812 c 0,314,315
 756.921601914 748.409179688 756.921601914 748.409179688 748.758063058 751.0234375 c 0,316,317
 744.678214012 752.330078125 744.678214012 752.330078125 740.51578859 753.490234375 c 128,-1,318
 736.352402978 754.650390625 736.352402978 754.650390625 732.1054808 755.665039062 c 0,319,320
 720.231766205 758.500976562 720.231766205 758.500976562 708.183296957 760.627929688 c 128,-1,321
 696.134827708 762.75390625 696.134827708 762.75390625 683.913524186 764.170898438 c 0,322,323
 679.026155005 764.73828125 679.026155005 764.73828125 674.112860684 765.190429688 c 128,-1,324
 669.203407124 765.642578125 669.203407124 765.642578125 664.267068233 765.982421875 c 0,325,326
 661.800339073 766.15234375 661.800339073 766.15234375 659.324968199 766.293945312 c 128,-1,327
 656.849597325 766.435546875 656.849597325 766.435546875 654.37134588 766.547851562 c 0,328,329
 649.409081848 766.774414062 649.409081848 766.774414062 644.422813055 766.887695312 c 128,-1,330
 639.439424834 767 639.439424834 767 634.430111472 767 c 0,331,332
 623.614526708 767 623.614526708 767 612.596341768 766.318359375 c 128,-1,333
 601.592559683 765.63671875 601.592559683 765.63671875 590.403460851 764.278320312 c 128,-1,334
 579.240287159 762.923828125 579.240287159 762.923828125 567.884115195 760.904296875 c 128,-1,335
 556.552908181 758.888671875 556.552908181 758.888671875 545.014300039 756.208984375 c 0,336,337
 533.683093026 753.577148438 533.683093026 753.577148438 522.800294933 750.610351562 c 0,338,339
 517.350254173 749.124023438 517.350254173 749.124023438 512.006794549 747.552734375 c 128,-1,340
 506.664295115 745.98046875 506.664295115 745.98046875 501.426456435 744.323242188 c 128,-1,341
 496.180936232 742.662109375 496.180936232 742.662109375 491.041997165 740.912109375 c 0,342,343
 488.47060725 740.037109375 488.47060725 740.037109375 485.928023048 739.140625 c 128,-1,344
 483.385438845 738.245117188 483.385438845 738.245117188 480.863018642 737.32421875 c 2,345,-1
 474.196416634 734.833984375 l 2,346,347
 472.541048369 734.201171875 472.541048369 734.201171875 470.89816258 733.55859375 c 128,-1,348
 469.255276791 732.916015625 469.255276791 732.916015625 467.622953096 732.263671875 c 0,349,350
 464.360226087 730.958007812 464.360226087 730.958007812 461.145508598 729.614257812 c 2,351,-1
 440.391953104 720.9375 l 1,352,-1
 440.391953104 697.025390625 l 1,353,-1
 440.338182441 691.702148438 l 2,354,355
 440.324739775 690.92578125 440.324739775 690.92578125 440.308416538 690.099609375 c 128,-1,356
 440.291133111 689.274414062 440.291133111 689.274414062 440.270008922 688.390625 c 0,357,358
 440.229680925 686.627929688 440.229680925 686.627929688 440.176870452 684.65234375 c 0,359,-1
 440.098134839 681.921875 l 2,360,361
 440.056846651 680.510742188 440.056846651 680.510742188 440.007876941 678.999023438 c 0,362,363
 439.98387218 678.244140625 439.98387218 678.244140625 439.95890723 677.46484375 c 128,-1,364
 439.932982089 676.685546875 439.932982089 676.685546875 439.905136567 675.883789062 c 0,365,366
 439.823520382 673.469726562 439.823520382 673.469726562 439.727501341 670.866210938 c 128,-1,367
 439.6314823 668.26171875 439.6314823 668.26171875 439.522020594 665.465820312 c 0,368,369
 439.288694324 659.495117188 439.288694324 659.495117188 439.115860051 652.797851562 c 128,-1,370
 438.942065587 646.1015625 438.942065587 646.1015625 438.826842738 638.672851562 c 128,-1,371
 438.712580079 631.25 438.712580079 631.25 438.654968655 623.083007812 c 128,-1,372
 438.59735723 614.916015625 438.59735723 614.916015625 438.59735723 606 c 0,373,374
 438.59735723 584.849609375 438.59735723 584.849609375 439.225321757 564.922851562 c 128,-1,375
 439.853286285 544.990234375 439.853286285 544.990234375 441.11113572 526.288085938 c 0,376,377
 441.742941009 516.91015625 441.742941009 516.91015625 442.537018477 507.80859375 c 0,378,379
 442.80203103 504.7734375 442.80203103 504.7734375 443.085287201 501.770507812 c 128,-1,380
 443.368543371 498.764648438 443.368543371 498.764648438 443.67100335 495.790039062 c 128,-1,381
 443.972503138 492.8125 443.972503138 492.8125 444.293206735 489.864257812 c 0,382,383
 445.253397143 481.024414062 445.253397143 481.024414062 446.381620874 472.4453125 c 0,384,385
 446.758015514 469.5859375 446.758015514 469.5859375 447.152653772 466.756835938 c 128,-1,386
 447.54633184 463.926757812 447.54633184 463.926757812 447.960173906 461.126953125 c 128,-1,387
 448.373055781 458.328125 448.373055781 458.328125 448.805141465 455.55859375 c 0,388,389
 449.672193404 449.997070312 449.672193404 449.997070312 450.613180005 444.567382812 c 128,-1,390
 451.555126796 439.137695312 451.555126796 439.137695312 452.572928629 433.837890625 c 128,-1,391
 453.589770272 428.537109375 453.589770272 428.537109375 454.682466957 423.369140625 c 0,392,393
 457.962477393 407.852539062 457.962477393 407.852539062 461.922302639 393.525390625 c 128,-1,394
 465.843720268 379.340820312 465.843720268 379.340820312 470.252914625 366.168945312 c 0,395,396
 472.462312756 359.571289062 472.462312756 359.571289062 474.802296782 353.209960938 c 128,-1,397
 477.143240998 346.841796875 477.143240998 346.841796875 479.647417584 340.631835938 c 2,398,-1
 490.002110952 317.213867188 l 2,399,400
 491.086165923 314.9765625 491.086165923 314.9765625 492.109728899 312.936523438 c 128,-1,401
 493.132331684 310.897460938 493.132331684 310.897460938 494.22502837 308.794921875 c 128,-1,402
 495.304282389 306.720703125 495.304282389 306.720703125 496.379695647 304.723632812 c 128,-1,403
 497.455108905 302.725585938 497.455108905 302.725585938 498.589093777 300.692382812 c 2,404,-1
 503.053979178 292.96484375 l 2,405,406
 504.230212429 290.999023438 504.230212429 290.999023438 505.381480729 289.141601562 c 128,-1,407
 506.532749029 287.284179688 506.532749029 287.284179688 507.729146278 285.421875 c 0,408,409
 510.096015635 281.740234375 510.096015635 281.740234375 512.533939083 278.2109375 c 128,-1,410
 514.977623673 274.670898438 514.977623673 274.670898438 517.486601211 271.297851562 c 0,411,412
 518.742530266 269.608398438 518.742530266 269.608398438 520.018623319 267.956054688 c 128,-1,413
 521.295676563 266.303710938 521.295676563 266.303710938 522.585212282 264.696289062 c 128,-1,414
 523.852663621 263.115234375 523.852663621 263.115234375 525.186368099 261.516601562 c 128,-1,415
 526.521032767 259.915039062 526.521032767 259.915039062 527.732793063 258.518554688 c 0,416,417
 532.699858047 252.454101562 532.699858047 252.454101562 538.074043765 246.798828125 c 128,-1,418
 543.449189673 241.143554688 543.449189673 241.143554688 549.069184135 236.077148438 c 0,419,420
 551.89790508 233.526367188 551.89790508 233.526367188 554.803441256 231.110351562 c 128,-1,421
 557.708017243 228.693359375 557.708017243 228.693359375 560.690368652 226.411132812 c 128,-1,422
 563.671759871 224.12890625 563.671759871 224.12890625 566.729966323 221.98046875 c 128,-1,423
 569.789132965 219.83203125 569.789132965 219.83203125 572.922234269 217.818359375 c 0,424,425
 585.465201578 209.760742188 585.465201578 209.760742188 599.102785954 203.958984375 c 0,426,427
 604.090014937 201.837890625 604.090014937 201.837890625 609.17134258 199.981445312 c 128,-1,428
 614.253630413 198.125 614.253630413 198.125 619.430016906 196.533203125 c 0,429,430
 629.780869513 193.349609375 629.780869513 193.349609375 640.485072189 191.231445312 c 128,-1,431
 651.183513723 189.115234375 651.183513723 189.115234375 662.234345137 188.057617188 c 128,-1,432
 673.273654266 187 673.273654266 187 684.661512514 187 c 0,433,434
 720.38347629 187 720.38347629 187 761.967402511 204.384765625 c 0,435,272
 765.523947785 205.87109375 765.523947785 205.87109375 769.001757446 207.489257812 c 128,-1,273
EndSplineSet
Validated: 1025
EndChar

StartChar: seven
Encoding: 55 55 26
Width: 1316
GlyphClass: 2
Flags: W
LayerCount: 2
Fore
SplineSet
886.216526757 1239 m 1,0,-1
 156 1239 l 1,1,-1
 156 1454 l 1,2,-1
 1183 1454 l 1,3,-1
 1183 1202.00878906 l 1,4,-1
 569.94894319 35 l 1,5,-1
 245.956054688 35 l 1,6,-1
 886.216526757 1239 l 1,0,-1
EndSplineSet
Validated: 1
EndChar

StartChar: eight
Encoding: 56 56 27
Width: 1316
GlyphClass: 2
Flags: W
LayerCount: 2
Fore
SplineSet
916.860208687 824.926757812 m 1,0,-1
 916.860208687 772.236328125 l 1,1,-1
 937.797487991 763.465820312 l 2,2,3
 972.7734375 749.525390625 972.7734375 749.525390625 1004.06054688 733.3046875 c 128,-1,4
 1035.31152344 717.115234375 1035.31152344 717.115234375 1061.82421875 698.668945312 c 0,5,6
 1075.06445312 689.45703125 1075.06445312 689.45703125 1087.12890625 679.69140625 c 128,-1,7
 1099.19335938 669.926757812 1099.19335938 669.926757812 1110.08398438 659.609375 c 0,8,9
 1131.84082031 638.998046875 1131.84082031 638.998046875 1149 616.119140625 c 0,10,11
 1217 525.452148438 1217 525.452148438 1217 401.119140625 c 0,12,13
 1217 378.338867188 1217 378.338867188 1214.61523438 356.713867188 c 0,14,15
 1213.42382812 345.91015625 1213.42382812 345.91015625 1211.63867188 335.39453125 c 128,-1,16
 1209.85351562 324.87890625 1209.85351562 324.87890625 1207.47460938 314.650390625 c 128,-1,17
 1205.10449219 304.458984375 1205.10449219 304.458984375 1202.13574219 294.525390625 c 128,-1,18
 1199.16796875 284.591796875 1199.16796875 284.591796875 1195.59960938 274.9140625 c 128,-1,19
 1192.03222656 265.237304688 1192.03222656 265.237304688 1187.86425781 255.810546875 c 128,-1,20
 1183.69628906 246.383789062 1183.69628906 246.383789062 1178.92675781 237.206054688 c 0,21,22
 1175.74316406 231.081054688 1175.74316406 231.081054688 1172.29003906 225.06640625 c 128,-1,23
 1168.8359375 219.051757812 1168.8359375 219.051757812 1165.11132812 213.146484375 c 0,24,25
 1157.66015625 201.333007812 1157.66015625 201.333007812 1149.11425781 189.947265625 c 128,-1,26
 1140.56347656 178.5546875 1140.56347656 178.5546875 1130.91992188 167.59765625 c 0,27,28
 1126.06738281 162.083984375 1126.06738281 162.083984375 1120.94726562 156.685546875 c 128,-1,29
 1115.828125 151.287109375 1115.828125 151.287109375 1110.43945312 146.00390625 c 0,30,31
 1107.74511719 143.361328125 1107.74511719 143.361328125 1104.97460938 140.740234375 c 128,-1,32
 1102.20507812 138.119140625 1102.20507812 138.119140625 1099.359375 135.51953125 c 0,33,34
 1097.93652344 134.220703125 1097.93652344 134.220703125 1096.49414062 132.924804688 c 128,-1,35
 1095.05078125 131.62890625 1095.05078125 131.62890625 1093.59277344 130.340820312 c 0,36,37
 1090.66992188 127.762695312 1090.66992188 127.762695312 1087.671875 125.205078125 c 0,38,39
 1075.671875 114.96875 1075.671875 114.96875 1062.39160156 105.038085938 c 0,40,41
 910.566144557 -13.880859375 910.566144557 -13.880859375 656.193868891 -13.880859375 c 0,42,43
 511.789889927 -13.6220703125 511.789889927 -13.6220703125 410.088079407 18.6572265625 c 0,44,45
 399.930874816 21.8984375 399.930874816 21.8984375 390.146623323 25.3818359375 c 128,-1,46
 380.363333049 28.8642578125 380.363333049 28.8642578125 370.948189775 32.5888671875 c 128,-1,47
 361.510938457 36.3212890625 361.510938457 36.3212890625 352.48508901 40.26171875 c 0,48,49
 349.447635948 41.587890625 349.447635948 41.587890625 346.468817264 42.92578125 c 128,-1,50
 343.469726562 44.263671875 343.469726562 44.263671875 340.432617188 45.64453125 c 128,-1,51
 337.395507812 47.0244140625 337.395507812 47.0244140625 334.3125 48.46484375 c 0,52,53
 327.7734375 51.330078125 327.7734375 51.330078125 321.583007812 54.224609375 c 0,54,55
 319.520507812 55.1884765625 319.520507812 55.1884765625 317.482421875 56.162109375 c 128,-1,56
 315.443359375 57.13671875 315.443359375 57.13671875 313.427734375 58.1201171875 c 128,-1,57
 311.412109375 59.103515625 311.412109375 59.103515625 309.418945312 60.0966796875 c 0,58,59
 307.924804688 60.841796875 307.924804688 60.841796875 306.439453125 61.5947265625 c 0,60,-1
 303.471679688 63.109375 l 2,61,62
 302.733398438 63.490234375 302.733398438 63.490234375 301.994140625 63.873046875 c 128,-1,63
 301.254882812 64.2568359375 301.254882812 64.2568359375 300.520507812 64.640625 c 0,64,65
 299.048828125 65.41015625 299.048828125 65.41015625 297.583984375 66.189453125 c 0,66,67
 280.146484375 75.4501953125 280.146484375 75.4501953125 264.37109375 85.59765625 c 0,68,69
 263.059570312 86.44140625 263.059570312 86.44140625 261.758789062 87.291015625 c 128,-1,70
 260.458007812 88.1416015625 260.458007812 88.1416015625 259.168945312 88.9970703125 c 128,-1,71
 257.879882812 89.853515625 257.879882812 89.853515625 256.6015625 90.7158203125 c 128,-1,72
 255.32421875 91.578125 255.32421875 91.578125 254.056640625 92.447265625 c 0,73,74
 248.990234375 95.919921875 248.990234375 95.919921875 244.094726562 99.498046875 c 0,75,76
 241.641601562 101.290039062 241.641601562 101.290039062 239.240234375 103.102539062 c 128,-1,77
 236.838867188 104.915039062 236.838867188 104.915039062 234.462890625 106.765625 c 0,78,79
 222.794921875 115.823242188 222.794921875 115.823242188 212.177734375 125.353515625 c 128,-1,80
 201.564453125 134.87890625 201.564453125 134.87890625 192.005859375 144.869140625 c 128,-1,81
 182.477539062 154.827148438 182.477539062 154.827148438 173.995117188 165.227539062 c 0,82,83
 171.166992188 168.694335938 171.166992188 168.694335938 168.455078125 172.2109375 c 128,-1,84
 165.7421875 175.728515625 165.7421875 175.728515625 163.146484375 179.293945312 c 128,-1,85
 160.549804688 182.859375 160.549804688 182.859375 158.069335938 186.474609375 c 0,86,87
 154.350585938 191.893554688 154.350585938 191.893554688 150.879882812 197.43359375 c 0,88,89
 149.723632812 199.28125 149.723632812 199.28125 148.59375 201.140625 c 0,90,91
 148.028320312 202.072265625 148.028320312 202.072265625 147.471679688 203.004882812 c 128,-1,92
 146.915039062 203.9375 146.915039062 203.9375 146.362304688 204.877929688 c 0,93,94
 145.260742188 206.751953125 145.260742188 206.751953125 144.186523438 208.637695312 c 0,95,96
 143.380859375 210.0546875 143.380859375 210.0546875 142.590820312 211.478515625 c 128,-1,97
 141.80078125 212.90234375 141.80078125 212.90234375 141.024414062 214.334960938 c 0,98,99
 139.474609375 217.197265625 139.474609375 217.197265625 137.985351562 220.092773438 c 128,-1,100
 136.49609375 222.98828125 136.49609375 222.98828125 135.067382812 225.915039062 c 0,101,102
 134.353515625 227.377929688 134.353515625 227.377929688 133.655273438 228.848632812 c 128,-1,103
 132.95703125 230.319335938 132.95703125 230.319335938 132.2734375 231.798828125 c 0,104,105
 99 303.814453125 99 303.814453125 99 387.119140625 c 0,106,107
 99 397.267578125 99 397.267578125 99.5859375 407.146484375 c 128,-1,108
 100.172851562 417.026367188 100.172851562 417.026367188 101.34375 426.635742188 c 128,-1,109
 102.513671875 436.221679688 102.513671875 436.221679688 104.26171875 445.540039062 c 128,-1,110
 106.009765625 454.856445312 106.009765625 454.856445312 108.337890625 463.91796875 c 0,111,112
 109.5 468.442382812 109.5 468.442382812 110.80859375 472.908203125 c 128,-1,113
 112.1171875 477.374023438 112.1171875 477.374023438 113.571289062 481.782226562 c 128,-1,114
 115.025390625 486.189453125 115.025390625 486.189453125 116.625976562 490.5390625 c 128,-1,115
 118.2265625 494.887695312 118.2265625 494.887695312 119.97265625 499.1796875 c 0,116,117
 123.467773438 507.766601562 123.467773438 507.766601562 127.545898438 516.12890625 c 0,118,119
 129.5859375 520.310546875 129.5859375 520.310546875 131.771484375 524.4375 c 128,-1,120
 133.958007812 528.564453125 133.958007812 528.564453125 136.29296875 532.637695312 c 0,121,122
 140.96484375 540.79296875 140.96484375 540.79296875 146.239257812 548.75390625 c 0,123,124
 147.998046875 551.408203125 147.998046875 551.408203125 149.82421875 554.040039062 c 128,-1,125
 151.650390625 556.672851562 151.650390625 556.672851562 153.545898438 559.286132812 c 128,-1,126
 155.440429688 561.8984375 155.440429688 561.8984375 157.403320312 564.490234375 c 0,127,128
 187.043945312 603.635742188 187.043945312 603.635742188 239.240234375 638.678710938 c 0,129,130
 291.712890625 673.907226562 291.712890625 673.907226562 366.266090451 704.762695312 c 2,131,-1
 386.501679648 713.814453125 l 1,132,-1
 386.501679648 765.185546875 l 1,133,-1
 367.781933324 774.7578125 l 2,134,135
 339.39453125 788.958007812 339.39453125 788.958007812 313.26953125 804.859375 c 0,136,137
 304.596679688 810.13671875 304.596679688 810.13671875 296.357421875 815.598632812 c 128,-1,138
 288.120117188 821.060546875 288.120117188 821.060546875 280.328125 826.697265625 c 0,139,140
 276.432617188 829.514648438 276.432617188 829.514648438 272.64453125 832.377929688 c 128,-1,141
 268.857421875 835.240234375 268.857421875 835.240234375 265.178710938 838.1484375 c 0,142,143
 257.86328125 843.93359375 257.86328125 843.93359375 251.005859375 849.89453125 c 128,-1,144
 244.149414062 855.854492188 244.149414062 855.854492188 237.750976562 861.991210938 c 0,145,146
 224.982421875 874.239257812 224.982421875 874.239257812 214.071289062 887.141601562 c 0,147,148
 210.439453125 891.436523438 210.439453125 891.436523438 207.004882812 895.811523438 c 0,149,150
 205.288085938 897.998046875 205.288085938 897.998046875 203.622070312 900.203125 c 128,-1,151
 201.956054688 902.407226562 201.956054688 902.407226562 200.33984375 904.6328125 c 0,152,153
 197.107421875 909.080078125 197.107421875 909.080078125 194.073242188 913.608398438 c 0,154,155
 180.3046875 934.147460938 180.3046875 934.147460938 169.985351562 956.3515625 c 128,-1,156
 159.666015625 978.5546875 159.666015625 978.5546875 152.782226562 1002.45214844 c 128,-1,157
 145.89453125 1026.36523438 145.89453125 1026.36523438 142.447265625 1052.02734375 c 128,-1,158
 139 1077.68945312 139 1077.68945312 139 1105.11914062 c 0,159,160
 139 1110.12695312 139 1110.12695312 139.143554688 1115.07128906 c 128,-1,161
 139.286132812 1120.015625 139.286132812 1120.015625 139.572265625 1124.89355469 c 128,-1,162
 139.858398438 1129.77148438 139.858398438 1129.77148438 140.288085938 1134.58496094 c 128,-1,163
 140.716796875 1139.39746094 140.716796875 1139.39746094 141.288085938 1144.14648438 c 0,164,165
 142.430664062 1153.62890625 142.430664062 1153.62890625 144.142578125 1162.86425781 c 128,-1,166
 145.85546875 1172.10058594 145.85546875 1172.10058594 148.13671875 1181.08691406 c 0,167,168
 149.05078125 1184.68066406 149.05078125 1184.68066406 150.053710938 1188.23632812 c 128,-1,169
 151.055664062 1191.79003906 151.055664062 1191.79003906 152.149414062 1195.3046875 c 128,-1,170
 153.243164062 1198.81933594 153.243164062 1198.81933594 154.426757812 1202.29589844 c 128,-1,171
 155.610351562 1205.77148438 155.610351562 1205.77148438 156.883789062 1209.20800781 c 128,-1,172
 158.157226562 1212.64453125 158.157226562 1212.64453125 159.521484375 1216.04199219 c 0,173,174
 166.345703125 1233.04003906 166.345703125 1233.04003906 175.459960938 1249.15527344 c 0,175,176
 181.551757812 1259.92773438 181.551757812 1259.92773438 188.6953125 1270.33398438 c 2,177,-1
 204.051757812 1290.80175781 l 2,178,179
 212.270507812 1300.86914062 212.270507812 1300.86914062 221.612304688 1310.625 c 128,-1,180
 230.963867188 1320.390625 230.963867188 1320.390625 241.44140625 1329.84179688 c 128,-1,181
 251.950195312 1339.31933594 251.950195312 1339.31933594 263.552734375 1348.43261719 c 0,182,183
 269.376953125 1353.00683594 269.376953125 1353.00683594 275.458007812 1357.47558594 c 128,-1,184
 281.5390625 1361.94433594 281.5390625 1361.94433594 287.974609375 1366.37792969 c 0,185,186
 362.473119 1419.46679688 362.473119 1419.46679688 453.671685972 1446.203125 c 0,187,188
 545.490239408 1473.11914062 545.490239408 1473.11914062 659.806131109 1473.11914062 c 0,189,190
 700.052384182 1473.11914062 700.052384182 1473.11914062 737.267912729 1470.3828125 c 0,191,192
 755.871351515 1469.015625 755.871351515 1469.015625 773.703892404 1466.96875 c 128,-1,193
 791.536433293 1464.92089844 791.536433293 1464.92089844 808.598076285 1462.1953125 c 128,-1,194
 825.651068302 1459.47070312 825.651068302 1459.47070312 841.947580712 1456.06738281 c 128,-1,195
 858.244093123 1452.66503906 858.244093123 1452.66503906 873.784125925 1448.58496094 c 128,-1,196
 889.251106059 1444.52441406 889.251106059 1444.52441406 904.063495834 1439.81347656 c 128,-1,197
 918.875885608 1435.10253906 918.875885608 1435.10253906 933.045219655 1429.73925781 c 128,-1,198
 947.213592483 1424.375 947.213592483 1424.375 960.761978848 1418.35058594 c 0,199,200
 1002.23925781 1400.31054688 1002.23925781 1400.31054688 1038.32421875 1376.34082031 c 0,201,202
 1062.3359375 1360.61328125 1062.3359375 1360.61328125 1082.16601562 1343.3515625 c 0,203,204
 1092.06542969 1334.73535156 1092.06542969 1334.73535156 1100.92089844 1325.74316406 c 128,-1,205
 1109.77636719 1316.75195312 1109.77636719 1316.75195312 1117.59082031 1307.38671875 c 0,206,207
 1148.51855469 1270.31542969 1148.51855469 1270.31542969 1163.72265625 1226.89550781 c 0,208,209
 1171.34179688 1205.13378906 1171.34179688 1205.13378906 1175.16503906 1181.50488281 c 0,210,211
 1177.08007812 1169.66210938 1177.08007812 1169.66210938 1178.0390625 1157.32226562 c 0,212,213
 1178.51953125 1151.1484375 1178.51953125 1151.1484375 1178.75976562 1144.84765625 c 128,-1,214
 1179 1138.546875 1179 1138.546875 1179 1132.11914062 c 0,215,216
 1179 1121.62792969 1179 1121.62792969 1178.28027344 1111.41503906 c 128,-1,217
 1177.55957031 1101.20898438 1177.55957031 1101.20898438 1176.12304688 1091.29101562 c 128,-1,218
 1174.68554688 1081.37597656 1174.68554688 1081.37597656 1172.53320312 1071.73632812 c 0,219,220
 1166.08007812 1042.83984375 1166.08007812 1042.83984375 1153.14160156 1016.20507812 c 0,221,222
 1149.90332031 1009.54101562 1149.90332031 1009.54101562 1146.25488281 1003.00585938 c 0,223,224
 1144.4296875 999.73828125 1144.4296875 999.73828125 1142.50097656 996.500976562 c 128,-1,225
 1140.57226562 993.264648438 1140.57226562 993.264648438 1138.54003906 990.057617188 c 0,226,227
 1134.47363281 983.64453125 1134.47363281 983.64453125 1129.99121094 977.356445312 c 128,-1,228
 1125.50585938 971.065429688 1125.50585938 971.065429688 1120.60644531 964.903320312 c 0,229,230
 1119.37304688 963.352539062 1119.37304688 963.352539062 1118.11035156 961.810546875 c 128,-1,231
 1116.84863281 960.267578125 1116.84863281 960.267578125 1115.55664062 958.732421875 c 128,-1,232
 1114.26464844 957.198242188 1114.26464844 957.198242188 1112.94335938 955.670898438 c 128,-1,233
 1111.62207031 954.143554688 1111.62207031 954.143554688 1110.27246094 952.625 c 0,234,235
 1104.86914062 946.548828125 1104.86914062 946.548828125 1098.98242188 940.5859375 c 0,236,237
 1096.04003906 937.604492188 1096.04003906 937.604492188 1092.97851562 934.655273438 c 128,-1,238
 1089.91699219 931.706054688 1089.91699219 931.706054688 1086.73730469 928.7890625 c 0,239,240
 1080.37011719 922.947265625 1080.37011719 922.947265625 1073.52832031 917.240234375 c 128,-1,241
 1066.68359375 911.530273438 1066.68359375 911.530273438 1059.34765625 905.94140625 c 128,-1,242
 1052.01269531 900.352539062 1052.01269531 900.352539062 1044.19433594 894.895507812 c 0,243,244
 1032.34082031 886.62109375 1032.34082031 886.62109375 1019.61914062 878.694335938 c 128,-1,245
 1006.89746094 870.768554688 1006.89746094 870.768554688 993.287109375 863.177734375 c 0,246,247
 966.255347281 847.991210938 966.255347281 847.991210938 936.349891689 834.134765625 c 2,248,-1
 916.860208687 824.926757812 l 1,0,-1
765.08559995 867.766601562 m 2,249,-1
 786.385258939 860.2421875 l 1,250,-1
 800.623800777 878.760742188 l 2,251,252
 811.667249585 893.12109375 811.667249585 893.12109375 821.1938943 906.83984375 c 128,-1,253
 830.719577795 920.557617188 830.719577795 920.557617188 838.731340856 933.641601562 c 128,-1,254
 846.759444646 946.751953125 846.759444646 946.751953125 853.270744343 959.250976562 c 128,-1,255
 859.78204404 971.749023438 859.78204404 971.749023438 864.779423303 983.650390625 c 0,256,257
 885.708051633 1033.49511719 885.708051633 1033.49511719 885.708051633 1104 c 0,258,259
 885.708051633 1134.70996094 885.708051633 1134.70996094 878.483527197 1161.4921875 c 128,-1,260
 871.233049841 1188.37207031 871.233049841 1188.37207031 856.717676837 1211.16113281 c 128,-1,261
 842.214799684 1233.93359375 842.214799684 1233.93359375 820.571024178 1252.37792969 c 0,262,263
 758.814605084 1305 758.814605084 1305 659.806131109 1305 c 0,264,265
 655.739212151 1305 655.739212151 1305 651.655952465 1304.875 c 128,-1,266
 647.57173156 1304.75 647.57173156 1304.75 643.474053584 1304.50097656 c 128,-1,267
 639.375414389 1304.25195312 639.375414389 1304.25195312 635.261395684 1303.87792969 c 0,268,269
 622.933757861 1302.75683594 622.933757861 1302.75683594 610.50230835 1300.52636719 c 0,270,271
 607.397569935 1299.96875 607.397569935 1299.96875 604.285141766 1299.34277344 c 128,-1,272
 601.173674816 1298.71679688 601.173674816 1298.71679688 598.055479331 1298.02148438 c 128,-1,273
 594.936322626 1297.32617188 594.936322626 1297.32617188 591.812359825 1296.5625 c 128,-1,274
 588.687435804 1295.79882812 588.687435804 1295.79882812 585.555783248 1294.96582031 c 0,275,276
 576.026254875 1292.43261719 576.026254875 1292.43261719 566.893710083 1289.33105469 c 128,-1,277
 557.758281633 1286.22753906 557.758281633 1286.22753906 549.032332615 1282.55664062 c 128,-1,278
 540.189114839 1278.83691406 540.189114839 1278.83691406 531.81881697 1274.56542969 c 0,279,280
 529.000521913 1273.125 529.000521913 1273.125 526.240861236 1271.62890625 c 128,-1,281
 523.482161777 1270.13183594 523.482161777 1270.13183594 520.707121591 1268.53613281 c 128,-1,282
 517.934003842 1266.94140625 517.934003842 1266.94140625 515.03881124 1265.18261719 c 0,283,284
 498.426057673 1254.39453125 498.426057673 1254.39453125 485.033388839 1240.64355469 c 128,-1,285
 471.666672927 1226.921875 471.666672927 1226.921875 461.070191105 1209.93164062 c 0,286,287
 457.315668427 1203.91015625 457.315668427 1203.91015625 454.167675143 1197.56835938 c 0,288,289
 453.11994608 1195.45507812 453.11994608 1195.45507812 452.13950237 1193.30761719 c 128,-1,290
 451.159058661 1191.16113281 451.159058661 1191.16113281 450.246861523 1188.97851562 c 128,-1,291
 449.336586823 1186.79882812 449.336586823 1186.79882812 448.494558696 1184.5859375 c 0,292,293
 447.231516505 1181.26660156 447.231516505 1181.26660156 446.125153064 1177.87890625 c 128,-1,294
 445.019750842 1174.49121094 445.019750842 1174.49121094 444.07006615 1171.03515625 c 0,295,296
 442.185115057 1164.1640625 442.185115057 1164.1640625 440.928801401 1157.08398438 c 128,-1,297
 439.671526526 1150.00292969 439.671526526 1150.00292969 439.044811527 1142.734375 c 128,-1,298
 438.417135309 1135.46582031 438.417135309 1135.46582031 438.417135309 1128 c 0,299,300
 438.417135309 1054.70019531 438.417135309 1054.70019531 478.009759242 1011.49511719 c 0,301,302
 481.52301587 1007.66210938 481.52301587 1007.66210938 485.427488761 1003.86132812 c 128,-1,303
 489.331961653 1000.06054688 489.331961653 1000.06054688 493.612271301 996.305664062 c 128,-1,304
 497.893542167 992.549804688 497.893542167 992.549804688 502.566990518 988.823242188 c 128,-1,305
 507.241400088 985.096679688 507.241400088 985.096679688 512.286840317 981.412109375 c 128,-1,306
 517.333241765 977.728515625 517.333241765 977.728515625 522.774704355 974.068359375 c 0,307,308
 536.351927299 964.935546875 536.351927299 964.935546875 552.376414641 955.932617188 c 128,-1,309
 568.401863202 946.9296875 568.401863202 946.9296875 586.942822732 938.01171875 c 0,310,311
 590.254223301 936.439453125 590.254223301 936.439453125 593.843416255 934.788085938 c 128,-1,312
 597.43068677 933.137695312 597.43068677 933.137695312 601.302478205 931.405273438 c 0,313,314
 609.031642785 927.947265625 609.031642785 927.947265625 617.892162509 924.163085938 c 2,315,-1
 623.919007667 921.603515625 l 2,316,317
 626.994909502 920.306640625 626.994909502 920.306640625 630.193847411 918.974609375 c 128,-1,318
 633.392785319 917.641601562 633.392785319 917.641601562 636.71668174 916.272460938 c 128,-1,319
 640.038655722 914.904296875 640.038655722 914.904296875 643.491355532 913.498046875 c 128,-1,320
 646.944055341 912.090820312 646.944055341 912.090820312 650.52651976 910.645507812 c 128,-1,321
 654.108984179 909.200195312 654.108984179 909.200195312 657.822174425 907.716796875 c 0,322,323
 663.381866992 905.494140625 663.381866992 905.494140625 669.227041698 903.203125 c 128,-1,324
 675.073177623 900.912109375 675.073177623 900.912109375 681.203834468 898.553710938 c 0,325,326
 693.464186939 893.834960938 693.464186939 893.834960938 706.870312844 888.842773438 c 0,327,328
 733.675836117 878.860351562 733.675836117 878.860351562 765.08559995 867.766601562 c 2,249,-1
880.664533842 284.33984375 m 2,329,330
 881.957373832 286.11328125 881.957373832 286.11328125 883.215609927 287.911132812 c 0,331,-1
 885.698439439 291.537109375 l 2,332,333
 886.30881371 292.44921875 886.30881371 292.44921875 886.908614568 293.364257812 c 128,-1,334
 887.508415425 294.280273438 887.508415425 294.280273438 888.102448967 295.206054688 c 0,335,336
 890.284416832 298.614257812 890.284416832 298.614257812 892.279908147 302.189453125 c 2,337,-1
 896.077685694 309.497070312 l 2,338,339
 896.9783482 311.362304688 896.9783482 311.362304688 897.831910959 313.266601562 c 128,-1,340
 898.686434938 315.171875 898.686434938 315.171875 899.49289795 317.116210938 c 0,341,342
 901.105823975 321.004882812 901.105823975 321.004882812 902.529389793 325.048828125 c 0,343,344
 903.239730873 327.069335938 903.239730873 327.069335938 903.903933426 329.127929688 c 128,-1,345
 904.568135978 331.1875 904.568135978 331.1875 905.185238784 333.282226562 c 0,346,347
 906.419444395 337.471679688 906.419444395 337.471679688 907.467173458 341.8203125 c 128,-1,348
 908.511057643 346.146484375 908.511057643 346.146484375 909.379038692 350.625 c 128,-1,349
 910.246058522 355.103515625 910.246058522 355.103515625 910.939097654 359.734375 c 128,-1,350
 911.630214348 364.358398438 911.630214348 364.358398438 912.147350344 369.123046875 c 128,-1,351
 912.66448634 373.887695312 912.66448634 373.887695312 913.006680419 378.79296875 c 0,352,353
 913.235450618 382.060546875 913.235450618 382.060546875 913.387323271 385.396484375 c 128,-1,354
 913.540157144 388.731445312 913.540157144 388.731445312 913.61609347 392.131835938 c 128,-1,355
 913.691068577 395.53125 913.691068577 395.53125 913.691068577 399 c 0,356,357
 913.691068577 404.131835938 913.691068577 404.131835938 913.540157144 409.13671875 c 128,-1,358
 913.38924571 414.141601562 913.38924571 414.141601562 913.086461623 419.026367188 c 128,-1,359
 912.782716317 423.911132812 912.782716317 423.911132812 912.328059577 428.673828125 c 128,-1,360
 911.872441617 433.436523438 911.872441617 433.436523438 911.264951005 438.073242188 c 0,361,362
 910.450798238 444.290039062 910.450798238 444.290039062 909.357891867 450.279296875 c 128,-1,363
 908.265946716 456.26953125 908.265946716 456.26953125 906.891403083 462.046875 c 128,-1,364
 905.516859451 467.823242188 905.516859451 467.823242188 903.861639776 473.373046875 c 0,365,366
 893.623692761 507.719726562 893.623692761 507.719726562 872.322111334 531.969726562 c 0,367,368
 869.141436593 535.590820312 869.141436593 535.590820312 865.47919097 539.252929688 c 128,-1,369
 861.817906567 542.915039062 861.817906567 542.915039062 857.702926643 546.594726562 c 128,-1,370
 853.58794672 550.274414062 853.58794672 550.274414062 848.987551038 554.006835938 c 0,371,372
 835.25845544 565.143554688 835.25845544 565.143554688 817.201950449 576.739257812 c 128,-1,373
 799.221381784 588.28515625 799.221381784 588.28515625 777.074888572 600.283203125 c 128,-1,374
 754.973572667 612.255859375 754.973572667 612.255859375 728.48621299 624.83203125 c 0,375,376
 725.092147559 626.540039062 725.092147559 626.540039062 721.299176108 628.364257812 c 128,-1,377
 717.507165877 630.188476562 717.507165877 630.188476562 713.351814742 632.109375 c 128,-1,378
 709.196463606 634.03125 709.196463606 634.03125 704.738328384 636.022460938 c 0,379,380
 701.385595384 637.51953125 701.385595384 637.51953125 697.848308274 639.0625 c 128,-1,381
 694.311982383 640.60546875 694.311982383 640.60546875 690.59302482 642.194335938 c 0,382,383
 683.157032134 645.370117188 683.157032134 645.370117188 674.979939349 648.731445312 c 0,384,385
 658.641133289 655.44921875 658.641133289 655.44921875 639.345616589 662.912109375 c 0,386,387
 582.765363552 684.80078125 582.765363552 684.80078125 544.295443788 700.658203125 c 2,388,-1
 525.099893899 708.5703125 l 1,389,-1
 510.117368304 693.514648438 l 2,390,391
 503.078359198 686.442382812 503.078359198 686.442382812 496.283499801 678.888671875 c 0,392,393
 492.886550712 675.11328125 492.886550712 675.11328125 489.551119659 671.217773438 c 128,-1,394
 486.216649826 667.323242188 486.216649826 667.323242188 482.94369803 663.309570312 c 0,395,396
 481.306741522 661.302734375 481.306741522 661.302734375 479.686125742 659.266601562 c 128,-1,397
 478.064548744 657.229492188 478.064548744 657.229492188 476.459312473 655.1640625 c 128,-1,398
 474.853114984 653.09765625 474.853114984 653.09765625 473.263258223 651.001953125 c 128,-1,399
 471.673401462 648.90625 471.673401462 648.90625 470.097962991 646.78125 c 0,400,401
 463.797170325 638.279296875 463.797170325 638.279296875 457.743411026 629.303710938 c 128,-1,402
 451.690612946 620.331054688 451.690612946 620.331054688 445.881003355 610.884765625 c 0,403,404
 442.978120998 606.163085938 442.978120998 606.163085938 440.13483424 601.322265625 c 128,-1,405
 437.291547481 596.481445312 437.291547481 596.481445312 434.508817539 591.521484375 c 0,406,407
 416.601301543 559.612304688 416.601301543 559.612304688 407.643698668 523.912109375 c 128,-1,408
 398.697630424 488.258789062 398.697630424 488.258789062 398.697630424 449 c 0,409,410
 398.697630424 328.8671875 398.697630424 328.8671875 477.404191068 256.895507812 c 0,411,412
 496.524765851 239.409179688 496.524765851 239.409179688 518.454023496 226.284179688 c 128,-1,413
 540.383281142 213.159179688 540.383281142 213.159179688 565.061626053 204.426757812 c 128,-1,414
 589.709211945 195.705078125 589.709211945 195.705078125 617.011685609 191.352539062 c 128,-1,415
 644.314159272 187 644.314159272 187 674.249412663 187 c 0,416,417
 685.196739538 187 685.196739538 187 697.225438152 188.166992188 c 0,418,419
 701.225071757 188.555664062 701.225071757 188.555664062 705.337168023 189.0703125 c 128,-1,420
 709.449264289 189.5859375 709.449264289 189.5859375 713.666133461 190.227539062 c 128,-1,421
 717.883002633 190.869140625 717.883002633 190.869140625 722.213295685 191.63671875 c 0,422,423
 728.701526118 192.788085938 728.701526118 192.788085938 735.46178162 194.224609375 c 128,-1,424
 742.222037122 195.661132812 742.222037122 195.661132812 749.25816257 197.3828125 c 0,425,426
 749.945434386 197.55078125 749.945434386 197.55078125 750.625977667 197.720703125 c 128,-1,427
 751.306520948 197.890625 751.306520948 197.890625 751.989947887 198.065429688 c 0,428,429
 753.348150791 198.413085938 753.348150791 198.413085938 754.703470037 198.7734375 c 0,430,431
 757.402573898 199.494140625 757.402573898 199.494140625 760.065151424 200.262695312 c 0,432,433
 761.411819696 200.65234375 761.411819696 200.65234375 762.721961634 201.045898438 c 128,-1,434
 764.033064791 201.439453125 764.033064791 201.439453125 765.379733063 201.860351562 c 2,435,-1
 770.545325707 203.53515625 l 2,436,437
 773.156958609 204.4140625 773.156958609 204.4140625 775.708995913 205.3359375 c 128,-1,438
 778.25622712 206.256835938 778.25622712 206.256835938 780.762125897 207.2265625 c 0,439,440
 782.019400772 207.712890625 782.019400772 207.712890625 783.263218576 208.2109375 c 128,-1,441
 784.5079976 208.708984375 784.5079976 208.708984375 785.77296223 209.231445312 c 2,442,-1
 790.622313717 211.306640625 l 2,443,444
 791.873821276 211.859375 791.873821276 211.859375 793.068616895 212.404296875 c 128,-1,445
 794.264373733 212.94921875 794.264373733 212.94921875 795.472626423 213.51953125 c 128,-1,446
 796.700103499 214.09765625 796.700103499 214.09765625 797.861256442 214.662109375 c 128,-1,447
 799.022409384 215.2265625 799.022409384 215.2265625 800.276800602 215.85546875 c 2,448,-1
 809.408384174 220.727539062 l 2,449,450
 810.618559303 221.412109375 810.618559303 221.412109375 811.714349331 222.051757812 c 128,-1,451
 812.81110058 222.69140625 812.81110058 222.69140625 813.952067917 223.376953125 c 2,452,-1
 818.35156876 226.098632812 l 2,453,454
 822.706853515 228.874023438 822.706853515 228.874023438 826.817988561 231.810546875 c 0,455,456
 836.13989356 238.41015625 836.13989356 238.41015625 844.611119458 245.631835938 c 0,457,458
 846.736375382 247.443359375 846.736375382 247.443359375 848.811647901 249.297851562 c 128,-1,459
 850.885959201 251.151367188 850.885959201 251.151367188 852.909325877 253.045898438 c 0,460,461
 854.258877807 254.310546875 854.258877807 254.310546875 855.581515597 255.590820312 c 128,-1,462
 856.908959482 256.873046875 856.908959482 256.873046875 858.212372885 258.173828125 c 128,-1,463
 859.515786287 259.475585938 859.515786287 259.475585938 860.794207988 260.793945312 c 0,464,465
 864.644852597 264.762695312 864.644852597 264.762695312 868.281145298 268.899414062 c 0,466,467
 869.190458778 269.93359375 869.190458778 269.93359375 870.085353968 270.978515625 c 128,-1,468
 870.980249158 272.022460938 870.980249158 272.022460938 871.862648497 273.079101562 c 0,469,470
 873.626485956 275.189453125 873.626485956 275.189453125 875.334572694 277.341796875 c 0,471,472
 876.018960852 278.203125 876.018960852 278.203125 876.694698036 279.072265625 c 0,473,474
 877.032086019 279.504882812 877.032086019 279.504882812 877.368512782 279.943359375 c 128,-1,475
 877.705900765 280.381835938 877.705900765 280.381835938 878.034637773 280.813476562 c 2,476,-1
 879.358236782 282.5703125 l 1,477,-1
 880.664533842 284.33984375 l 2,329,330
EndSplineSet
Validated: 1025
EndChar

